<svg width="108" height="64" viewBox="0 0 108 64" fill="none" xmlns="http://www.w3.org/2000/svg">
<path d="M30.2119 23.2447C30.2119 24.5654 30.355 25.633 30.6081 26.4144C30.8943 27.1959 31.2465 28.0543 31.7527 28.9788C31.9288 29.265 32.0059 29.5512 32.0059 29.7933C32.0059 30.1455 31.7968 30.5087 31.3235 30.8609L29.0783 32.3577C28.7591 32.5668 28.4399 32.6769 28.1538 32.6769C27.8016 32.6769 27.4384 32.5008 27.0862 32.1816C26.5909 31.6423 26.1617 31.081 25.7985 30.5087C25.4463 29.9034 25.0831 29.232 24.6979 28.4065C21.9133 31.6863 18.4244 33.3152 14.2091 33.3152C11.2155 33.3152 8.82719 32.4568 7.07724 30.7508C5.32728 29.0449 4.43579 26.7666 4.43579 23.9161C4.43579 20.8894 5.50337 18.4351 7.68257 16.5861C9.86176 14.7371 12.7453 13.8126 16.4213 13.8126C17.632 13.8126 18.8867 13.9226 20.1964 14.0987C21.5171 14.2748 22.8709 14.561 24.3017 14.8801V12.2827C24.3017 9.57524 23.7293 7.69321 22.6287 6.5816C21.4841 5.481 19.5581 4.9417 16.8176 4.9417C15.5739 4.9417 14.2862 5.08478 12.9655 5.40396C11.6447 5.72313 10.357 6.11935 9.11335 6.61462C8.53003 6.86776 8.1008 7.01083 7.85866 7.08788C7.60552 7.15391 7.42943 7.19794 7.28635 7.19794C6.79108 7.19794 6.53794 6.84574 6.53794 6.09733V4.34738C6.53794 3.77506 6.60398 3.34583 6.79108 3.1037C6.96718 2.85056 7.28635 2.60843 7.79263 2.35529C9.03631 1.71694 10.5331 1.17764 12.2831 0.748409C14.033 0.286157 15.882 0.0770421 17.8411 0.0770421C22.0894 0.0770421 25.1821 1.03457 27.1852 2.96062C29.1443 4.88667 30.1459 7.80327 30.1459 11.7214V23.2557H30.2119V23.2447ZM15.739 28.6597C16.9166 28.6597 18.1273 28.4506 19.415 28.0213C20.7027 27.5921 21.8363 26.8107 22.8048 25.7431C23.3771 25.0717 23.8064 24.3233 24.0155 23.4648C24.2246 22.6064 24.3677 21.5828 24.3677 20.3721V18.8753C23.3331 18.6222 22.2325 18.4131 21.0879 18.27C19.9433 18.1269 18.8427 18.0609 17.7311 18.0609C15.3428 18.0609 13.5928 18.5231 12.4152 19.4807C11.2375 20.4382 10.6652 21.7919 10.6652 23.5749C10.6652 25.2478 11.0944 26.4915 11.9859 27.35C12.8444 28.2304 14.0991 28.6597 15.739 28.6597ZM44.3656 32.5008C43.7273 32.5008 43.298 32.3907 43.0119 32.1486C42.7257 31.9395 42.4726 31.4332 42.2635 30.7618L33.8879 3.24678C33.6678 2.53138 33.5687 2.06913 33.5687 1.81599C33.5687 1.24368 33.8549 0.924506 34.4272 0.924506H37.9271C38.6095 0.924506 39.0717 1.03457 39.3139 1.2767C39.6 1.48581 39.8091 1.99209 40.0293 2.66346L46.0165 26.2273L51.5746 2.66346C51.7507 1.94807 51.9708 1.48581 52.2569 1.2767C52.5431 1.06758 53.0384 0.924506 53.6877 0.924506H56.5383C57.2207 0.924506 57.6829 1.03457 57.9691 1.2767C58.2552 1.48581 58.5084 1.99209 58.6514 2.66346L64.2865 26.5135L70.4389 2.67446C70.648 1.95907 70.9011 1.49682 71.1543 1.2877C71.4404 1.07859 71.9027 0.935512 72.541 0.935512H75.8538C76.4262 0.935512 76.7453 1.22167 76.7453 1.827C76.7453 2.0031 76.7123 2.17919 76.6793 2.39931C76.6463 2.60843 76.5692 2.89458 76.4262 3.2908L67.8305 30.8058C67.6213 31.5212 67.3682 31.9835 67.0821 32.1926C66.7959 32.4017 66.3336 32.5448 65.7283 32.5448H62.6576C61.9753 32.5448 61.513 32.4347 61.2269 32.1926C60.9407 31.9395 60.6876 31.4772 60.5445 30.7728L55.0305 7.79226L49.5385 30.7178C49.3624 31.4332 49.1422 31.8954 48.8561 32.1376C48.5699 32.3797 48.0747 32.4898 47.4253 32.4898H44.3656V32.5008ZM90.1837 33.4583C88.3237 33.4583 86.4747 33.2492 84.6917 32.8199C82.9087 32.3907 81.522 31.9285 80.5864 31.4002C80.0141 31.081 79.6179 30.7288 79.4748 30.3986C79.3318 30.0795 79.2657 29.7273 79.2657 29.3971V27.5811C79.2657 26.8327 79.5519 26.4805 80.0912 26.4805C80.3003 26.4805 80.5204 26.5135 80.7295 26.5905C80.9386 26.6566 81.2688 26.7997 81.621 26.9427C82.8317 27.482 84.1524 27.9003 85.5391 28.1864C86.9699 28.4726 88.3567 28.6156 89.7875 28.6156C92.0327 28.6156 93.7827 28.2194 94.9933 27.438C96.204 26.6566 96.8423 25.512 96.8423 24.0592C96.8423 23.0576 96.5232 22.2432 95.8848 21.5718C95.2465 20.9004 94.0248 20.2951 92.2858 19.7228L87.113 18.1159C84.5156 17.3015 82.5895 16.0908 81.4119 14.4839C80.2342 12.9211 79.6289 11.1711 79.6289 9.3221C79.6289 7.82528 79.9481 6.50456 80.5974 5.37094C81.2358 4.22631 82.0943 3.23577 83.1618 2.45434C84.2294 1.6399 85.4401 1.03457 86.8709 0.605331C88.3017 0.176096 89.7985 0 91.3613 0C92.1428 0 92.9682 0.0330181 93.7496 0.143078C94.5751 0.253138 95.3235 0.396217 96.0719 0.539295C96.7873 0.715391 97.4587 0.891488 98.108 1.11161C98.7464 1.32072 99.2526 1.54084 99.6048 1.74996C100.1 2.03611 100.463 2.32227 100.672 2.64144C100.882 2.9276 100.992 3.31281 100.992 3.81909V5.492C100.992 6.24041 100.705 6.63663 100.166 6.63663C99.88 6.63663 99.4177 6.49355 98.8124 6.20739C96.7763 5.28289 94.498 4.82064 91.9667 4.82064C89.9305 4.82064 88.3347 5.13981 87.2231 5.82218C86.1225 6.49355 85.5502 7.52812 85.5502 8.99192C85.5502 9.99347 85.9023 10.8409 86.6177 11.5233C87.3331 12.1947 88.6539 12.877 90.5359 13.4824L95.5986 15.0893C98.1631 15.9037 100.023 17.0483 101.124 18.5121C102.224 19.9759 102.764 21.6488 102.764 23.4979C102.764 25.0277 102.444 26.4144 101.839 27.6251C101.201 28.8358 100.342 29.9034 99.2306 30.7618C98.13 31.6533 96.8093 32.2917 95.2685 32.7539C93.6836 33.2162 92.0107 33.4583 90.1837 33.4583Z" fill="white"/>
<path fill-rule="evenodd" clip-rule="evenodd" d="M96.9302 50.7598C85.1978 59.4106 68.1495 64.0001 53.5005 64.0001C32.9633 64.0001 14.4511 56.4169 0.473488 43.815C-0.627114 42.8135 0.363428 41.4707 1.68415 42.2522C16.8064 51.013 35.4506 56.3179 54.7442 56.3179C67.7643 56.3179 82.0611 53.6104 95.2133 48.0633C97.1724 47.1719 98.8563 49.34 96.9302 50.7598Z" fill="white"/>
<path fill-rule="evenodd" clip-rule="evenodd" d="M101.817 45.2129C100.32 43.2869 91.9006 44.2884 88.0925 44.7507C86.9479 44.8938 86.7718 43.8922 87.8063 43.1438C94.509 38.4442 105.526 39.798 106.814 41.3608C108.101 42.9677 106.462 53.9627 100.177 59.2346C99.2086 60.0491 98.2841 59.6308 98.7133 58.5632C100.133 55.0413 103.314 47.095 101.817 45.2129Z" fill="white"/>
</svg>
