<svg width="343" height="64" viewBox="0 0 343 64" fill="none" xmlns="http://www.w3.org/2000/svg">
<path d="M324.1 54.9434C324.1 49.9926 328.205 45.8867 333.156 45.8867C338.108 45.8867 342.212 49.9926 342.212 54.9434C342.212 59.8943 338.108 63.9999 333.156 63.9999C328.205 63.9999 324.1 59.8943 324.1 54.9434Z" fill="white"/>
<path d="M52.0451 30.3093C52.0451 40.8151 49.2677 48.7848 43.5922 54.4601C37.9167 60.1356 30.0678 62.913 19.8037 62.913H0V0.12085H21.2526C31.0337 0.12085 38.6413 2.65671 44.0752 7.84906C49.2677 13.1623 52.0451 20.5284 52.0451 30.3093ZM34.7772 30.9131C34.7772 25.1169 33.6905 20.8905 31.3961 18.1131C29.2225 15.3358 25.8414 14.0076 21.2526 14.0076H16.4226V49.1471H20.1658C25.2376 49.1471 28.8602 47.698 31.2752 44.6792C33.6905 41.6604 34.7772 37.0716 34.7772 30.9131Z" fill="white"/>
<path d="M122.684 0H106.865V63.0336H122.684V0Z" fill="white"/>
<path d="M174.363 39.4867C174.363 47.0943 172.31 53.132 168.325 57.3584C164.341 61.5848 158.665 63.7584 151.42 63.7584C144.537 63.7584 138.982 61.5849 134.877 57.2375C130.771 52.8905 128.718 46.9735 128.718 39.4867C128.718 31.8794 130.771 25.9623 134.756 21.7359C138.741 17.5095 144.416 15.4568 151.661 15.4568C156.129 15.4568 160.114 16.4227 163.616 18.3547C167.118 20.2868 169.654 23.0641 171.586 26.8076C173.518 30.3094 174.363 34.6567 174.363 39.4867ZM144.779 39.4867C144.779 43.4717 145.261 46.6114 146.348 48.664C147.435 50.717 149.126 51.8037 151.661 51.8037C154.077 51.8037 155.888 50.717 156.854 48.664C157.82 46.6114 158.424 43.4717 158.424 39.4867C158.424 35.502 157.941 32.4829 156.854 30.4303C155.888 28.3774 154.077 27.4114 151.661 27.4114C149.246 27.4114 147.556 28.3774 146.469 30.4303C145.382 32.4829 144.779 35.502 144.779 39.4867Z" fill="white"/>
<path d="M196.472 16.1814H180.654V63.0339H196.472V16.1814Z" fill="white"/>
<path d="M196.472 0H180.654V10.5056H196.472V0Z" fill="white"/>
<path d="M228.346 51.0791C230.52 51.0791 233.058 50.5959 235.955 49.5091V61.3431C233.781 62.309 231.849 62.9129 229.917 63.3958C227.984 63.7581 225.69 63.9996 223.155 63.9996C217.843 63.9996 214.099 62.6714 211.684 60.0147C209.39 57.3582 208.181 53.2526 208.181 47.8185V28.498H202.626V16.4225H208.181V4.22632L224.12 1.44897V16.181H234.143V28.2565H224.12V46.4903C224.12 49.5091 225.57 51.0791 228.346 51.0791Z" fill="white"/>
<path d="M264.937 51.0785C267.11 51.0785 269.646 50.5953 272.543 49.5086V61.3426C270.369 62.3085 268.437 62.9123 266.505 63.3953C264.575 63.7576 262.278 63.9991 259.743 63.9991C254.431 63.9991 250.687 62.6709 248.272 60.0144C245.978 57.3577 244.77 53.2521 244.77 47.818V28.4975H239.216V16.4222H244.77V4.34666L260.71 1.81079V16.5428H270.731V28.6183H260.71V46.8521C260.59 49.5086 262.037 51.0785 264.937 51.0785Z" fill="white"/>
<path d="M314.679 20.8906C310.935 17.268 305.623 15.3359 298.741 15.3359C291.494 15.3359 285.941 17.3886 282.076 21.7359C278.212 25.9621 276.28 32 276.28 39.9697C276.28 47.5773 278.332 53.4941 282.559 57.7205C286.785 61.8261 292.703 63.879 300.311 63.879C303.932 63.879 307.073 63.6375 309.729 63.1543C312.385 62.6714 314.921 61.8261 317.335 60.4979L314.921 49.9923C313.109 50.7167 311.42 51.3205 309.85 51.6829C307.556 52.1658 305.02 52.5282 302.241 52.5282C299.223 52.5282 296.809 51.8035 294.997 50.3546C293.185 48.9055 292.341 46.8526 292.22 44.1961H320.356V37.0715C320.235 29.8262 318.423 24.5133 314.679 20.8906ZM292.462 33.8112C292.703 31.2753 293.427 29.3433 294.635 28.1359C295.841 26.9283 297.412 26.3244 299.344 26.3244C301.397 26.3244 302.967 27.0489 304.174 28.3774C305.382 29.7056 305.985 31.5168 306.106 33.8112H292.462Z" fill="white"/>
<path d="M95.1542 20.8906C91.411 17.268 86.0978 15.3359 79.2149 15.3359C71.9696 15.3359 66.4149 17.3886 62.5508 21.7359C58.6865 25.9621 56.7544 32 56.7544 39.9697C56.7544 47.5773 58.8073 53.4941 63.0338 57.7205C67.2602 61.8261 73.177 63.879 80.7846 63.879C84.4072 63.879 87.5469 63.6375 90.2034 63.1543C92.8599 62.6714 95.3957 61.8261 97.811 60.4979L95.3957 49.9923C93.5845 50.7167 91.8939 51.3205 90.3242 51.6829C88.0298 52.1658 85.494 52.5282 82.7166 52.5282C79.6978 52.5282 77.2826 51.8035 75.4714 50.3546C73.6602 48.9055 72.8149 46.8526 72.694 44.1961H100.83V37.0715C100.83 29.8262 98.8977 24.5133 95.1542 20.8906ZM72.9355 33.8112C73.177 31.2753 73.9017 29.3433 75.109 28.1359C76.3167 26.9283 77.8864 26.3244 79.8184 26.3244C81.8713 26.3244 83.4411 27.0489 84.6487 28.3774C85.8563 29.7056 86.4599 31.5168 86.5807 33.8112H72.9355Z" fill="white"/>
</svg>
