<svg width="315" height="64" viewBox="0 0 315 64" fill="none" xmlns="http://www.w3.org/2000/svg">
<g clip-path="url(#clip0_14404_895)">
<path d="M30.0392 15.7059H37.5686H45.2941L47.8039 0H40.0588H32.3333H24.5882H16.8431L15.7059 7.7451H7.96078L5.68627 23.2157L3.41176 38.4706L2.27451 46.4314L0 61.6863H7.5098H15.4706L16.3922 54.1765H16.6078H24.1373L25.4902 46.4314L26.6275 38.4706H34.1373H36.4314H36.6471L38.9216 23.2157H36.6471H28.902L30.0392 15.7059Z" fill="white"/>
<path d="M72.843 11.6074H101.078V17.7447H80.3528V30.0388H99.2548V36.1761H80.3528V53.2545H72.6077V11.6074C72.392 11.6074 72.843 11.6074 72.843 11.6074Z" fill="white"/>
<path d="M119.274 20.0391C122.235 20.0391 124.745 20.49 126.784 21.4116C129.059 22.3136 130.431 23.9214 131.333 25.5097L131.568 20.2744H138.392V53.0587H131.568L131.333 47.8234C129.294 51.6861 125.196 53.5097 119.039 53.5097C116.078 53.5097 113.353 52.8234 111.294 51.2351C108.784 49.8626 106.96 47.8234 105.608 45.0979C104.255 42.3724 103.333 39.6273 103.333 36.2155C103.333 33.0195 104.019 30.0783 105.608 27.3332C106.98 24.6077 108.804 22.7842 111.294 21.1959C114.039 20.7057 116.313 20.0391 119.274 20.0391ZM121.333 47.5685C124.294 47.5685 126.804 46.6665 128.627 44.6077C130.666 42.5685 131.588 40.0587 131.588 37.0979C131.588 34.1371 130.686 31.4116 128.627 29.5881C126.588 27.5489 124.294 26.6273 121.333 26.6273C118.372 26.6273 115.862 27.5293 114.039 29.5881C112 31.6273 111.078 34.1371 111.078 37.0979C111.078 40.0587 111.98 42.7842 114.039 44.6077C115.862 46.6665 118.372 47.5685 121.333 47.5685Z" fill="white"/>
<path d="M144.549 20.4901H151.372L151.608 24.8234C152.98 22.7842 154.804 21.6274 156.392 21.1764C158.215 20.4901 160.49 20.2744 163.686 20.2744V26.4117C159.823 26.4117 156.862 27.3136 154.804 29.3725C152.529 31.4117 151.608 33.7058 151.608 36.8823V53.2744H144.313V20.4901H144.549Z" fill="white"/>
<path d="M180.294 20.0391C183.255 20.0391 185.765 20.49 187.804 21.4116C190.079 22.3136 191.451 23.9214 192.353 25.5097L192.588 20.2744H199.412V53.0587H192.588L192.353 47.8234C190.314 51.6861 186.216 53.5097 180.059 53.5097C177.098 53.5097 174.373 52.8234 172.314 51.2351C169.804 49.8626 167.98 47.8234 166.628 45.0979C165.275 42.3724 164.353 39.6273 164.353 36.2155C164.353 33.0195 165.039 30.0783 166.628 27.3332C168.216 24.6077 169.824 22.7842 172.314 21.1959C174.824 20.7057 177.333 20.0391 180.294 20.0391ZM182.333 47.5685C185.294 47.5685 187.804 46.6665 189.628 44.6077C191.667 42.5685 192.588 40.0587 192.588 37.0979C192.588 34.1371 191.686 31.4116 189.628 29.5881C187.588 27.5489 185.294 26.6273 182.333 26.6273C179.373 26.6273 176.863 27.5293 175.039 29.5881C173 31.6273 172.079 34.1371 172.079 37.0979C172.079 40.0587 172.98 42.7842 175.039 44.6077C176.882 46.6665 179.373 47.5685 182.333 47.5685Z" fill="white"/>
<path d="M219.666 20.039C222.627 20.039 225.137 20.49 227.176 21.4115C229.451 22.3135 230.823 23.9213 231.725 25.5096V8.43115H239.019V53.039H232.196L231.96 47.8037C229.921 51.6664 225.823 53.49 219.666 53.49C216.706 53.49 213.98 52.8037 211.921 51.2155C209.411 49.8429 207.588 47.8037 206.235 45.0782C204.882 42.3527 203.96 39.6076 203.96 36.1959C203.96 32.9998 204.647 30.0586 206.235 27.3135C207.608 24.588 209.431 22.7645 211.921 21.1763C213.98 20.7057 216.706 20.039 219.666 20.039ZM214.196 44.6076C216.235 46.6468 218.529 47.5684 221.49 47.5684C224.451 47.5684 226.96 46.6664 228.784 44.6076C230.823 42.5684 231.745 40.0586 231.745 37.0978C231.745 34.137 230.843 31.4115 228.784 29.588C226.745 27.5488 224.451 26.6272 221.49 26.6272C218.529 26.6272 216.019 27.5292 214.196 29.588C212.157 31.6272 211.235 34.137 211.235 37.0978C211.235 40.0586 212.392 42.5684 214.196 44.6076Z" fill="white"/>
<path d="M258.823 20.0391C261.784 20.0391 264.294 20.49 266.333 21.4116C268.608 22.3136 269.98 23.9214 270.882 25.5097L271.118 20.2744H277.941V53.0587H271.118L270.882 47.8234C268.843 51.6861 264.745 53.5097 258.588 53.5097C255.627 53.5097 252.902 52.8234 250.843 51.2351C248.333 49.8626 246.51 47.8234 245.157 45.0979C243.804 42.3724 242.882 39.6273 242.882 36.2155C242.882 33.0195 243.569 30.0783 245.157 27.3332C246.529 24.6077 248.353 22.7842 250.843 21.1959C253.353 20.7057 256.098 20.0391 258.823 20.0391ZM260.863 47.5685C263.823 47.5685 266.333 46.6665 268.157 44.6077C270.196 42.5685 271.118 40.0587 271.118 37.0979C271.118 34.1371 270.216 31.4116 268.157 29.5881C266.118 27.5489 263.823 26.6273 260.863 26.6273C257.902 26.6273 255.392 27.5293 253.569 29.5881C251.529 31.6273 250.608 34.1371 250.608 37.0979C250.608 40.0587 251.51 42.7842 253.569 44.6077C255.412 46.6665 257.902 47.5685 260.863 47.5685Z" fill="white"/>
<path d="M306.843 20.4897H314.588L301.843 52.8231C300.019 56.9211 297.98 59.6466 295.235 61.7054C292.51 63.529 288.863 64.2152 284.313 63.9799L283.863 58.5094C289.549 58.5094 292.745 57.1368 293.431 53.9603L280.686 20.4897H288.647L297.745 47.1172L306.843 20.4897Z" fill="white"/>
</g>
<defs>
<clipPath id="clip0_14404_895">
<rect width="314.588" height="64" fill="white"/>
</clipPath>
</defs>
</svg>
