<svg width="378" height="64" viewBox="0 0 378 64" fill="none" xmlns="http://www.w3.org/2000/svg">
<path d="M70.4819 9.81724C70.4819 8.43277 71.7405 4.21645 71.7405 4.21645C71.7405 4.21645 63.9371 8.81036 63.9371 14.0336C63.9371 17.6835 66.2655 19.8861 66.2655 20.7671C66.2655 21.8369 61.5458 24.0395 47.3865 24.0395L37.0659 41.1565L33.5418 43.422L29.2626 51.477H21.2705L26.1161 43.5478L24.9204 41.0936L36.6254 23.536C18.3127 23.536 15.9214 21.3335 15.9214 20.9559C15.9214 19.949 23.8506 16.299 23.8506 10.1319C23.8506 7.30003 21.0187 3.83887 21.0187 3.83887C19.6972 15.7956 1.63623 12.9637 1.63623 26.4937C1.63623 32.0316 8.36976 34.423 15.0404 34.9264L12.7749 38.3246C11.8939 39.5832 12.5861 41.0306 13.6559 43.1702L9.18785 50.3443C9.18785 50.3443 7.11116 51.8546 6.67065 52.6727C5.72669 54.4977 7.67753 57.2666 10.7611 62.301H32.5979C39.9607 58.1476 42.9814 56.4485 42.9814 54.6865L42.8555 52.8615L47.0718 45.4987C48.1416 44.9952 50.8476 43.6108 51.9804 41.7858L55.8191 35.5557C66.769 35.3669 78.2852 30.9618 78.2852 21.5223C78.3481 15.2922 70.4819 14.4741 70.4819 9.81724ZM55.064 34.2342L50.8476 41.1565C49.7149 43.0444 46.1279 44.4918 46.1279 44.4918L41.471 52.6098L41.5969 54.6865C41.6598 55.8192 34.4229 59.658 32.2203 60.9795H11.5792C10.824 59.7209 7.29995 54.6865 7.92925 53.3649C8.18097 52.8615 9.18785 52.1693 10.2577 51.2883L15.2921 43.2332C14.2223 41.0935 13.53 39.772 13.9706 39.0798L17.6205 33.6049C13.4671 33.6049 3.0207 32.598 3.0207 26.4937C3.0207 15.2292 18.942 15.7956 21.5222 7.11125C22.0885 7.99227 22.4032 9.06209 22.4661 10.069C22.4661 15.8585 14.474 18.5016 14.474 20.83C14.474 24.1024 25.5497 24.8576 33.9194 24.8576L23.2213 40.9048L24.417 43.422L18.7532 52.8615H30.0807L34.6117 44.3659L38.1357 42.1004L48.1416 25.4239C61.7975 25.4239 67.5871 23.2214 67.5871 20.7671C67.5871 19.1309 65.2587 17.4318 65.2587 14.0336C65.2587 10.6353 69.2862 7.67761 69.2862 7.67761C67.2095 15.418 76.9007 15.418 76.9007 21.5852C76.9637 30.3325 65.3216 34.2342 55.064 34.2342Z" fill="white"/>
<path d="M72.118 9.8171C72.118 7.36282 74.5723 0.0629148 74.5723 0.0629148C74.5723 0.0629148 62.238 6.92231 62.238 14.0334C62.238 17.4946 64.1888 20.3264 64.1888 20.3264C60.5389 22.0256 53.3648 22.3402 46.3796 22.3402L35.8073 39.8977L32.2203 42.1632L28.1927 49.7149H24.2281L28.0039 43.6106L26.8712 41.1563L39.7719 21.8997C25.1092 21.8997 22.0885 21.4592 18.8161 20.5782C18.8161 20.5782 25.6126 16.236 25.6126 10.1947C25.6126 6.16715 20.5152 0 20.5152 0L18.6273 6.35593C16.6136 13.2153 0 13.1524 0 26.6195C0 32.5349 5.60079 35.4297 12.1455 36.3736L11.3904 37.4435C10.1318 39.2684 10.824 41.1563 11.7679 43.1072L7.9292 49.2743C7.9292 49.2743 5.85251 50.7217 5.16028 51.9803C3.83874 54.5605 5.53786 57.2665 9.75418 64H33.1013C42.2262 58.8397 44.6175 57.4553 44.6175 54.5605C44.6175 54.5605 44.5546 53.9312 44.5546 53.3648L48.2675 46.9459C49.7149 46.2537 52.2321 44.8063 53.4277 42.7925L56.763 37.3176C68.2163 36.8771 79.9843 31.9056 79.9843 21.648C80.0472 14.6627 72.118 12.9007 72.118 9.8171ZM55.882 35.6185L52.0433 41.8486C50.9105 43.6736 48.2045 45.058 47.1347 45.5615L42.9184 52.9243L43.0443 54.7493C43.0443 56.4484 40.0236 58.2104 32.6608 62.3638H10.824C7.74042 57.3294 5.78958 54.5605 6.73353 52.7355C7.17404 51.8545 9.25074 50.4071 9.25074 50.4071L13.7188 43.1701C12.649 41.0305 11.9567 39.5831 12.8378 38.3245L15.1032 34.9263C8.43265 34.4857 1.63618 32.0944 1.63618 26.5565C1.63618 12.9636 19.6972 15.8584 21.0816 3.90166C21.0816 3.90166 23.9135 7.29989 23.9135 10.1947C23.9135 16.3618 15.9213 19.9489 15.9213 21.0187C15.9213 21.3963 18.3127 23.5988 36.6254 23.5988L24.9204 41.1563L26.116 43.6106L21.2704 51.4769H29.2625L33.5418 43.4218L37.0659 41.1563L47.3235 24.0393C61.4828 24.0393 66.2026 21.8368 66.2026 20.767C66.2026 19.8859 63.8742 17.6834 63.8742 14.0334C63.8742 8.81022 71.6775 4.21631 71.6775 4.21631C71.6775 4.21631 70.4189 8.43263 70.4189 9.8171C70.4189 14.4739 78.3481 15.292 78.3481 21.585C78.3481 31.0246 66.8319 35.4297 55.882 35.6185Z" fill="white"/>
<path d="M41.6597 60.6646C41.2822 60.6646 40.9046 60.7904 40.5899 61.1051C40.3382 61.3568 40.1494 61.7973 40.1494 62.1749C40.1494 62.5525 40.2753 62.93 40.5899 63.2447C41.1563 63.8111 42.1002 63.874 42.7296 63.2447C43.2959 62.6783 43.2959 61.7344 42.7296 61.1051C42.4778 60.8533 42.1003 60.6646 41.6597 60.6646ZM42.6037 63.0559C42.1003 63.5593 41.2822 63.5593 40.7787 63.0559C40.2753 62.5524 40.2753 61.7344 40.7787 61.2309C41.2822 60.7275 42.1003 60.7275 42.6037 61.2309C43.1071 61.7344 43.1071 62.5524 42.6037 63.0559Z" fill="white"/>
<path d="M42.3519 61.7974C42.3519 61.6086 42.2889 61.4198 42.1001 61.3569C41.9743 61.2939 41.7855 61.2939 41.6596 61.2939H41.0933V62.9301H41.4079V62.3008H41.6596C41.7855 62.3008 41.9114 62.3008 41.9743 62.3637C42.1001 62.4267 42.1631 62.6155 42.1001 62.7413V62.8672V62.9301H42.3519V62.8672C42.3519 62.8043 42.3519 62.8043 42.3519 62.7413V62.6155C42.3519 62.5526 42.2889 62.4267 42.2889 62.3637C42.226 62.3008 42.1001 62.2379 42.0372 62.175C42.1001 62.175 42.226 62.112 42.2889 62.112C42.2889 62.0491 42.3519 61.9232 42.3519 61.7974ZM41.9114 62.0491C41.8484 62.0491 41.7226 62.112 41.6596 62.112H41.4079V61.5457H41.6596C41.7855 61.5457 41.9114 61.5457 42.0372 61.6086C42.1631 61.7345 42.1631 61.9232 42.1001 62.0491C41.9743 62.0491 41.9743 62.0491 41.9114 62.0491Z" fill="white"/>
<path d="M101.695 7.55151V16.8022C101.695 18.0608 102.262 18.7531 103.457 18.7531C104.653 18.7531 105.219 18.0608 105.219 16.8022V7.55151H107.737V16.8022C107.737 19.697 106.038 20.9556 103.394 20.9556C100.751 20.9556 99.1152 19.76 99.1152 16.8022V7.55151H101.695Z" fill="white"/>
<path d="M113.085 20.7669V7.55151H115.854L119.378 15.3549H119.441V7.55151H121.77V20.7669H119.378L115.54 12.2083H115.477V20.7669H113.085Z" fill="white"/>
<path d="M126.993 20.7669V7.55151H129.51V20.7669H126.993Z" fill="white"/>
<path d="M133.853 7.55151H136.37L138.698 16.991H138.761L141.09 7.55151H143.544L140.146 20.7669H137.251L133.853 7.55151Z" fill="white"/>
<path d="M147.634 20.7669V7.55151H154.557V9.75407H150.151V12.7747H153.487V14.9773H150.151V18.4384H154.745V20.641L147.634 20.7669Z" fill="white"/>
<path d="M165.443 20.7669L163.241 15.3549H162.045V20.7669H159.528V7.55151H163.178C166.198 7.55151 167.646 8.9989 167.646 11.5161C167.646 13.1523 167.079 14.348 165.632 14.9143L168.149 20.8298L165.443 20.7669ZM162.045 13.3411H163.304C164.436 13.3411 165.129 12.7747 165.129 11.5161C165.129 10.2575 164.436 9.69114 163.304 9.69114H162.045V13.3411Z" fill="white"/>
<path d="M178.03 11.2647C177.589 10.006 177.086 9.50259 176.205 9.50259C175.324 9.50259 174.82 10.069 174.82 10.95C174.82 12.9638 180.484 13.0896 180.484 17.243C180.484 19.5085 178.911 21.0188 176.267 21.0188C174.191 21.0188 172.618 19.8861 171.925 17.306L174.443 16.8025C174.757 18.3758 175.638 18.9421 176.393 18.9421C177.211 19.0051 177.904 18.3758 177.967 17.5577C177.967 17.4947 177.967 17.4318 177.967 17.3689C177.967 14.8517 172.303 14.8517 172.303 11.1388C172.303 8.8733 173.687 7.4259 176.267 7.4259C178.218 7.30004 179.98 8.68451 180.358 10.6353L178.03 11.2647Z" fill="white"/>
<path d="M185.518 20.7669V7.55151H188.035V20.7669H185.518Z" fill="white"/>
<path d="M200.81 7.55151V9.75407H197.852V20.7669H195.335V9.75407H192.44V7.55151H200.81Z" fill="white"/>
<path d="M209.054 12.9006L211.194 7.55151H213.9L210.313 15.4178V20.7669H207.796V15.4178L204.208 7.55151H206.914L209.054 12.9006Z" fill="white"/>
<path d="M223.15 20.9558C220.633 20.9558 219.375 18.8161 219.375 16.1731C219.375 13.53 220.633 11.3904 223.15 11.3904C225.668 11.3904 226.926 13.53 226.926 16.1731C226.926 18.8161 225.668 20.9558 223.15 20.9558ZM223.15 12.4602C221.64 12.4602 220.633 13.7817 220.633 16.1731C220.633 18.5644 221.64 19.886 223.15 19.886C224.661 19.886 225.668 18.5644 225.668 16.1731C225.668 13.7817 224.661 12.4602 223.15 12.4602Z" fill="white"/>
<path d="M230.954 20.767V12.649H229.38V11.5163H230.954V10.4465C230.954 8.24391 231.709 7.74048 233.219 7.74048C233.597 7.74048 233.974 7.80341 234.352 7.80341V8.93615C234.037 8.87322 233.723 8.8103 233.408 8.8103C232.527 8.8103 232.212 9.12494 232.212 10.1318V11.5163H234.226V12.649H232.212V20.767H230.954Z" fill="white"/>
<path d="M110.82 37.884C109.813 34.9263 108.492 33.6677 106.415 33.6677C104.338 33.6677 103.08 34.9892 103.08 37.0659C103.08 41.7857 116.484 42.1633 116.484 51.9804C116.484 57.3924 112.771 60.9165 106.478 60.9165C101.632 60.9165 97.7935 58.2734 96.2202 52.1063L102.136 50.8477C102.828 54.6235 105.03 55.945 106.792 55.945C108.869 55.945 110.505 54.5605 110.505 52.2321C110.505 46.3167 97.1012 46.2538 97.1012 37.4435C97.1012 32.0315 100.311 28.6333 106.541 28.6333C111.89 28.6333 115.162 31.7798 116.169 36.2478L110.82 37.884Z" fill="white"/>
<path d="M120.763 39.2686C120.763 31.5282 124.854 28.7593 130.706 28.7593C136.559 28.7593 140.649 31.5282 140.649 39.2686V50.4702C140.649 58.2106 136.559 60.9795 130.706 60.9795C124.854 60.9795 120.763 58.2106 120.763 50.4702V39.2686ZM126.742 51.2254C126.742 54.6865 128.252 55.6934 130.643 55.6934C133.035 55.6934 134.545 54.7495 134.545 51.2254V38.3876C134.545 34.9264 133.035 33.9825 130.643 33.9825C128.252 33.9825 126.742 34.9264 126.742 38.3876V51.2254Z" fill="white"/>
<path d="M151.41 29.1367V51.0994C151.41 54.0571 152.731 55.6933 155.626 55.6933C158.521 55.6933 159.906 54.12 159.906 51.0994V29.1367H165.884V51.1623C165.884 58.0846 161.793 60.9794 155.626 60.9794C149.459 60.9794 145.369 58.0846 145.369 51.1623V29.1367H151.41Z" fill="white"/>
<path d="M190.238 29.1367V34.4229H183.253V60.5389H177.274V34.4858H170.289V29.1997H190.238V29.1367Z" fill="white"/>
<path d="M194.58 60.5389V29.1367H200.558V41.6598H209.054V29.1367H215.032V60.5389H209.054V46.946H200.621V60.5389H194.58Z" fill="white"/>
<path d="M230.765 60.5389V29.1367H246.435V34.4229H236.744V41.6598H244.295V46.946H236.744V60.5389H230.765Z" fill="white"/>
<path d="M250.525 60.5389V29.1367H256.503V55.2528H266.195V60.5389H250.525Z" fill="white"/>
<path d="M269.719 39.2686C269.719 31.5282 273.809 28.7593 279.662 28.7593C285.514 28.7593 289.605 31.5282 289.605 39.2686V50.4702C289.605 58.2106 285.514 60.9795 279.662 60.9795C273.809 60.9795 269.719 58.2106 269.719 50.4702V39.2686ZM275.76 51.2254C275.76 54.6865 277.27 55.6934 279.662 55.6934C282.053 55.6934 283.563 54.7495 283.563 51.2254V38.3876C283.563 34.9264 282.053 33.9825 279.662 33.9825C277.27 33.9825 275.76 34.9264 275.76 38.3876V51.2254Z" fill="white"/>
<path d="M308.987 60.5389L303.764 47.7011H300.869V60.5389H294.891V29.1367H303.575C310.812 29.1367 314.274 32.5979 314.274 38.5133C314.274 42.415 312.889 45.2469 309.554 46.5055L315.469 60.5389H308.987ZM300.869 42.7926H303.953C306.596 42.7926 308.232 41.471 308.232 38.4504C308.232 35.4297 306.596 34.1082 303.953 34.1082H300.869V42.7926Z" fill="white"/>
<path d="M319.874 60.5389V29.1367H325.852V60.5389H319.874Z" fill="white"/>
<path d="M332.02 29.1367H340.389C347.249 29.1367 351.087 32.0944 351.339 40.0236V49.652C351.087 57.5812 347.249 60.5389 340.389 60.5389H332.02V29.1367ZM338.061 55.2528H340.138C343.473 55.2528 345.361 53.6795 345.361 48.9597V40.7159C345.361 36.3108 343.913 34.4229 340.138 34.4229H338.061V55.2528Z" fill="white"/>
<path d="M354.549 60.5389L362.352 29.1367H370.03L377.644 60.5389H371.918L370.407 53.9312H362.1L360.401 60.5389H354.549ZM363.107 48.6451H369.086L366.191 35.9332H366.128L363.107 48.6451Z" fill="white"/>
</svg>
