<svg width="254" height="65" viewBox="0 0 254 65" fill="none" xmlns="http://www.w3.org/2000/svg">
<path d="M69.296 17.6501C69.0836 17.8635 68.9584 18.1485 68.9451 18.4494V31.5594C68.9374 31.7107 68.9652 31.8617 69.0261 32.0005C69.087 32.1392 69.1794 32.2619 69.296 32.3586V32.4074C69.3938 32.5253 69.518 32.6186 69.6586 32.6796C69.7991 32.7405 69.9521 32.7675 70.105 32.7583H78.8775C79.0295 32.7605 79.1803 32.7304 79.3198 32.6699C79.4593 32.6094 79.5843 32.5199 79.6865 32.4074L82.4937 29.6002L86.4609 33.5673L82.8446 37.1835C82.4868 37.549 82.0566 37.8357 81.5817 38.0254C81.1067 38.215 80.5973 38.3034 80.0862 38.285H68.9938C67.9819 38.2834 67.0102 37.8884 66.2841 37.1835L63.8278 34.7175C63.4472 34.3477 63.1476 33.903 62.9479 33.4113C62.7483 32.9197 62.6529 32.392 62.6679 31.8615V18.0985C62.662 17.0278 63.0788 15.998 63.8278 15.2328L66.2841 12.7765C66.6419 12.411 67.0721 12.1243 67.5471 11.9347C68.0221 11.745 68.5315 11.6566 69.0426 11.6751H80.1934C81.2222 11.6639 82.2137 12.0598 82.9519 12.7765L86.5193 16.3927L82.5522 20.3598L79.745 17.5429C79.5281 17.3298 79.2398 17.2048 78.936 17.192H70.1635C70.0118 17.1922 69.8618 17.2234 69.7227 17.2837C69.5836 17.3441 69.4583 17.4323 69.3545 17.5429L69.296 17.6501ZM114.689 15.2328C115.434 16.0003 115.85 17.0286 115.849 18.0985V31.7446C115.844 32.8307 115.43 33.8751 114.689 34.6687L112.232 37.1348C111.873 37.5005 111.441 37.7873 110.964 37.9769C110.488 38.1666 109.977 38.2549 109.464 38.2362H97.5727C97.0682 38.2481 96.5666 38.1565 96.0989 37.9671C95.6312 37.7776 95.2072 37.4944 94.8532 37.1348L92.3969 34.6687C92.0163 34.299 91.7167 33.8542 91.517 33.3626C91.3173 32.871 91.222 32.3432 91.237 31.8128V18.0985C91.2353 17.0286 91.6515 16.0003 92.3969 15.2328L94.8532 12.7765C95.2033 12.4116 95.6265 12.1248 96.0952 11.935C96.5639 11.7452 97.0674 11.6566 97.5727 11.6751H109.464C110.496 11.6613 111.492 12.0574 112.232 12.7765L114.689 15.2328ZM109.464 18.4006C109.472 18.2493 109.444 18.0983 109.383 17.9595C109.322 17.8208 109.23 17.6981 109.113 17.6014L109.065 17.5429C108.866 17.3383 108.599 17.2135 108.314 17.192H98.7228C98.5725 17.1912 98.4236 17.222 98.2859 17.2824C98.1482 17.3429 98.0248 17.4316 97.9236 17.5429L97.8651 17.6014C97.651 17.8137 97.5256 18.0994 97.5142 18.4006V31.5106C97.5065 31.662 97.5343 31.813 97.5952 31.9518C97.6561 32.0905 97.7485 32.2131 97.8651 32.3099H97.9236C98.0236 32.4227 98.1468 32.5124 98.2847 32.573C98.4227 32.6336 98.5722 32.6635 98.7228 32.6608H108.314C108.457 32.6611 108.599 32.6297 108.729 32.5691C108.858 32.5084 108.973 32.4199 109.065 32.3099H109.113C109.33 32.0993 109.456 31.8126 109.464 31.5106V18.4006ZM142.507 12.7765C142.155 12.404 141.726 12.1125 141.249 11.9223C140.773 11.7321 140.261 11.6478 139.749 11.6751H134.125C133.096 11.6639 132.104 12.0598 131.366 12.7765L128.666 15.4862L127.77 11.6751H121.746L122.847 16.2952V38.285H129.222V22.319C129.213 22.1661 129.24 22.0131 129.301 21.8726C129.362 21.732 129.455 21.6078 129.573 21.51L133.94 17.1432C134.042 17.0307 134.167 16.9413 134.306 16.8808C134.446 16.8203 134.597 16.7901 134.749 16.7924H138.209C138.354 16.7862 138.499 16.8148 138.631 16.8759C138.764 16.9369 138.879 17.0285 138.969 17.1432L139.417 17.6014C139.526 17.705 139.612 17.829 139.672 17.9661C139.733 18.1032 139.765 18.2509 139.768 18.4006V38.2362H146.211V18.0985C146.217 17.0297 145.804 16.0013 145.061 15.2328L142.507 12.7765ZM161.807 0.97262H155.422V11.6946H150.705V17.27H155.422V32.2807C155.416 33.3514 155.833 34.3812 156.582 35.1464L158.639 37.203C158.997 37.5685 159.427 37.8552 159.902 38.0449C160.377 38.2345 160.886 38.3229 161.397 38.3045H170.794V32.6608H162.996C162.845 32.6635 162.696 32.6336 162.558 32.573C162.42 32.5124 162.297 32.4227 162.197 32.3099H162.138C161.924 32.0941 161.798 31.8051 161.787 31.5009V17.2505H170.833V11.6751H161.807V0.97262ZM199.012 15.2328C199.389 15.607 199.685 16.0541 199.883 16.5469C200.081 17.0397 200.176 17.5677 200.162 18.0985V26.7832H181.925V31.5594C181.917 31.7107 181.945 31.8617 182.006 32.0005C182.067 32.1392 182.159 32.2619 182.276 32.3586L182.325 32.4074C182.526 32.6142 182.797 32.7392 183.085 32.7583H192.618C192.763 32.76 192.906 32.7293 193.037 32.6686C193.169 32.6079 193.285 32.5187 193.378 32.4074L196.185 29.6002L200.152 33.5673L196.536 37.1835C196.178 37.549 195.748 37.8357 195.273 38.0254C194.798 38.215 194.289 38.3034 193.778 38.285H181.876C180.848 38.2962 179.856 37.9002 179.118 37.1835L176.652 34.7175C176.276 34.3444 175.981 33.8988 175.783 33.4078C175.585 32.9168 175.489 32.3907 175.502 31.8615V18.0985C175.496 17.0297 175.909 16.0013 176.652 15.2328L179.118 12.7765C179.476 12.411 179.906 12.1243 180.381 11.9347C180.856 11.745 181.365 11.6566 181.876 11.6751H193.778C194.806 11.6639 195.798 12.0598 196.536 12.7765L199.012 15.2328ZM193.787 18.4006C193.795 18.2493 193.767 18.0983 193.706 17.9595C193.646 17.8208 193.553 17.6981 193.437 17.6014L193.388 17.5429C193.186 17.3418 192.921 17.2177 192.637 17.192H183.095C182.951 17.1866 182.808 17.2156 182.677 17.2767C182.547 17.3377 182.432 17.429 182.344 17.5429L182.286 17.6014C182.169 17.6981 182.077 17.8208 182.016 17.9595C181.955 18.0983 181.927 18.2493 181.935 18.4006V21.51H193.875L193.787 18.4006ZM253.041 17.2505V11.6751H244.054V0.953125H237.679V11.6751H232.961V17.2505H237.689V32.2612C237.684 33.3299 238.096 34.3584 238.839 35.1269L240.896 37.1835C241.252 37.5589 241.686 37.8519 242.168 38.0421C242.649 38.2324 243.167 38.3152 243.683 38.285H253.07V32.6608H245.272C244.97 32.6534 244.683 32.5274 244.473 32.3099C244.355 32.2121 244.262 32.0879 244.201 31.9474C244.14 31.8068 244.113 31.6538 244.122 31.5009V17.2505H253.041ZM43.9435 2.0838C43.585 1.71584 43.1536 1.42691 42.6769 1.23555C42.2002 1.04418 41.6887 0.954625 41.1753 0.97262H6.37774C5.34756 0.964028 4.35585 1.36351 3.61928 2.0838L1.15323 4.5401C0.77219 4.91108 0.473005 5.3577 0.274918 5.85124C0.0768309 6.34477 -0.0157728 6.87431 0.00306041 7.40578V16.7436H6.37774V7.75668C6.37291 7.60429 6.40187 7.45273 6.46254 7.31286C6.52321 7.17298 6.61408 7.04827 6.72864 6.94766V6.89892C6.95122 6.69437 7.23622 6.57076 7.53766 6.54803H40.0251C40.1755 6.54719 40.3244 6.578 40.4621 6.63846C40.5998 6.69891 40.7232 6.78765 40.8244 6.89892L40.8829 6.94766C41.096 7.1646 41.221 7.45287 41.2338 7.75668V42.2033C41.2414 42.3547 41.2137 42.5057 41.1528 42.6444C41.0919 42.7832 40.9995 42.9058 40.8829 43.0026H40.8244C40.616 43.2237 40.3287 43.3533 40.0251 43.3633H7.53766C7.385 43.3636 7.23398 43.3317 7.09455 43.2695C6.95511 43.2074 6.83041 43.1164 6.72864 43.0026H6.6799C6.55955 42.9091 6.46442 42.787 6.40315 42.6474C6.34188 42.5079 6.31639 42.3552 6.329 42.2033V28.9471C6.31647 28.8022 6.34231 28.6566 6.4039 28.5248C6.4655 28.3931 6.56068 28.2799 6.6799 28.1966L6.72864 28.1381C6.95122 27.9336 7.23622 27.8099 7.53766 27.7872H21.7978L16.2712 33.2164V38.2362H17.548C18.0511 38.2479 18.5511 38.1562 19.0172 37.9667C19.4833 37.7773 19.9056 37.4941 20.2578 37.1348L22.6166 34.7662L30.5996 26.8417C30.9097 26.5236 31.1169 26.1194 31.1941 25.6818V25.5843C31.2345 25.3856 31.2509 25.1827 31.2429 24.98C31.2509 24.7773 31.2345 24.5745 31.1941 24.3757V24.2782C31.0744 23.8635 30.8867 23.4715 30.6386 23.1183L22.061 14.5895L20.2968 12.8252C19.9373 12.4648 19.5082 12.1813 19.0356 11.9919C18.5631 11.8026 18.057 11.7114 17.548 11.7238H16.2712V16.7436L18.5228 18.849L21.8856 22.1143H6.37774C5.86778 22.105 5.36109 22.1977 4.88741 22.3868C4.41372 22.5759 3.98258 22.8578 3.61928 23.2158L1.15323 25.6721C0.769958 26.0434 0.469392 26.4915 0.271192 26.987C0.0729923 27.4825 -0.0183763 28.0143 0.00306041 28.5475V42.5055C-0.00393356 43.5717 0.409278 44.5977 1.15323 45.3614L3.61928 47.8275C3.9745 48.1964 4.40422 48.4854 4.87985 48.6754C5.35548 48.8653 5.8661 48.9517 6.37774 48.9289H41.1753C42.2075 48.9427 43.203 48.5466 43.9435 47.8275L46.3998 45.3614C46.7764 44.9746 47.0728 44.5171 47.2718 44.0152C47.4709 43.5134 47.5687 42.9771 47.5597 42.4373V7.40578C47.5614 6.33587 47.1452 5.30759 46.3998 4.5401L43.9435 2.0838ZM223.75 12.8057L221.996 14.57L216.274 20.2916L210.543 14.5895L208.779 12.8252C208.424 12.4696 208.001 12.1888 207.536 11.9996C207.07 11.8104 206.571 11.7166 206.069 11.7238H204.763V16.7436L206.975 18.849L212.492 24.1905C212.644 24.3755 212.733 24.6044 212.746 24.8435C212.739 25.0986 212.65 25.3447 212.492 25.5453L204.812 33.1774V38.1972H206.118C206.621 38.2089 207.121 38.1172 207.587 37.9277C208.053 37.7383 208.475 37.4551 208.827 37.0958L211.196 34.7272L216.313 29.6099L221.431 34.7272L223.799 37.0958C224.152 37.4683 224.581 37.7598 225.057 37.95C225.533 38.1402 226.045 38.2245 226.558 38.1972H227.864V33.2164L220.134 25.6331C219.975 25.4331 219.886 25.1866 219.881 24.9313C219.875 24.6886 219.967 24.4537 220.134 24.2782L225.651 18.9075L227.864 16.7924V11.7725H226.558C226.039 11.7297 225.518 11.8018 225.031 11.9838C224.544 12.1657 224.104 12.4531 223.741 12.8252" fill="white"/>
<path d="M62.5217 51.0927H65.6798C66.6557 51.07 67.6173 51.3307 68.448 51.8432C68.8044 52.0958 69.0951 52.4301 69.296 52.8179C69.5141 53.2908 69.6176 53.8084 69.5982 54.3287C69.6179 54.846 69.5143 55.3605 69.296 55.8298C69.0977 56.2195 68.8065 56.5542 68.448 56.8045C68.0748 57.0798 67.6455 57.2695 67.1906 57.3601C66.6952 57.4793 66.1891 57.5478 65.6798 57.5648H63.8766V62.2045H62.5217V51.0927ZM65.787 56.6681C66.4357 56.7085 67.0768 56.5109 67.5903 56.1125C67.8048 55.8964 67.97 55.6364 68.0743 55.3503C68.1787 55.0642 68.2197 54.7589 68.1946 54.4555C68.2347 54.1466 68.1958 53.8326 68.0816 53.5428C67.9674 53.253 67.7816 52.9969 67.5415 52.7984C67.0018 52.4514 66.3701 52.2748 65.7286 52.2916H63.8766V56.7168L65.787 56.6681Z" fill="white"/>
<path d="M72.9607 62.3896C72.604 62.3904 72.2492 62.3379 71.908 62.2337C71.593 62.1482 71.3003 61.9952 71.0503 61.7853C70.801 61.5919 70.6117 61.3316 70.5044 61.0348C70.3803 60.6971 70.3112 60.3417 70.2997 59.9821C70.2869 59.5523 70.4096 59.1295 70.6506 58.7734C70.8792 58.4457 71.1925 58.1862 71.5571 58.0229C71.9751 57.8244 72.4129 57.6708 72.8633 57.5648C73.3577 57.4677 73.8604 57.4187 74.3643 57.4186H75.5243V56.8142C75.5618 56.3138 75.4201 55.8163 75.1246 55.4106C74.9462 55.2397 74.7323 55.11 74.4982 55.0308C74.264 54.9517 74.0154 54.9249 73.7698 54.9525C72.6586 54.9525 72.0055 55.4594 71.908 56.4146H70.6019C70.6358 55.9921 70.7552 55.5809 70.9528 55.2059C71.1504 54.8946 71.405 54.6234 71.7033 54.4067C71.9997 54.1995 72.3294 54.0445 72.6781 53.9486C73.0573 53.8526 73.4468 53.8035 73.838 53.8023C74.2101 53.7997 74.5809 53.8489 74.9394 53.9486C75.2899 54.0396 75.6204 54.1949 75.9142 54.4067C76.2009 54.6486 76.4249 54.9563 76.5672 55.3034C76.7385 55.7548 76.8244 56.234 76.8206 56.7168V62.0875H75.5145V61.1128C75.2382 61.4772 74.8768 61.7684 74.4618 61.9608C74.0357 62.3018 73.4947 62.4659 72.951 62.4189L72.9607 62.3896ZM73.1167 61.4149C73.4483 61.4218 73.7785 61.3689 74.0914 61.259C74.37 61.1878 74.6274 61.0508 74.842 60.8593C75.0492 60.696 75.2188 60.4899 75.3391 60.255C75.4705 59.9914 75.5405 59.7015 75.5438 59.407V58.4323H74.4423C74.0699 58.4357 73.6984 58.4683 73.3311 58.5298C73.0234 58.5791 72.7225 58.6642 72.4344 58.7832C72.1913 58.8905 71.9822 59.0624 71.8301 59.2803C71.6789 59.5038 71.6068 59.7714 71.6254 60.0406C71.6137 60.2184 71.6389 60.3968 71.6992 60.5645C71.7596 60.7322 71.8539 60.8857 71.9763 61.0153C72.1292 61.1513 72.3085 61.2544 72.5031 61.3181C72.6976 61.3818 72.9032 61.4049 73.1069 61.3857L73.1167 61.4149Z" fill="white"/>
<path d="M78.8872 54.1047H80.1933V55.557C80.2965 55.3109 80.4491 55.0887 80.6417 54.904C80.8031 54.7135 80.9901 54.5462 81.1973 54.4069C81.4256 54.2479 81.6795 54.1292 81.9478 54.056C82.2608 53.946 82.5909 53.8932 82.9226 53.9V55.1087C82.5504 55.106 82.1797 55.1552 81.8211 55.2549C81.5102 55.3312 81.2183 55.4705 80.9634 55.6642C80.7148 55.8785 80.5267 56.154 80.4175 56.4635C80.2808 56.8686 80.2117 57.2934 80.2128 57.7209V62.2046H78.9067L78.8872 54.1047Z" fill="white"/>
<path d="M86.8699 62.3409C86.5664 62.366 86.2611 62.325 85.975 62.2207C85.689 62.1163 85.4289 61.9512 85.2128 61.7366C84.8407 61.3042 84.6457 60.7471 84.667 60.1771V55.1572H83.5071V54.0558H84.667V52.1941H85.9634V54.0558H87.9128V55.1572H85.9634V60.0308C85.9634 60.8301 86.324 61.2298 86.9381 61.2298C87.1192 61.2554 87.3029 61.2554 87.4839 61.2298C87.6399 61.2298 87.7861 61.2298 87.9421 61.1323V62.2045C87.7957 62.2632 87.6412 62.2993 87.4839 62.3117C87.3377 62.3117 87.133 62.3117 86.8309 62.3117L86.8699 62.3409Z" fill="white"/>
<path d="M96.3639 62.3897C95.813 62.3978 95.266 62.295 94.7556 62.0876C94.2834 61.8884 93.8559 61.5968 93.4982 61.2298C93.1432 60.8552 92.8709 60.4103 92.6989 59.9237C92.4907 59.3965 92.388 58.8335 92.3968 58.2667V58.1692C92.3933 57.587 92.4957 57.009 92.6989 56.4634C92.8758 55.9679 93.1662 55.5206 93.5469 55.1573C93.9046 54.7904 94.3322 54.4987 94.8043 54.2996C95.3167 54.0999 95.8627 54.0006 96.4126 54.0071C96.9621 54.0052 97.5073 54.1044 98.0209 54.2996C98.4931 54.4987 98.9206 54.7904 99.2783 55.1573C99.6485 55.5291 99.9373 55.974 100.126 56.4634C100.339 57.0064 100.442 57.5862 100.428 58.1692V58.2667C100.432 58.852 100.329 59.4331 100.126 59.9822C99.9468 60.4736 99.6566 60.9172 99.2783 61.2786C98.9143 61.638 98.4883 61.9286 98.0209 62.1363C97.4836 62.2999 96.9255 62.3853 96.3639 62.3897ZM96.3639 61.2786C96.7405 61.2892 97.1153 61.2229 97.4653 61.0836C97.7876 60.9396 98.0789 60.7343 98.3231 60.4793C98.5484 60.179 98.7351 59.8515 98.8787 59.5046C98.9954 59.0951 99.0609 58.6728 99.0736 58.2472V58.1497C99.0881 57.7221 99.0219 57.2955 98.8787 56.8923C98.7547 56.5361 98.5664 56.2058 98.3231 55.9176C98.088 55.6729 97.797 55.4889 97.4751 55.3815C97.1284 55.23 96.7516 55.16 96.3736 55.1768C95.996 55.1646 95.6202 55.2344 95.2722 55.3815C94.9503 55.522 94.659 55.724 94.4144 55.9761C94.1928 56.2788 94.0064 56.6058 93.8588 56.9508C93.7435 57.3606 93.6781 57.7827 93.6639 58.2082V58.3057C93.6278 59.1031 93.8766 59.8874 94.3657 60.5183C94.6278 60.7907 94.9479 61.0006 95.3023 61.1322C95.6567 61.2638 96.0362 61.3138 96.4126 61.2786H96.3639Z" fill="white"/>
<path d="M102.241 55.2061H101.082V54.1046H102.241V52.7985C102.188 52.0972 102.401 51.4015 102.836 50.8491C103.07 50.6084 103.353 50.4211 103.666 50.3C103.979 50.1789 104.314 50.1268 104.649 50.1473C104.813 50.1179 104.982 50.1179 105.146 50.1473C105.253 50.1473 105.448 50.1473 105.604 50.2447V51.4826C105.48 51.4187 105.344 51.3822 105.205 51.3754C105.049 51.3754 104.844 51.3754 104.698 51.3754C104.525 51.3637 104.351 51.3949 104.193 51.4663C104.035 51.5377 103.897 51.6471 103.791 51.7848C103.607 52.0748 103.521 52.4168 103.548 52.7595V54.2119H105.556V55.3133H103.548V62.3508H102.241V55.2061Z" fill="white"/>
<path d="M112.837 51.0928H116.969L120.469 62.2046H117.096L116.501 60.1479H112.778L112.183 62.2046H109.259L112.837 51.0928ZM113.49 57.9646H115.995L114.786 53.705L113.49 57.9646Z" fill="white"/>
<path d="M124.767 62.4384C124.189 62.4387 123.614 62.3533 123.061 62.185C122.555 62.0191 122.089 61.7465 121.697 61.3857C121.286 61.0388 120.976 60.5876 120.8 60.0796C120.584 59.5003 120.481 58.8847 120.498 58.2666V58.1691C120.486 57.5449 120.613 56.9257 120.868 56.3561C121.116 55.8539 121.446 55.3962 121.843 55.0013C122.671 54.228 123.771 53.8114 124.904 53.8414C125.392 53.8375 125.879 53.8899 126.356 53.9973C126.805 54.1014 127.231 54.2863 127.613 54.5432C127.988 54.8241 128.298 55.1833 128.52 55.5959C128.765 56.0803 128.902 56.6126 128.919 57.1554H126.307C126.28 56.8169 126.139 56.4976 125.908 56.2489C125.656 56.0338 125.331 55.9253 125.001 55.9468C124.784 55.9411 124.568 55.9836 124.369 56.0712C124.17 56.1589 123.993 56.2895 123.851 56.4536C123.557 56.9187 123.418 57.4643 123.451 58.0132V58.1106C123.418 58.6749 123.558 59.2357 123.851 59.7189C123.99 59.9017 124.173 60.0472 124.382 60.1424C124.591 60.2377 124.82 60.2797 125.05 60.2648C125.228 60.2815 125.408 60.2587 125.576 60.1981C125.745 60.1374 125.898 60.0404 126.025 59.9139C126.291 59.6557 126.454 59.3091 126.483 58.9392H128.988C128.986 59.4042 128.887 59.8637 128.697 60.2883C128.507 60.713 128.231 61.0934 127.886 61.4052C127.475 61.7804 126.991 62.0674 126.465 62.2485C125.939 62.4296 125.381 62.5008 124.826 62.4579L124.767 62.4384Z" fill="white"/>
<path d="M133.667 62.4382C133.089 62.4369 132.514 62.3515 131.961 62.1848C131.457 62.0187 130.995 61.7461 130.606 61.3855C130.195 61.0386 129.885 60.5874 129.709 60.0793C129.493 59.5001 129.39 58.8845 129.407 58.2664V58.1689C129.391 57.5494 129.51 56.9338 129.758 56.3657C129.999 55.8593 130.329 55.4003 130.733 55.0108C131.561 54.2375 132.66 53.8209 133.793 53.8509C134.282 53.847 134.769 53.8994 135.246 54.0068C135.694 54.1109 136.121 54.2959 136.503 54.5527C136.878 54.8336 137.187 55.1928 137.41 55.6054C137.65 56.0918 137.786 56.6229 137.809 57.1649H135.197C135.165 56.8275 135.025 56.5095 134.797 56.2584C134.546 56.0433 134.221 55.9348 133.891 55.9563C133.673 55.9492 133.457 55.9911 133.258 56.0788C133.059 56.1666 132.882 56.2979 132.741 56.4631C132.443 56.9268 132.3 57.4727 132.331 58.0227V58.1202C132.301 58.6854 132.444 59.2463 132.741 59.7284C132.879 59.9125 133.061 60.059 133.27 60.1544C133.48 60.2497 133.71 60.291 133.94 60.2743C134.118 60.289 134.297 60.2653 134.465 60.2048C134.633 60.1443 134.786 60.0483 134.914 59.9234C135.178 59.6643 135.337 59.3175 135.363 58.9487H137.877C137.875 59.4137 137.776 59.8732 137.587 60.2979C137.397 60.7225 137.121 61.1029 136.776 61.4147C136.362 61.7893 135.877 62.0757 135.349 62.2567C134.821 62.4377 134.262 62.5094 133.706 62.4674L133.667 62.4382Z" fill="white"/>
<path d="M142.712 62.4383C142.114 62.4412 141.52 62.3558 140.948 62.1849C140.433 62.0113 139.956 61.7399 139.544 61.3856C139.139 61.0162 138.808 60.5729 138.569 60.0795C138.345 59.5213 138.226 58.9265 138.218 58.325V58.2178C138.202 57.614 138.322 57.0142 138.569 56.4633C138.817 55.9611 139.147 55.5033 139.544 55.1084C139.943 54.7225 140.422 54.4295 140.948 54.2506C141.498 54.0521 142.078 53.9498 142.663 53.9485C143.205 53.9574 143.743 54.0428 144.262 54.2019C144.752 54.3413 145.2 54.599 145.568 54.9524C145.994 55.3685 146.326 55.8706 146.543 56.4252C146.76 56.9798 146.856 57.5743 146.825 58.169V58.9196H141.104C141.114 59.3846 141.29 59.8306 141.601 60.177C141.761 60.3309 141.95 60.4508 142.158 60.5295C142.366 60.6082 142.587 60.6442 142.809 60.6351C143.16 60.6574 143.507 60.5498 143.784 60.3329C143.993 60.1472 144.134 59.8966 144.184 59.6214H146.796C146.753 60.0441 146.618 60.4523 146.401 60.8176C146.183 61.1829 145.889 61.4965 145.538 61.7365C144.687 62.2452 143.703 62.4895 142.712 62.4383ZM144.115 57.2625C144.139 56.8414 143.996 56.428 143.716 56.1124C143.576 55.9781 143.411 55.8735 143.23 55.8048C143.049 55.7361 142.856 55.7048 142.663 55.7127C142.271 55.7038 141.89 55.847 141.601 56.1124C141.293 56.4177 141.115 56.8295 141.104 57.2625H144.115Z" fill="white"/>
<path d="M147.829 54.1045H150.598V55.3814C150.805 54.9227 151.145 54.536 151.572 54.2702C152.084 53.955 152.678 53.7989 153.278 53.8218C153.638 53.7986 153.999 53.8537 154.335 53.9833C154.672 54.1128 154.976 54.3138 155.227 54.5724C155.756 55.2224 156.023 56.0459 155.978 56.8824V62.2044H153.21V57.4868C153.232 57.1131 153.129 56.7428 152.917 56.4341C152.797 56.3179 152.655 56.227 152.5 56.1667C152.344 56.1064 152.178 56.078 152.011 56.0832C151.652 56.0675 151.302 56.1935 151.036 56.4341C150.756 56.7497 150.613 57.1631 150.637 57.5842V62.1557H147.868L147.829 54.1045Z" fill="white"/>
<path d="M160.637 62.4382C159.872 62.4779 159.12 62.2272 158.531 61.7364C158.261 61.4588 158.053 61.1263 157.922 60.7614C157.79 60.3965 157.739 60.0077 157.771 59.6213V56.0148H156.796V54.0654H157.771V52.3596H160.539V54.0654H162.138V56.0148H160.539V59.3776C160.527 59.494 160.537 59.6117 160.571 59.7238C160.604 59.836 160.66 59.9403 160.734 60.0307C160.817 60.1013 160.913 60.1549 161.017 60.1883C161.121 60.2218 161.23 60.2345 161.339 60.2256C161.47 60.2532 161.606 60.2532 161.738 60.2256C161.845 60.2256 161.992 60.2256 162.089 60.1282V62.2043C161.894 62.2043 161.689 62.3115 161.436 62.3603C161.174 62.4234 160.906 62.4561 160.637 62.4577V62.4382Z" fill="white"/>
<path d="M165.91 62.4385C165.53 62.45 165.151 62.3802 164.799 62.2338C164.483 62.1102 164.195 61.9247 163.951 61.6879C163.682 61.4104 163.476 61.0779 163.347 60.7132C163.196 60.2779 163.127 59.8187 163.142 59.3584V54.0364H165.91V58.91C165.882 59.2616 165.99 59.6106 166.213 59.8847C166.323 59.9973 166.455 60.0865 166.601 60.1468C166.746 60.2071 166.903 60.2373 167.061 60.2356C167.239 60.2491 167.417 60.2248 167.585 60.1643C167.753 60.1038 167.907 60.0086 168.035 59.8847C168.166 59.7255 168.265 59.5419 168.325 59.3446C168.385 59.1472 168.406 58.9399 168.386 58.7345V54.0656H171.154V62.2045H168.386V60.9569C168.161 61.3887 167.825 61.7523 167.411 62.0096C166.969 62.3082 166.444 62.4584 165.91 62.4385Z" fill="white"/>
<path d="M172.733 54.1046H175.501V55.7129C175.694 55.1711 176.066 54.7106 176.554 54.4068C177.045 54.1324 177.6 53.9944 178.162 54.0072V56.6097C177.487 56.5566 176.81 56.6987 176.213 57.0191C175.983 57.1708 175.797 57.3805 175.674 57.6268C175.551 57.8732 175.495 58.1477 175.511 58.4227V62.3215H172.743L172.733 54.1046Z" fill="white"/>
<path d="M183.134 62.4383C182.536 62.4412 181.942 62.3558 181.369 62.1849C180.854 62.0113 180.378 61.7399 179.966 61.3856C179.561 61.0162 179.23 60.5729 178.991 60.0795C178.767 59.5213 178.648 58.9265 178.64 58.325V58.2178C178.623 57.614 178.743 57.0142 178.991 56.4633C179.239 55.9611 179.569 55.5033 179.966 55.1084C180.365 54.7225 180.844 54.4295 181.369 54.2506C181.92 54.0521 182.5 53.9498 183.085 53.9485C183.627 53.9574 184.165 54.0428 184.683 54.2019C185.174 54.3413 185.622 54.599 185.99 54.9524C186.416 55.3685 186.748 55.8706 186.965 56.4252C187.182 56.9798 187.278 57.5743 187.247 58.169V58.9196H181.525C181.536 59.3846 181.712 59.8306 182.023 60.177C182.183 60.3309 182.372 60.4508 182.58 60.5295C182.788 60.6082 183.009 60.6442 183.231 60.6351C183.582 60.6574 183.929 60.5498 184.206 60.3329C184.415 60.1472 184.556 59.8966 184.606 59.6214H187.218C187.174 60.0441 187.04 60.4523 186.822 60.8176C186.605 61.1829 186.311 61.4965 185.96 61.7365C185.108 62.2452 184.125 62.4895 183.134 62.4383ZM184.537 57.2625C184.561 56.8414 184.417 56.428 184.138 56.1124C183.998 55.9781 183.833 55.8735 183.652 55.8048C183.471 55.7361 183.278 55.7048 183.085 55.7127C182.692 55.7038 182.312 55.847 182.023 56.1124C181.715 56.4177 181.537 56.8295 181.525 57.2625H184.537Z" fill="white"/>
<path d="M195.386 62.4384C194.135 62.5369 192.889 62.1918 191.867 61.4637C191.476 61.1174 191.162 60.693 190.945 60.2178C190.729 59.7427 190.614 59.2274 190.609 58.7052H193.621C193.629 58.8916 193.665 59.0757 193.728 59.2511C193.778 59.4319 193.884 59.5923 194.031 59.7092C194.157 59.8641 194.332 59.9708 194.528 60.0113C194.793 60.0737 195.064 60.1064 195.337 60.1088C195.712 60.1327 196.084 60.0259 196.389 59.8066C196.506 59.7099 196.598 59.5872 196.659 59.4485C196.72 59.3097 196.748 59.1587 196.74 59.0074C196.731 58.8506 196.699 58.6961 196.643 58.5493C196.584 58.403 196.487 58.3543 196.341 58.2471C196.161 58.1668 195.975 58.1016 195.785 58.0521C195.532 58.0034 195.278 57.9449 194.927 57.8962C194.249 57.815 193.577 57.6814 192.919 57.4966C192.436 57.3672 191.988 57.1269 191.613 56.7948C191.299 56.5358 191.057 56.2001 190.912 55.82C190.765 55.3504 190.699 54.8593 190.717 54.3677C190.713 53.8802 190.816 53.3979 191.019 52.9544C191.214 52.5272 191.504 52.1504 191.867 51.8529C192.26 51.5205 192.723 51.2807 193.222 51.1511C193.811 50.9838 194.422 50.8985 195.035 50.8977C196.138 50.8293 197.232 51.1312 198.144 51.7554C198.524 52.0794 198.832 52.4791 199.048 52.9289C199.265 53.3787 199.385 53.8688 199.401 54.3677H196.477C196.466 54.1944 196.421 54.0249 196.344 53.8693C196.267 53.7136 196.16 53.5749 196.029 53.4612C195.735 53.2821 195.398 53.1873 195.054 53.1873C194.71 53.1873 194.373 53.2821 194.079 53.4612C193.98 53.5483 193.901 53.6565 193.849 53.7779C193.797 53.8993 193.772 54.0309 193.777 54.163C193.756 54.3038 193.791 54.4472 193.875 54.5626C193.949 54.6865 194.053 54.7902 194.177 54.8648C194.336 54.9669 194.506 55.0518 194.684 55.1182C194.879 55.1182 195.181 55.2157 195.532 55.2644C196.159 55.3444 196.78 55.4615 197.393 55.6153C197.869 55.7571 198.325 55.9603 198.748 56.2197C199.09 56.4745 199.365 56.8091 199.548 57.1944C199.748 57.6716 199.835 58.1888 199.801 58.7052C199.804 59.2053 199.701 59.7003 199.499 60.1575C199.304 60.6011 199.011 60.9945 198.641 61.3077C198.231 61.6671 197.754 61.9421 197.237 62.1167C196.673 62.3757 196.055 62.496 195.434 62.4676L195.386 62.4384Z" fill="white"/>
<path d="M204.977 62.4383C204.38 62.4412 203.785 62.3558 203.213 62.1849C202.694 62.0194 202.216 61.7471 201.809 61.3856C201.411 61.0253 201.101 60.5785 200.903 60.0795C200.656 59.5283 200.536 58.9287 200.552 58.325V58.2178C200.535 57.614 200.655 57.0142 200.903 56.4633C201.151 55.9611 201.48 55.5033 201.877 55.1084C202.28 54.7223 202.762 54.4294 203.291 54.2506C203.837 54.0511 204.415 53.9488 204.997 53.9485C205.542 53.9582 206.083 54.0435 206.605 54.2019C207.093 54.3459 207.541 54.603 207.911 54.9524C208.286 55.3302 208.59 55.7727 208.808 56.2586C209.074 56.8724 209.194 57.5398 209.159 58.208V58.9586H203.437C203.45 59.4248 203.63 59.871 203.944 60.2159C204.102 60.3705 204.289 60.491 204.496 60.5698C204.702 60.6486 204.922 60.6841 205.143 60.6741C205.494 60.6973 205.841 60.5897 206.117 60.3719C206.327 60.1862 206.467 59.9356 206.517 59.6604H209.129C209.087 60.0823 208.954 60.49 208.738 60.8552C208.523 61.2205 208.231 61.5345 207.882 61.7755C206.994 62.2836 205.979 62.5271 204.958 62.4773L204.977 62.4383ZM206.381 57.2625C206.404 56.8414 206.261 56.428 205.981 56.1124C205.842 55.9781 205.677 55.8735 205.496 55.8048C205.315 55.7361 205.122 55.7048 204.928 55.7127C204.536 55.7038 204.155 55.847 203.866 56.1124C203.555 56.4153 203.377 56.8286 203.369 57.2625H206.381Z" fill="white"/>
<path d="M213.964 62.4386C213.386 62.4388 212.811 62.3534 212.258 62.1851C211.753 62.0214 211.291 61.7485 210.903 61.3859C210.486 61.0426 210.172 60.5905 209.997 60.0797C209.78 59.5005 209.678 58.8849 209.694 58.2667V58.1693C209.678 57.5498 209.798 56.9342 210.045 56.366C210.293 55.8638 210.623 55.4061 211.02 55.0112C211.418 54.6477 211.876 54.3573 212.375 54.1534C212.919 53.9458 213.498 53.8433 214.081 53.8513C214.572 53.8475 215.063 53.8998 215.543 54.0072C215.988 54.1134 216.41 54.2982 216.79 54.5531C217.165 54.834 217.475 55.1932 217.697 55.6058C217.942 56.0902 218.079 56.6225 218.097 57.1653H215.484C215.457 56.8268 215.316 56.5075 215.085 56.2588C214.961 56.1509 214.817 56.0686 214.662 56.0167C214.506 55.9649 214.342 55.9444 214.178 55.9567C213.961 55.951 213.745 55.9935 213.546 56.0811C213.347 56.1688 213.17 56.2994 213.028 56.4635C212.734 56.9286 212.595 57.4742 212.628 58.0231V58.1205C212.595 58.6848 212.735 59.2456 213.028 59.7288C213.168 59.913 213.352 60.0594 213.563 60.1547C213.774 60.25 214.006 60.2912 214.237 60.2747C214.415 60.2914 214.595 60.2686 214.763 60.208C214.932 60.1473 215.085 60.0503 215.211 59.9238C215.478 59.6656 215.641 59.319 215.669 58.9491H218.174C218.172 59.4141 218.074 59.8736 217.884 60.2982C217.694 60.7229 217.418 61.1033 217.073 61.4151C216.662 61.7903 216.178 62.0773 215.652 62.2584C215.125 62.4395 214.567 62.5107 214.012 62.4678L213.964 62.4386Z" fill="white"/>
<path d="M221.694 62.4385C220.972 62.4484 220.273 62.1796 219.744 61.6879C219.478 61.4079 219.272 61.0761 219.14 60.7132C218.993 60.2772 218.927 59.8181 218.945 59.3584V54.0364H221.704V58.91C221.68 59.2611 221.788 59.6083 222.006 59.8847C222.119 59.9967 222.252 60.0854 222.4 60.1456C222.547 60.2058 222.704 60.2364 222.863 60.2356C223.041 60.2473 223.22 60.2221 223.387 60.1617C223.555 60.1014 223.709 60.0071 223.838 59.8847C224.099 59.5611 224.225 59.1489 224.189 58.7345V54.0656H226.947V62.2045H224.189V60.9569C223.96 61.386 223.625 61.7487 223.214 62.0096C222.768 62.3141 222.234 62.4647 221.694 62.4385Z" fill="white"/>
<path d="M228.526 54.1045H231.285V55.7128C231.478 55.1709 231.849 54.7105 232.338 54.4067C232.829 54.1331 233.384 53.9952 233.946 54.0071V56.6096C233.27 56.5587 232.594 56.7007 231.996 57.0189C231.766 57.1707 231.581 57.3803 231.457 57.6267C231.334 57.8731 231.278 58.1476 231.295 58.4225V62.3214H228.536L228.526 54.1045Z" fill="white"/>
<path d="M236.46 53.3541C236.052 53.3591 235.656 53.2134 235.349 52.9447C235.208 52.8249 235.094 52.6755 235.017 52.5071C234.939 52.3387 234.9 52.1553 234.901 51.97C234.902 51.7735 234.942 51.5793 235.019 51.3986C235.096 51.2179 235.208 51.0543 235.349 50.9173C235.496 50.776 235.67 50.6674 235.862 50.5985C236.053 50.5297 236.257 50.5021 236.46 50.5176C236.864 50.5104 237.256 50.6528 237.562 50.9173C237.712 51.0467 237.831 51.209 237.908 51.3915C237.986 51.574 238.021 51.7719 238.01 51.97C238.013 52.1557 237.975 52.3397 237.897 52.5084C237.819 52.6772 237.705 52.8263 237.562 52.9447C237.253 53.2044 236.864 53.3491 236.46 53.3541ZM235.057 54.1046H237.835V62.2045H235.076L235.057 54.1046Z" fill="white"/>
<path d="M242.631 62.4382C241.866 62.474 241.116 62.2239 240.525 61.7364C240.258 61.4569 240.053 61.1238 239.923 60.7593C239.794 60.3947 239.743 60.0069 239.775 59.6213V56.0148H238.8V54.0654H239.775V52.3596H242.533V54.0654H244.142V56.0148H242.533V59.3776C242.52 59.4947 242.531 59.6134 242.566 59.726C242.601 59.8385 242.66 59.9423 242.738 60.0307C242.82 60.1022 242.916 60.1564 243.02 60.1899C243.124 60.2234 243.234 60.2356 243.342 60.2256C243.474 60.2519 243.61 60.2519 243.742 60.2256C243.839 60.2256 243.995 60.2256 244.093 60.1282V62.2043C243.878 62.2674 243.66 62.3194 243.44 62.3603C243.175 62.4259 242.903 62.4586 242.631 62.4577V62.4382Z" fill="white"/>
<path d="M247.806 61.4344L244.541 54.1045H247.582L249.239 58.4225L250.798 54.1045H253.43L249.063 64.9531H246.402L247.806 61.4344Z" fill="white"/>
</svg>
