<svg width="137" height="65" viewBox="0 0 137 65" fill="none" xmlns="http://www.w3.org/2000/svg">
<path d="M11.8265 49.3032V48.3972C11.8265 45.1839 9.86347 43.8973 7.18167 43.8973C5.32357 43.8837 3.51427 44.4918 2.04155 45.6248L1.17177 43.8128C2.64556 42.4115 5.14011 41.7712 7.36891 41.7712C13.4875 41.7712 14.2848 45.9268 14.2848 48.5361V57.8681H11.9413V55.1863C11.0715 56.8111 8.92121 58.2063 6.23337 58.2063C3.02004 58.2063 0 56.503 0 53.2534C0 50.5716 2.04155 48.3791 6.16089 48.3791C8.0875 48.3722 10.002 48.6844 11.8265 49.3032ZM2.37979 53.2353C2.37979 54.9326 3.9321 56.1406 6.57162 56.1406C7.63776 56.1218 8.6827 55.8396 9.61328 55.3189C10.5439 54.7983 11.3312 54.0555 11.905 53.1568V50.9643C10.132 50.4846 8.30553 50.231 6.46894 50.2092C3.47305 50.173 2.37979 51.7193 2.37979 53.2353Z" fill="white"/>
<path d="M30.0435 48.9226C30.0435 45.1113 28.0745 43.8973 26.0752 43.8973C24.3356 43.8973 21.2431 45.1476 21.2008 50.2091V57.8801H18.821V42.1215H21.2008V45.4496C21.5774 44.3546 22.2936 43.4085 23.2454 42.749C24.1971 42.0895 25.3345 41.7512 26.492 41.7832C27.6697 41.7416 28.8297 42.0788 29.8017 42.7452C30.7736 43.4116 31.5062 44.3722 31.8918 45.4858C32.3078 44.3678 33.0645 43.4089 34.0552 42.7445C35.0458 42.0801 36.2203 41.7438 37.4124 41.7832C41.0003 41.7832 43.6458 43.71 43.6458 48.9226V57.8801H41.266V48.9226C41.266 45.1113 39.303 43.8973 37.2977 43.8973C35.6367 43.8973 32.5743 44.9603 32.4233 49.9857V57.8801H30.0435V48.9226Z" fill="white"/>
<path d="M62.9198 55.4641C62.0522 56.3674 61.0056 57.0794 59.8469 57.5548C58.6882 58.0301 57.4431 58.2582 56.1911 58.2244C50.755 58.2244 47.3484 54.5581 47.3484 50.0582C47.3449 48.9552 47.5625 47.8627 47.9885 46.8452C48.4145 45.8277 49.0401 44.906 49.8285 44.1345C50.6169 43.363 51.5519 42.7575 52.5784 42.3536C53.6049 41.9498 54.7019 41.7559 55.8046 41.7833C59.8454 41.7833 63.6567 44.3141 63.699 49.9858H49.6739V50.2455C49.6739 53.6521 52.2047 56.1406 56.173 56.1406C58.1639 56.1664 60.0877 55.422 61.5426 54.0628L62.9198 55.4641ZM49.9578 48.1315H61.2588C60.54 44.8456 58.0454 43.8611 55.8891 43.8611C54.5651 43.8063 53.2611 44.1973 52.1857 44.9715C51.1103 45.7458 50.3258 46.8585 49.9578 48.1315Z" fill="white"/>
<path d="M83.1722 57.8801H80.7924V54.7453C80.1677 55.8451 79.2521 56.7516 78.1462 57.3653C77.0402 57.979 75.7865 58.2762 74.5228 58.2244C69.7571 58.2244 66.6707 54.5158 66.6707 49.9857C66.6707 45.4556 69.733 41.747 74.5228 41.747C75.7853 41.6986 77.0369 41.9967 78.1421 42.6089C79.2473 43.2211 80.1638 44.1241 80.7924 45.2201V34.9519H83.1722V57.8801ZM74.7161 56.1043C76.3063 56.0543 77.8147 55.3875 78.922 54.2449C80.0292 53.1023 80.6484 51.5737 80.6484 49.9827C80.6484 48.3916 80.0292 46.863 78.922 45.7204C77.8147 44.5778 76.3063 43.911 74.7161 43.861C71.1282 43.861 69.0082 46.5851 69.0082 49.9857C69.0082 53.3863 71.1947 56.1043 74.7463 56.1043H74.7161Z" fill="white"/>
<path d="M89.6711 35.0545C89.9034 35.052 90.1337 35.0964 90.3483 35.1852C90.5629 35.274 90.7573 35.4053 90.9198 35.5712C91.0824 35.7372 91.2096 35.9342 91.294 36.1506C91.3783 36.367 91.418 36.5982 91.4107 36.8303C91.4174 37.0606 91.3769 37.2898 91.2919 37.5039C91.2068 37.7179 91.0789 37.9124 90.916 38.0752C90.7532 38.2381 90.5587 38.366 90.3446 38.4511C90.1306 38.5361 89.9014 38.5766 89.6711 38.5699C89.443 38.576 89.216 38.5349 89.0045 38.4491C88.793 38.3633 88.6015 38.2346 88.4421 38.0713C88.2827 37.9079 88.1588 37.7133 88.0782 37.4998C87.9977 37.2862 87.9621 37.0583 87.9739 36.8303C87.9658 36.6016 88.0036 36.3735 88.0851 36.1595C88.1665 35.9456 88.2899 35.7501 88.4481 35.5846C88.6063 35.4191 88.796 35.287 89.006 35.1959C89.2161 35.1049 89.4422 35.0568 89.6711 35.0545ZM90.8792 57.88H88.4933V42.1215H90.8792V57.88Z" fill="white"/>
<path d="M103.654 45.7154C103.502 45.1667 103.17 44.6852 102.711 44.3488C102.251 44.0123 101.692 43.8405 101.123 43.8611C99.2749 43.8611 98.2541 45.1114 98.2541 46.2771C98.2541 47.5576 99.3474 48.2039 100.441 48.5422L102.784 49.2972C105.581 50.2032 106.565 51.8642 106.565 53.6038C106.565 56.4788 103.956 58.1761 101.051 58.1761C98.3628 58.1761 95.9468 56.8533 95.228 54.4011L97.3058 53.8695C97.8011 55.1923 99.2749 56.0983 101.051 56.0983C102.826 56.0983 104.222 55.1198 104.222 53.6038C104.222 52.3595 103.352 51.7555 101.993 51.3025L99.7641 50.5837C97.5353 49.8649 95.9468 48.5784 95.9468 46.3557C95.9468 43.8611 97.8736 41.7471 101.051 41.7471C103.086 41.7471 105.242 42.7678 105.847 45.1476L103.654 45.7154Z" fill="white"/>
<path d="M121.382 42.1216H124.136L114.423 64.9531H112.007L115.027 57.6627L108.226 42.1216H110.95L116.278 54.9749L121.382 42.1216Z" fill="white"/>
<path d="M133.885 45.7152C133.733 45.1665 133.401 44.6851 132.942 44.3486C132.482 44.0121 131.923 43.8403 131.354 43.8609C129.506 43.8609 128.485 45.1112 128.485 46.277C128.485 47.5575 129.578 48.2037 130.678 48.542L133.021 49.297C135.812 50.203 136.796 51.864 136.796 53.6036C136.796 56.4787 134.187 58.1759 131.282 58.1759C128.6 58.1759 126.178 56.8532 125.459 54.4009L127.537 53.8694C128.032 55.1921 129.506 56.0981 131.282 56.0981C133.057 56.0981 134.453 55.1196 134.453 53.6036C134.453 52.3593 133.583 51.7553 132.224 51.3023L130.007 50.5896C127.778 49.8708 126.19 48.5843 126.19 46.3615C126.19 43.867 128.117 41.7529 131.294 41.7529C133.335 41.7529 135.486 42.7737 136.09 45.1535L133.885 45.7152Z" fill="white"/>
<path d="M76.4856 3.34418C73.7273 1.55069 70.4499 0.727953 67.1716 1.0061C63.8933 1.28424 60.8012 2.64738 58.3846 4.87993C55.9679 7.11249 54.3645 10.087 53.8279 13.333C53.2914 16.5791 53.8523 19.9114 55.4221 22.8028C56.9918 25.6943 59.4807 27.9799 62.4952 29.2982C65.5096 30.6165 68.8775 30.8921 72.0662 30.0816C75.2549 29.2711 78.0823 27.4206 80.1014 24.8229C82.1204 22.2252 83.2158 19.0285 83.2143 15.7384C83.2061 13.277 82.587 10.8561 81.4127 8.69293C80.2383 6.52973 78.5453 4.69185 76.4856 3.34418ZM71.7623 20.6188V22.2859H69.3039V24.7382H67.4557V22.2859H64.9974V20.4739H67.4557V18.0156H69.3039V20.4678H71.7623V20.6188ZM78.2976 20.6188L68.3617 10.6829L58.4197 20.6188H55.8164L67.0389 9.38427C67.2072 9.21534 67.4073 9.08131 67.6275 8.98985C67.8478 8.89839 68.0839 8.85131 68.3224 8.85131C68.5609 8.85131 68.7971 8.89839 69.0173 8.98985C69.2376 9.08131 69.4376 9.21534 69.6059 9.38427L73.538 13.3164V10.7191H75.3501V15.1405L80.8284 20.6188H78.2976Z" fill="white"/>
</svg>
