<svg width="247" height="64" viewBox="0 0 247 64" fill="none" xmlns="http://www.w3.org/2000/svg">
<path d="M185.454 23.0534C184.305 21.0015 181.351 18.4058 176.6 18.4058C169.224 18.4058 163.263 24.0589 163.263 32.3384C163.263 39.7562 168.198 46.3121 176.6 46.3121C180.284 46.3121 183.782 44.7834 185.454 41.7158V45.5016H191.723V19.2163H185.454V23.0534ZM185.454 32.5744C185.383 33.862 185.033 35.1188 184.428 36.2576C183.805 37.5567 182.818 38.6468 181.587 39.3954C180.355 40.144 178.933 40.5188 177.493 40.4744C176.44 40.4882 175.394 40.2909 174.418 39.8941C173.442 39.4973 172.556 38.9091 171.811 38.1642C171.066 37.4193 170.478 36.5327 170.081 35.5568C169.684 34.5809 169.487 33.5355 169.501 32.4821C169.459 31.4147 169.634 30.35 170.016 29.3522C170.397 28.3545 170.977 27.4445 171.72 26.6773C172.464 25.9101 173.355 25.3016 174.34 24.8885C175.325 24.4755 176.384 24.2666 177.452 24.2743C178.999 24.2225 180.525 24.6382 181.832 25.4674C183.139 26.2965 184.165 27.5004 184.777 28.922C185.299 30.0665 185.545 31.3175 185.495 32.5744H185.454Z" fill="white"/>
<path d="M207.903 24.2437C209.429 24.204 210.931 24.6385 212.2 25.4873C213.47 26.3362 214.445 27.5577 214.992 28.9837H221.404C220.559 25.7183 218.552 22.8732 215.76 20.9813C212.968 19.0895 209.581 18.2807 206.235 18.7067C202.889 19.1327 199.813 20.7641 197.584 23.2952C195.355 25.8264 194.125 29.0836 194.125 32.4566C194.125 35.8295 195.355 39.0868 197.584 41.6179C199.813 44.1491 202.889 45.7805 206.235 46.2065C209.581 46.6324 212.968 45.8237 215.76 43.9319C218.552 42.04 220.559 39.1949 221.404 35.9295H214.992C214.4 37.3052 213.407 38.4701 212.142 39.2719C210.877 40.0737 209.399 40.475 207.903 40.4232C203.46 40.4232 200.156 37.0683 200.156 32.3386C200.118 30.1933 200.883 28.111 202.301 26.5008C203.026 25.7559 203.899 25.1704 204.864 24.7817C205.828 24.3931 206.863 24.2098 207.903 24.2437Z" fill="white"/>
<path d="M130.965 19.2163L123.896 37.3247L117.33 19.2163H110.261L118.91 40.9669L120.716 45.5017C118.777 50.847 117.238 50.4981 114.016 50.0877V55.3407C115.532 55.6746 117.081 55.8397 118.633 55.8332C123.219 55.8332 125.004 51.8216 126.502 48.0461C127.713 44.9682 137.583 19.2163 137.583 19.2163H130.965Z" fill="white"/>
<path d="M101.222 24.685C94.2458 22.633 93.3019 21.1557 93.3019 19.2268C93.3019 17.298 95.1692 15.123 99.3654 15.123C103.562 15.123 109.112 17.4109 109.112 17.4109V11.1524C105.789 10.0025 102.297 9.41979 98.7806 9.42881C90.9627 9.42881 86.5408 13.2249 86.5408 19.2884C86.5408 25.8443 90.0393 28.5221 98.4523 30.6561C103.962 32.072 104.413 34.3394 104.413 35.786C104.413 37.2326 103.49 40.331 98.3599 40.331C94.5446 40.1622 90.7879 39.3289 87.2589 37.8687V44.0245C90.9794 45.3559 94.912 45.9957 98.8627 45.9123C107.358 45.9123 111.349 41.6237 111.349 35.4064C111.349 29.189 108.199 26.7061 101.222 24.685Z" fill="white"/>
<path d="M149.032 18.0466C142.425 18.0466 136.608 23.4022 136.608 30.0197V45.5016H142.846V29.8453C142.846 26.6853 145.862 24.1204 149.002 24.1204C152.141 24.1204 155.157 26.6853 155.157 29.8453V45.5016H161.395V30.0197C161.457 23.4022 155.65 18.0466 149.032 18.0466Z" fill="white"/>
<path d="M223.354 8.16675H229.622V30.5432L238.302 19.2267H246.182L236.148 31.6102L246.233 45.5018H238.784L232.198 35.9603L229.622 39.2331V45.5018H223.354V8.16675Z" fill="white"/>
<path d="M38.2481 4.17578L31.21 16.3643H45.2863L38.2481 4.17578Z" fill="white"/>
<path d="M18.5598 10.9061L0 0L3.07791 9.74671L15.3895 16.9285L15.5024 16.9901C19.8628 19.1241 23.228 23.033 25.5467 28.6451L5.25297 16.7233L8.33088 26.4803L35.6012 42.5572C34.6778 32.2565 31.1279 17.144 18.5598 10.9061Z" fill="white"/>
<path d="M10.3521 32.9543L13.4197 42.7113L31.487 53.3609L26.983 56.0182L26.9728 64.0002L38.2482 57.3519L49.5338 64.0002L49.5236 56.0182L45.0093 53.3609L63.0766 42.7113L66.1443 32.9543L38.2482 49.3801L10.3521 32.9543Z" fill="white"/>
<path d="M61.0758 16.9901L61.1887 16.9285L73.4388 9.74671L76.5167 0.0102539L57.9466 10.9163C45.3888 17.1542 41.8286 32.2667 40.9258 42.5675L68.1858 26.4905L71.2637 16.7336L51.0521 28.6553C53.3503 23.0433 56.7155 19.1241 61.0758 16.9901Z" fill="white"/>
</svg>
