<svg width="262" height="64" viewBox="0 0 262 64" fill="none" xmlns="http://www.w3.org/2000/svg">
<g clip-path="url(#clip0_14404_575)">
<path d="M200.813 43.7029L204.337 48.1929L195.344 53.4111L198.929 61.4202L207.314 63.9688L211.509 54.2605L216.491 56.991L232.656 58.9932L260.973 55.2314L238.549 40.9116L222.446 38.9701L224.999 31.0823L217.645 34.9047L213.088 19.3717L195.283 -0.348389L196.195 28.1697L200.813 43.7029Z" fill="white"/>
<path d="M136.034 52.9254C136.07 44.5363 128.887 42.3833 122.896 40.5878C118.618 39.3057 114.948 38.2059 114.948 35.1474C114.948 32.2957 117.439 31.2036 120.781 31.2036C124.306 31.2036 128.681 32.5384 132.206 34.7226L135.366 28.3515C131.78 25.8034 126.494 24.3469 121.45 24.3469C113.854 24.3469 106.805 27.8057 106.805 35.8148C106.77 43.9836 113.557 46.0117 119.395 47.7558C123.791 49.0694 127.648 50.2218 127.648 53.7145C127.648 56.6877 124.792 57.9618 121.146 57.9618C116.831 57.9618 111.301 56.0811 107.838 53.047L104.799 59.1756C108.749 62.7553 114.948 64.6972 120.781 64.6972H120.842C128.803 64.6972 136.034 61.0561 136.034 52.9254Z" fill="white"/>
<path d="M57.7654 64.4542L42.3911 24.7109H51.3847L62.4444 55.9597L65.257 47.9247L73.3221 24.7109H81.9512L66.6982 64.4542H57.7654Z" fill="white"/>
<path d="M96.8392 64.4542H88.3314L88.3311 64.3934L88.3314 24.7109H96.8392V64.4542Z" fill="white"/>
<path fill-rule="evenodd" clip-rule="evenodd" d="M162.408 24.4072C174.683 24.4072 183.13 32.5379 183.13 44.552C183.13 56.5053 174.744 64.6967 162.408 64.6967C150.072 64.6967 141.625 56.566 141.625 44.552C141.625 32.5379 150.133 24.4072 162.408 24.4072ZM150.315 44.6127C150.315 52.3188 155.298 57.5365 162.469 57.5365C169.578 57.5365 174.562 52.258 174.562 44.6127C174.562 36.9671 169.639 31.7494 162.469 31.7494C155.298 31.7494 150.315 37.0279 150.315 44.6127Z" fill="white"/>
<path d="M10.4875 36.7859L9.21139 32.1139L14.0728 33.3881H21.7903C29.2646 33.3881 31.3918 36.1185 31.3918 43.0964V64.5151H40.0205V39.8196C40.0205 30.354 34.4909 24.8328 25.1933 24.8328H1.8584V64.5151H10.4875V36.7859Z" fill="white"/>
</g>
<defs>
<clipPath id="clip0_14404_575">
<rect width="261.517" height="64" fill="white"/>
</clipPath>
</defs>
</svg>
