<svg width="98" height="64" viewBox="0 0 98 64" fill="none" xmlns="http://www.w3.org/2000/svg">
<path fill-rule="evenodd" clip-rule="evenodd" d="M61.2892 0L39.8232 33.9197H16.5337L21.8136 25.5359H36.3672L41.6408 17.1455H9.25689L3.98331 25.5359H11.8041L1.27612 42.2909H44.732L61.2892 15.8591L67.2919 25.5231H62.0186L56.7386 33.9197H72.5652L77.8452 42.3037H87.8478L61.2892 0Z" fill="white"/>
<path fill-rule="evenodd" clip-rule="evenodd" d="M54.1945 0.364258H19.84L14.5664 8.74822H48.9471L54.1945 0.364258Z" fill="white"/>
<path fill-rule="evenodd" clip-rule="evenodd" d="M10.532 49.4014V51.7694H12.9V50.675C12.9 47.763 11.8056 47.0334 8.89366 47.0334H4.16421C1.25222 47.0334 0.324219 47.9422 0.324219 51.0398V52.4798C0.324219 55.5774 1.23302 56.3198 4.16421 56.3198H10.5641V61.2414H2.89061V58.6814H0.330622V59.7758C0.330622 62.6878 1.23942 63.6158 4.1706 63.6158H9.29046C12.2024 63.6158 13.1304 62.7006 13.1304 59.7758V57.7662C13.1304 54.8542 12.2216 53.9262 9.29046 53.9262H2.89061V49.3694L10.532 49.4014ZM70.0197 49.4014H75.6583V47.0334H61.8344V49.4014H67.293V63.6222H70.0197V49.4014ZM87.485 49.4014V51.7694H89.8529V50.675C89.8529 47.763 88.7583 47.0334 86.013 47.0334H81.277C78.1797 47.0334 77.437 47.9422 77.437 51.0398V52.4798C77.437 55.5774 78.161 56.3198 81.277 56.3198H87.6769V61.2414H79.2996V58.6814H76.7397V59.7758C76.7397 62.6878 77.649 63.6158 80.5796 63.6158H86.2183C89.3089 63.6158 90.0583 62.7006 90.0583 59.7758V57.7662C90.0583 54.8542 89.3289 53.9262 86.2183 53.9262H79.8183V49.3694L87.485 49.4014Z" fill="white"/>
<path d="M70.3997 63.9999H66.9184V49.7792H61.4398V46.6496H76.025V49.7792H70.3997V63.9999ZM67.6731 63.2383H69.6451V49.024H75.2824V47.4112H62.2144V49.024H67.6731V63.2383ZM86.233 63.9999H80.5757C78.957 63.9999 77.945 63.7119 77.305 63.0655C76.665 62.4191 76.377 61.4143 76.377 59.7951V58.3167H79.6797V60.8767H87.289V56.7167H81.2797C79.5197 56.7167 78.553 56.4671 77.9384 55.8527C77.325 55.2383 77.0744 54.2719 77.0744 52.5055V51.0464C77.0744 49.2672 77.325 48.2752 77.9264 47.6224C78.5277 46.9696 79.5517 46.656 81.2797 46.656H86.009C87.5903 46.656 88.569 46.9056 89.209 47.4816C89.849 48.0576 90.2263 49.0944 90.2263 50.6816V52.1599H87.1037V49.7856H80.2237V53.5871H86.2143C87.929 53.5871 88.9276 53.8687 89.5543 54.5215C90.1823 55.1743 90.413 56.1023 90.413 57.7919V59.8015C90.413 61.4847 90.1623 62.4319 89.5543 63.0719C88.9463 63.7119 87.929 63.9999 86.2143 63.9999H86.233ZM77.1517 59.0783V59.7951C77.1517 62.5023 77.8944 63.2383 80.5943 63.2383H86.233C89.0303 63.2383 89.677 62.5983 89.677 59.7951V57.7855C89.677 54.9823 89.037 54.3359 86.233 54.3359H79.469V49.024H87.4876V49.4016H87.865V51.3919H89.4716V50.6752C89.4716 49.3248 89.241 48.512 88.717 48.0448C88.1917 47.5776 87.3983 47.4048 86.0343 47.4048H81.2797C79.789 47.4048 78.9504 47.6224 78.4824 48.128C78.0157 48.6336 77.8424 49.4912 77.8424 51.0336V52.4799C77.8424 54.0223 78.029 54.8351 78.4824 55.2895C78.937 55.7439 79.7623 55.9295 81.2863 55.9295H88.0317V61.6127H78.925V59.0527L77.1517 59.0783ZM9.31196 63.9999H4.19198C2.57279 63.9999 1.56799 63.7119 0.921597 63.0655C0.275199 62.4191 0 61.4399 0 59.7951V58.3167H3.30879V60.8767H10.1888V56.7167H4.19839C2.51519 56.7167 1.568 56.4671 0.934399 55.8591C0.300801 55.2511 0 54.2143 0 52.4799V51.0207C0 49.2928 0.275198 48.2688 0.927995 47.5904C1.58079 46.912 2.55359 46.6304 4.19839 46.6304H8.92796C10.6048 46.6304 11.6032 46.88 12.2687 47.456C12.9343 48.032 13.3119 49.0624 13.3119 50.656V52.1343H10.1888V49.76H3.27679V53.5615H9.26077C10.88 53.5615 11.8912 53.8495 12.5311 54.4895C13.1711 55.1295 13.4591 56.1471 13.4591 57.7663V59.7759C13.4591 61.3951 13.1775 62.4063 12.5311 63.0463C11.8848 63.6863 10.88 63.9999 9.26077 63.9999H9.31196ZM0.780799 59.0783V59.7951C0.780799 62.5023 1.51679 63.2383 4.21758 63.2383H9.33756C12.0383 63.2383 12.7808 62.5023 12.7808 59.7951V57.7855C12.7808 55.0783 12.0383 54.3359 9.33756 54.3359H2.51519V49.024H10.5344V49.4016H10.9184V51.3919H12.5184V50.6752C12.5184 49.3184 12.2815 48.512 11.744 48.0512C11.2064 47.5904 10.3744 47.4112 8.89596 47.4112H4.16639C2.76479 47.4112 1.92639 47.6352 1.44 48.1408C0.953599 48.6464 0.729596 49.5488 0.729596 51.04V52.4799C0.729596 55.2831 1.3696 55.9295 4.16639 55.9295H10.9184V61.6127H2.51519V59.0527L0.780799 59.0783Z" fill="white"/>
<path fill-rule="evenodd" clip-rule="evenodd" d="M15.4465 63.6222H18.1729V57.2222H24.7201C27.088 57.2222 28.176 56.307 28.176 53.939V50.2912C28.176 47.9232 27.088 47.0144 24.7201 47.0144H15.4465V63.6222ZM23.632 49.216C24.912 49.216 25.4497 49.5808 25.4497 50.8608V53.2286C25.4497 54.6878 24.9056 55.0526 23.632 55.0526H18.1729V49.216H23.632Z" fill="white"/>
<path d="M18.5595 63.9999H15.0715V46.6496H24.7291C25.7611 46.5607 26.7883 46.8672 27.6027 47.5072C27.9524 47.8799 28.2193 48.3223 28.3859 48.8053C28.5524 49.2885 28.6148 49.8013 28.5691 50.3104V53.9584C28.6149 54.4682 28.5525 54.9822 28.386 55.4664C28.2195 55.9505 27.9525 56.3941 27.6027 56.768C26.7859 57.4028 25.7599 57.7066 24.7291 57.6192H18.5595V63.9999ZM15.8331 63.2383H17.8043V56.8384H24.7291C25.5682 56.9213 26.4084 56.6936 27.0907 56.1984C27.3591 55.8925 27.5612 55.5345 27.6845 55.1469C27.8079 54.7592 27.8497 54.3501 27.8075 53.9456V50.2976C27.8492 49.894 27.8072 49.486 27.6837 49.0995C27.5604 48.7129 27.3585 48.356 27.0907 48.0512C26.41 47.5525 25.5684 47.3245 24.7291 47.4112H15.8331V63.2383ZM23.6411 55.4304H17.8043V48.8384H23.6411C24.2198 48.7815 24.7995 48.9361 25.2731 49.2736C25.4814 49.4779 25.6404 49.7271 25.738 50.0021C25.8356 50.2772 25.8692 50.5708 25.8363 50.8608V53.2288C25.8299 55.04 24.9595 55.4304 23.6347 55.4304H23.6411ZM18.5595 54.6752H23.6411C24.7227 54.6752 25.0811 54.464 25.0811 53.2288V50.8608C25.0811 49.856 24.7803 49.5808 23.6411 49.5808H18.5595V54.6752Z" fill="white"/>
<path fill-rule="evenodd" clip-rule="evenodd" d="M30.3654 51.0393V59.7881C30.3654 62.7065 31.2742 63.6281 34.2054 63.6281H40.9318C43.8438 63.6281 44.7718 62.7129 44.7718 59.7881V51.0393C44.7718 47.9418 43.863 47.033 40.9318 47.033H34.1798C31.2742 47.033 30.3398 47.9418 30.3398 51.0393H30.3654ZM33.0918 61.2473V49.2153H42.007V61.2473H33.0918Z" fill="white"/>
<path d="M40.9155 63.9993H34.1892C32.57 63.9993 31.5588 63.7113 30.9188 63.0649C30.2788 62.4185 29.9844 61.4137 29.9844 59.7881V51.0393C29.9844 49.3113 30.2596 48.2873 30.9124 47.6089C31.5652 46.9305 32.538 46.6489 34.1828 46.6489H40.9155C42.5667 46.6489 43.5459 46.9369 44.1923 47.6089C44.8387 48.2809 45.1139 49.3113 45.1139 51.0393V59.7881C45.1139 61.4137 44.8323 62.4249 44.1859 63.0649C43.5395 63.7049 42.5347 63.9993 40.9155 63.9993ZM34.1828 47.4105C32.7812 47.4105 31.9428 47.6345 31.4564 48.1337C30.97 48.6329 30.746 49.5481 30.746 51.0393V59.7881C30.746 62.4953 31.482 63.2377 34.1892 63.2377H40.9155C43.6163 63.2377 44.3587 62.4953 44.3587 59.7881V51.0393C44.3587 49.5481 44.1347 48.6521 43.6419 48.1337C43.1491 47.6153 42.3235 47.4105 40.9155 47.4105H34.1828ZM42.3875 61.6313H32.7172V48.8313H42.3875V61.6313ZM33.4724 60.8697H41.6003V49.5993H33.4724V60.8697Z" fill="white"/>
<path fill-rule="evenodd" clip-rule="evenodd" d="M47.2837 63.6222H50.1957V57.2222H50.9253L57.6518 63.6222H61.8371L54.1958 57.2222H56.7558C59.1238 57.2222 60.2118 56.307 60.2118 53.939V50.2912C60.2118 47.9232 59.1238 47.0144 56.7558 47.0144H47.2837V63.6222ZM55.6798 49.216C56.7678 49.216 57.3118 49.5808 57.3118 50.8608V53.4206C57.3118 54.7006 56.7678 55.059 55.6798 55.059H50.2213V49.216H55.6798Z" fill="white"/>
<path d="M62.8837 63.9999H57.501L50.7688 57.6H50.5576V63.9999H46.8904V46.6496H56.7277C57.7597 46.5607 58.7863 46.8672 59.601 47.5072C59.9503 47.8799 60.217 48.3223 60.3837 48.8053C60.5503 49.2885 60.613 49.8013 60.5677 50.3104V53.9584C60.613 54.4682 60.5503 54.9822 60.3837 55.4664C60.217 55.9505 59.9503 56.3941 59.601 56.768C58.7837 57.4028 57.7583 57.7066 56.7277 57.6192H55.229L62.8837 63.9999ZM57.8023 63.2383H60.797L53.1557 56.8384H56.7463C58.961 56.8384 59.825 56.0256 59.825 53.9392V50.2912C59.8663 49.8876 59.825 49.4796 59.701 49.0931C59.577 48.7065 59.3757 48.3496 59.1077 48.0448C58.4277 47.5461 57.585 47.3181 56.7463 47.4048H47.6584V63.2319H49.8088V56.832H51.0888L57.8023 63.2383ZM55.677 55.4304H49.8344V48.8384H55.677C57.073 48.8384 57.693 49.4784 57.693 50.8608V53.4208C57.6677 54.8096 57.0477 55.4304 55.677 55.4304ZM50.5576 54.6752H55.677C56.6503 54.6752 56.957 54.3872 56.957 53.3952V50.8352C56.957 49.856 56.6757 49.5552 55.677 49.5552H50.5576V54.6752Z" fill="white"/>
<path fill-rule="evenodd" clip-rule="evenodd" d="M92.581 50.1311H91.8517V47.3983H91.1223V46.6687H93.3103V47.3983H92.581V50.1311ZM96.217 48.1279L95.493 50.3103H95.129L94.3983 48.1279L94.0343 50.1311H93.3103L93.8543 46.6687H94.3983L95.3076 48.8511L96.217 46.6687H96.7663L97.3103 50.1311H96.581L96.217 48.1279Z" fill="white"/>
</svg>
