<svg width="274" height="64" viewBox="0 0 274 64" fill="none" xmlns="http://www.w3.org/2000/svg">
<path d="M22.5558 39.6596H9.45957L5.62319 48.1627H0L15.9972 13.8245L31.9838 48.1627H26.2766L22.5558 39.6596ZM20.6534 35.1821L17.29 27.6459C16.791 26.4276 16.3732 25.1776 16.0392 23.9042C15.7353 25.1813 15.3311 26.4324 14.8305 27.6459L11.4671 35.1821H20.6534Z" fill="white"/>
<path d="M39.6987 15.1484H45.0592V28.8123L56.9362 15.1484H63.5053L50.4511 29.8633L65.1029 48.2044H58.1764L45.0907 31.3874V48.2044H39.7303L39.6987 15.1484Z" fill="white"/>
<path d="M72.9756 15.1484H91.4428V19.7311H78.336V27.9924H91.4428V32.7117H78.336V43.38H91.4428V48.1939H72.9756V15.1484Z" fill="white"/>
<path d="M107.208 48.1623H102.174V15.1484H109.657C113.22 15.1484 115.848 15.4322 117.887 16.9983C118.93 17.8898 119.756 19.0072 120.302 20.2656C120.849 21.5241 121.101 22.8905 121.04 24.2612C121.04 29.5165 118.444 32.5751 113.462 33.1742L124.835 48.1939H118.781L107.839 33.3739H107.208V48.1623ZM108.501 29.2432C113.21 29.2432 115.575 28.6966 115.575 24.7131C115.575 20.7296 113.315 19.7731 108.501 19.7731H107.534V29.2327L108.501 29.2432Z" fill="white"/>
<path d="M128.45 15.1484H134.042L141.4 32.7643C142.155 34.4543 142.743 36.2145 143.155 38.0196C143.61 36.2217 144.211 34.4641 144.952 32.7643L152.404 15.1484H157.954L143.239 49.4972L128.45 15.1484Z" fill="white"/>
<path d="M183.106 39.6596H170.02L166.194 48.1627H160.55L176.579 13.8245L192.565 48.1627H186.879L183.106 39.6596ZM181.203 35.1821L177.829 27.6459C177.335 26.4259 176.917 25.1762 176.579 23.9042C176.277 25.1807 175.876 26.4317 175.38 27.6459L172.006 35.1821H181.203Z" fill="white"/>
<path d="M244.393 40.0273V33.6263L244.456 33.5633L250.92 40.0273H256.585L247.283 30.7359L255.114 22.9055H249.449L244.393 27.9611V19.6577L240.409 23.7043L223.887 40.227L229.562 40.206L240.388 29.3906V40.0273H244.393Z" fill="white"/>
<path d="M222.72 43.5273C220.09 39.3481 218.958 34.3994 219.508 29.4922C220.059 24.585 222.26 20.0105 225.751 16.5182C229.243 13.0259 233.816 10.8231 238.723 10.2706C243.63 9.71814 248.579 10.8489 252.76 13.4775L260.117 6.12001C253.943 1.63545 246.371 -0.499585 238.764 0.0987368C231.156 0.697059 224.012 3.98949 218.615 9.38413C213.218 14.7788 209.922 21.9217 209.32 29.5289C208.718 37.1361 210.849 44.7085 215.331 50.8848L222.72 43.5273Z" fill="white"/>
<path d="M267.338 13.4039L259.928 20.7613C262.429 24.9262 263.465 29.8078 262.873 34.6296C262.28 39.4514 260.092 43.9365 256.657 47.3717C253.222 50.8069 248.736 52.9949 243.915 53.5876C239.093 54.1804 234.211 53.1439 230.046 50.643L222.689 58.053C228.862 62.4515 236.395 64.5192 243.949 63.8891C251.503 63.2589 258.589 59.9715 263.948 54.611C269.307 49.2505 272.593 42.1638 273.221 34.6098C273.85 27.0559 271.78 19.5237 267.38 13.3513L267.338 13.4039Z" fill="white"/>
</svg>
