<svg width="231" height="64" viewBox="0 0 231 64" fill="none" xmlns="http://www.w3.org/2000/svg">
<path d="M84.9172 50.976C82.903 51.5524 80.8545 52.0013 78.7839 52.32C76.212 52.7272 73.6117 52.927 71.0079 52.9173C68.4408 52.9621 65.8877 52.5318 63.4772 51.648C61.3383 50.8508 59.3957 49.603 57.7812 47.9893C56.185 46.3422 54.9562 44.3754 54.1759 42.2187C53.3115 39.7738 52.8854 37.1956 52.9172 34.6027C52.8926 32.0496 53.2522 29.5074 53.9839 27.0613C54.6106 24.9373 55.6631 22.963 57.0772 21.2587C58.426 19.6568 60.1223 18.3836 62.0372 17.536C64.1629 16.6282 66.4568 16.181 68.7679 16.224C70.3042 16.2012 71.8355 16.4061 73.3119 16.832C74.4697 17.1609 75.5945 17.5966 76.6719 18.1333V1.344L84.8852 0L84.9172 50.976ZM61.3545 34.4107C61.3545 37.984 62.2079 40.8107 63.9359 42.8267C64.8106 43.8412 65.905 44.6431 67.1358 45.1717C68.3667 45.7003 69.7018 45.9416 71.0399 45.8773C72.1622 45.8849 73.284 45.8279 74.3999 45.7067C75.1679 45.632 75.9252 45.504 76.6825 45.3547V25.1947C75.779 24.6193 74.8081 24.1572 73.7919 23.8187C72.5589 23.4001 71.2646 23.1909 69.9625 23.2C66.9759 23.2 64.7892 24.2667 63.4132 26.2187C61.9099 28.6764 61.1917 31.5342 61.3545 34.4107Z" fill="white"/>
<path d="M88.6186 34.624C88.5588 31.8511 89.0295 29.0923 90.0052 26.496C90.8404 24.3208 92.1108 22.3391 93.7386 20.672C95.2378 19.1533 97.0356 17.962 99.0186 17.1733C100.968 16.4015 103.045 16.0034 105.141 16C110.012 16 113.817 17.5004 116.555 20.5013C119.292 23.5022 120.658 27.9858 120.651 33.952C120.651 34.4 120.651 34.9013 120.651 35.4667C120.651 36.032 120.651 36.5333 120.555 36.9813H97.0986C97.135 38.22 97.4212 39.4385 97.9399 40.5639C98.4586 41.6893 99.1992 42.6984 100.117 43.5307C101.902 45.0809 104.487 45.856 107.872 45.856C109.703 45.8674 111.53 45.685 113.323 45.312C114.657 45.054 115.964 44.6719 117.227 44.1707L118.293 50.8267C117.69 51.1117 117.066 51.3506 116.427 51.5413C115.538 51.8191 114.633 52.0435 113.717 52.2133C112.651 52.416 111.584 52.5867 110.432 52.7147C109.235 52.8551 108.031 52.9264 106.827 52.928C104.054 52.9846 101.296 52.5141 98.6986 51.5413C96.5322 50.723 94.5858 49.412 93.0133 47.712C91.4962 46.038 90.3607 44.0545 89.6852 41.8987C88.9426 39.5465 88.5824 37.0904 88.6186 34.624ZM112.384 30.9973C112.394 29.9128 112.236 28.8333 111.915 27.7973C111.628 26.844 111.157 25.9561 110.528 25.184C109.922 24.4404 109.156 23.8425 108.288 23.4347C107.301 22.9854 106.225 22.7666 105.141 22.7947C103.991 22.7676 102.851 23.0124 101.813 23.5093C100.893 23.9497 100.072 24.5741 99.4026 25.344C98.7401 26.1257 98.2267 27.0223 97.8879 27.9893C97.5266 28.9644 97.2762 29.977 97.1412 31.008L112.384 30.9973Z" fill="white"/>
<path d="M157.504 26.6669C156.746 24.5146 155.52 22.5568 153.916 20.9339C152.311 19.311 150.368 18.0633 148.224 17.2802C145.805 16.4014 143.246 15.9678 140.672 16.0002C138.079 15.991 135.489 16.1908 132.928 16.5976C130.475 17.0029 128.413 17.426 126.741 17.8669V64.0002H134.965V50.4429C136.071 51.0097 137.233 51.4601 138.432 51.7869C139.937 52.1944 141.491 52.3954 143.051 52.3842C145.35 52.4172 147.63 51.959 149.739 51.0402C151.652 50.2008 153.341 48.9217 154.667 47.3069C156.044 45.6173 157.087 43.6805 157.739 41.6002C158.465 39.2188 158.825 36.7406 158.805 34.2509C158.83 31.6653 158.39 29.0963 157.504 26.6669ZM148.267 42.4536C146.887 44.4447 144.701 45.4438 141.707 45.4509C140.404 45.4615 139.109 45.2486 137.877 44.8216C136.863 44.4822 135.893 44.0239 134.987 43.4562V23.4669C135.799 23.2446 136.632 23.1017 137.472 23.0402C138.304 22.9656 139.115 22.9336 139.883 22.9336C143.552 22.9336 146.215 23.9362 147.872 25.9416C149.529 27.9469 150.354 30.7522 150.347 34.3576C150.489 37.2012 149.764 40.0211 148.267 42.4429V42.4536Z" fill="white"/>
<path d="M162.464 7.46672L170.635 6.11206V16.7787H183.179V23.5841H170.635V37.9841C170.635 40.8285 171.086 42.8587 171.989 44.0747C172.885 45.3014 174.421 45.9094 176.576 45.8987C177.907 45.9188 179.234 45.761 180.523 45.4294C181.451 45.1862 182.366 44.8943 183.264 44.5547L184.608 51.0294C183.399 51.5249 182.159 51.9417 180.896 52.2774C179.134 52.7348 177.318 52.9501 175.499 52.9174C173.35 52.9819 171.207 52.6418 169.184 51.9147C167.601 51.3175 166.21 50.2996 165.163 48.9707C164.113 47.5993 163.384 46.0101 163.029 44.3201C162.595 42.269 162.388 40.1764 162.411 38.0801L162.464 7.46672Z" fill="white"/>
<path d="M199.339 7.46672C199.374 8.14026 199.263 8.81349 199.012 9.43973C198.762 10.066 198.378 10.6302 197.888 11.0934C196.968 11.9743 195.738 12.4572 194.464 12.4374C193.163 12.4682 191.902 11.9853 190.955 11.0934C190.466 10.6289 190.083 10.0644 189.833 9.43853C189.583 8.81261 189.47 8.14002 189.504 7.46672C189.469 6.78371 189.58 6.10109 189.83 5.46458C190.08 4.82807 190.464 4.25237 190.955 3.77605C191.902 2.88411 193.163 2.40127 194.464 2.43205C195.738 2.41228 196.968 2.89516 197.888 3.77605C198.38 4.25111 198.765 4.82659 199.015 5.46341C199.265 6.10024 199.376 6.78348 199.339 7.46672ZM198.485 52.896H190.507V17.7814H198.485V52.896Z" fill="white"/>
<path d="M215.808 46.1975C217.417 46.2939 219.027 46.0316 220.523 45.4295C221.004 45.1826 221.402 44.7986 221.666 44.326C221.93 43.8533 222.048 43.3131 222.005 42.7735C222.003 42.1972 221.857 41.6306 221.579 41.1256C221.302 40.6205 220.902 40.1933 220.416 39.8828C218.79 38.8194 217.038 37.963 215.2 37.3335C213.815 36.8399 212.458 36.2702 211.136 35.6268C209.974 35.0699 208.897 34.3517 207.936 33.4935C207.029 32.6788 206.302 31.6832 205.803 30.5708C205.256 29.2389 204.995 27.8073 205.035 26.3681C204.974 24.9034 205.268 23.4457 205.89 22.1182C206.511 20.7907 207.444 19.6325 208.608 18.7415C210.962 16.9139 214.194 16.0001 218.304 16.0001C220.288 15.9941 222.268 16.1871 224.213 16.5761C225.661 16.819 227.088 17.1756 228.48 17.6428L226.997 24.2455C225.888 23.7836 224.738 23.4265 223.563 23.1788C221.975 22.8167 220.349 22.6448 218.72 22.6668C217.327 22.6107 215.942 22.9002 214.688 23.5095C214.208 23.746 213.806 24.1167 213.531 24.5766C213.257 25.0366 213.121 25.5662 213.141 26.1015C213.133 26.6321 213.235 27.1588 213.44 27.6481C213.691 28.1435 214.056 28.5715 214.507 28.8961C215.098 29.3425 215.734 29.7251 216.405 30.0375C217.373 30.4789 218.363 30.8706 219.371 31.2108C221.049 31.8203 222.687 32.5327 224.277 33.3441C225.501 33.9499 226.624 34.7415 227.605 35.6908C228.459 36.5316 229.115 37.5518 229.525 38.6775C229.962 39.9794 230.167 41.3475 230.133 42.7201C230.215 44.2045 229.915 45.6851 229.261 47.0203C228.608 48.3555 227.623 49.5008 226.4 50.3468C223.904 52.0748 220.349 52.9388 215.733 52.9388C213.221 53.0006 210.712 52.7389 208.267 52.1601C206.918 51.8186 205.59 51.4019 204.288 50.9121L205.717 44.1281C207.134 44.6938 208.583 45.1712 210.059 45.5575C211.939 46.0213 213.872 46.2365 215.808 46.1975Z" fill="white"/>
<path d="M45.7387 54.1547L52.9387 52.8747L26.752 0L0 54.0693L8.53333 52.5547L13.3867 42.752C19.168 34.8053 29.44 34.9227 29.44 34.9227C29.44 34.9227 26.048 31.84 18.6027 32.192L26.7093 15.8293L45.7387 54.1547Z" fill="white"/>
</svg>
