<svg width="347" height="64" viewBox="0 0 347 64" fill="none" xmlns="http://www.w3.org/2000/svg">
<path fill-rule="evenodd" clip-rule="evenodd" d="M41.1293 49.6767C38.0313 52.7698 33.9568 54.6932 29.5998 55.1192C25.2428 55.5452 20.8729 54.4476 17.2344 52.0132C13.5959 49.5789 10.9139 45.9584 9.6452 41.7685C8.37653 37.5786 8.59967 33.0785 10.2766 29.0346C11.9536 24.9908 14.9806 21.6534 18.8421 19.5909C22.7035 17.5285 27.1606 16.8685 31.4541 17.7235C35.7475 18.5785 39.6118 20.8955 42.3886 24.2798C45.1655 27.6642 46.6831 31.9066 46.683 36.2843C46.6842 38.7723 46.1941 41.236 45.2411 43.5341C44.2881 45.8323 42.8908 47.9197 41.1293 49.6767ZM27.6523 8.5686C22.1733 8.58115 16.821 10.2173 12.2716 13.2704C7.7221 16.3234 4.17958 20.6564 2.09157 25.7219C0.00356589 30.7874 -0.536251 36.3581 0.540324 41.7302C1.6169 47.1023 4.26156 52.0349 8.14019 55.9046C12.0188 59.7744 16.9574 62.4078 22.332 63.4721C27.7066 64.5363 33.276 63.9838 38.3367 61.8842C43.3974 59.7846 47.7223 56.2322 50.7649 51.6758C53.8075 47.1193 55.4315 41.7633 55.4315 36.2843C55.4119 28.9287 52.4768 21.8809 47.2696 16.6856C42.0625 11.4903 35.0079 8.57138 27.6523 8.5686Z" fill="white"/>
<path fill-rule="evenodd" clip-rule="evenodd" d="M57.9067 6.46344H60.0753V4.30542H57.9067V6.46344Z" fill="white"/>
<path fill-rule="evenodd" clip-rule="evenodd" d="M57.9067 2.1686H60.0753V0H57.9067V2.1686Z" fill="white"/>
<path fill-rule="evenodd" clip-rule="evenodd" d="M51.8242 8.558H53.8447V6.45288H51.8242V8.558Z" fill="white"/>
<path fill-rule="evenodd" clip-rule="evenodd" d="M47.8044 12.6095H49.8461V10.5996H47.8044V12.6095Z" fill="white"/>
<path fill-rule="evenodd" clip-rule="evenodd" d="M53.8447 10.5998H56.1085V8.55811H53.8447V10.5998Z" fill="white"/>
<path fill-rule="evenodd" clip-rule="evenodd" d="M45.7839 10.5997H47.8044V8.66382H45.7839V10.5997Z" fill="white"/>
<path fill-rule="evenodd" clip-rule="evenodd" d="M51.8242 12.6095H53.8447V10.5996H51.8242V12.6095Z" fill="white"/>
<path fill-rule="evenodd" clip-rule="evenodd" d="M55.77 4.30556H57.9069V2.1687H55.77V4.30556Z" fill="white"/>
<path fill-rule="evenodd" clip-rule="evenodd" d="M51.8242 6.45286H55.77V4.30542H51.8242V6.45286Z" fill="white"/>
<path fill-rule="evenodd" clip-rule="evenodd" d="M49.8459 10.5997H51.8136V6.45288H49.8459V10.5997Z" fill="white"/>
<path fill-rule="evenodd" clip-rule="evenodd" d="M49.846 14.6513H47.8043V12.6096H44.4298V14.08H42.6103V15.889H44.6414V17.8989H42.6103V15.889H40.4946V19.0625H38.4212V21.083H37.0671V23.1035H35.5861C32.9085 27.3787 30.5195 31.8281 28.4351 36.4219C23.8863 30.0748 20.3425 27.5888 17.5603 26.6791C16.0582 26.2242 14.2493 27.8533 16.7458 30.4239C22.4793 36.7181 24.2777 41.9227 26.0232 46.0801C26.9435 48.2698 31.0797 48.6083 31.9048 46.3868C33.7812 41.3129 36.2603 36.4828 39.2886 32.0001V29.7574H40.9071V27.7686H42.6103V25.3779H44.6414V23.1035H42.5891V20.9878H44.6414V23.1035H46.6513V21.0619H48.2592V18.5971H50.0681V16.8939H51.8242V12.6625H49.846V14.6513Z" fill="white"/>
<path fill-rule="evenodd" clip-rule="evenodd" d="M159.006 42.9805C158.844 43.7844 158.543 44.5539 158.117 45.2549C157.692 45.9362 157.103 46.4999 156.404 46.8946C155.585 47.3198 154.671 47.5274 153.748 47.4976C152.836 47.5291 151.932 47.3212 151.125 46.8946C150.436 46.4929 149.856 45.9303 149.432 45.2549C149.002 44.5561 148.701 43.7857 148.544 42.9805C148.376 42.1519 148.29 41.3085 148.29 40.4629C148.289 39.5962 148.374 38.7316 148.544 37.8817C148.698 37.0754 148.999 36.3044 149.432 35.6073C149.887 34.8815 150.526 34.2895 151.284 33.8917C152.043 33.494 152.893 33.3048 153.748 33.3435C154.674 33.313 155.592 33.5322 156.404 33.9782C157.1 34.3725 157.688 34.9319 158.117 35.6073C158.546 36.3067 158.847 37.0768 159.006 37.8817C159.176 38.7315 159.261 39.5962 159.26 40.4629C159.259 41.3085 159.174 42.1519 159.006 42.9805ZM161.725 32.3386C160.741 31.3546 159.558 30.5934 158.255 30.1065C156.802 29.5595 155.259 29.2904 153.706 29.3131C152.164 29.2903 150.631 29.5595 149.189 30.1065C147.888 30.5949 146.709 31.3594 145.732 32.3473C144.755 33.3353 144.003 34.5233 143.53 35.8295C143.004 37.3162 142.753 38.8863 142.789 40.4629C142.767 42.0213 143.033 43.5705 143.572 45.0328C144.049 46.3317 144.801 47.5125 145.776 48.4946C146.75 49.4767 147.925 50.2371 149.221 50.724C152.159 51.7512 155.359 51.7512 158.297 50.724C159.6 50.2411 160.783 49.4835 161.767 48.5025C162.737 47.5125 163.491 46.3307 163.978 45.0328C164.515 43.57 164.781 42.0212 164.761 40.4629C164.779 38.8943 164.514 37.3353 163.978 35.8612C163.491 34.5568 162.738 33.368 161.767 32.3703L161.725 32.3386Z" fill="white"/>
<path fill-rule="evenodd" clip-rule="evenodd" d="M185.59 31.651C184.982 30.8859 184.182 30.2948 183.273 29.9373C182.049 29.4828 180.748 29.2708 179.443 29.3132C178.202 29.3176 176.976 29.5995 175.857 30.1383C174.592 30.7032 173.513 31.6168 172.747 32.7724L172.684 32.8781C172.67 32.9026 172.65 32.9231 172.626 32.9379C172.602 32.9527 172.574 32.9612 172.546 32.9628C172.546 32.9628 172.472 32.9628 172.472 32.8781V29.8844H167.268V50.9145H172.768V39.8917C172.632 38.1949 173.027 36.4976 173.9 35.0362C174.352 34.5069 174.924 34.0927 175.568 33.8279C176.212 33.563 176.909 33.455 177.603 33.5128C178.21 33.4492 178.823 33.5467 179.38 33.7956C179.937 34.0445 180.419 34.4359 180.776 34.9304C181.442 36.1836 181.746 37.5975 181.654 39.0137V50.9251H187.113V37.9347C187.124 36.7303 187.007 35.5282 186.764 34.3485C186.573 33.371 186.164 32.449 185.568 31.651" fill="white"/>
<path fill-rule="evenodd" clip-rule="evenodd" d="M83.7713 42.1977L70.855 21.76H64.9204V50.9779H70.3789V30.445L70.8126 31.122L83.253 50.9779H89.2299V21.76H83.7713V42.1977Z" fill="white"/>
<path fill-rule="evenodd" clip-rule="evenodd" d="M107.954 42.9806C107.801 43.7872 107.5 44.5584 107.065 45.255C106.643 45.9386 106.053 46.503 105.351 46.8947C104.536 47.3185 103.625 47.5261 102.707 47.4977C101.791 47.5281 100.884 47.3204 100.073 46.8947C99.3843 46.493 98.8035 45.9304 98.3802 45.255C97.9546 44.554 97.6539 43.7845 97.4916 42.9806C97.3091 42.1534 97.2098 41.31 97.1954 40.463C97.1944 39.5963 97.2795 38.7317 97.4492 37.8818C97.608 37.0769 97.9089 36.3068 98.3378 35.6074C98.7644 34.9375 99.3447 34.379 100.03 33.9783C100.834 33.5311 101.745 33.3116 102.664 33.3436C103.587 33.3145 104.5 33.5337 105.309 33.9783C106.005 34.3726 106.594 34.932 107.023 35.6074C107.461 36.3023 107.762 37.0742 107.911 37.8818C108.082 38.7316 108.167 39.5963 108.165 40.463C108.179 41.3071 108.108 42.1505 107.954 42.9806ZM110.715 32.3387C109.731 31.3547 108.548 30.5935 107.245 30.1066C105.795 29.5604 104.256 29.2913 102.707 29.3132C101.161 29.2896 99.6248 29.5588 98.1792 30.1066C96.8868 30.5963 95.7145 31.3575 94.7411 32.3387C93.761 33.3312 93.0037 34.5213 92.5197 35.8296C91.9832 37.3037 91.718 38.8627 91.7368 40.4312C91.715 41.9897 91.9804 43.5388 92.5197 45.0011C93.0067 46.3017 93.7638 47.4843 94.7411 48.4709C95.7151 49.4488 96.8875 50.2063 98.1792 50.6924C99.6289 51.223 101.163 51.4847 102.707 51.4646C104.257 51.4816 105.798 51.22 107.256 50.6924C108.554 50.2067 109.733 49.4493 110.715 48.4709C111.686 47.4819 112.44 46.2998 112.926 45.0011C113.465 43.5388 113.73 41.9897 113.708 40.4312C113.727 38.8627 113.462 37.3037 112.926 35.8296C112.443 34.5232 111.689 33.3337 110.715 32.3387Z" fill="white"/>
<path fill-rule="evenodd" clip-rule="evenodd" d="M137.225 23.5371H131.734L131.671 29.6303H130.243C128.584 29.5933 126.931 29.8402 125.355 30.3603C123.95 30.849 122.773 31.8348 122.044 33.1318C121.893 33.4074 121.762 33.6938 121.653 33.9887C121.653 34.0224 121.64 34.0546 121.616 34.0785C121.592 34.1023 121.56 34.1156 121.526 34.1156C121.463 34.1156 121.42 34.1156 121.42 34.0204V29.99H116.237V51.0413H121.738V41.5206C121.729 40.5954 121.829 39.6724 122.034 38.7702C122.16 38.257 122.344 37.7601 122.584 37.2892C123.578 35.7024 125.757 34.1156 130.37 34.1156H131.639L131.523 46.3867C131.479 47.254 131.65 48.1187 132.02 48.9044C132.332 49.5144 132.813 50.0213 133.406 50.3642C134.06 50.7344 134.777 50.9785 135.521 51.0836C136.379 51.2157 137.245 51.2864 138.113 51.2952H139.901C140.389 51.2861 140.877 51.2472 141.361 51.1788V47.0743C141.15 47.1065 140.939 47.1277 140.726 47.1378C140.409 47.1378 140.081 47.1378 139.742 47.1378C138.971 47.2176 138.197 47.0063 137.574 46.5454C137.132 45.9338 136.936 45.1789 137.024 44.4297L137.129 34.1474H141.361V29.6198H137.129L137.182 23.5794" fill="white"/>
<path fill-rule="evenodd" clip-rule="evenodd" d="M199.522 23.9814H193.122V50.8403H212.597V45.9001H199.522V23.9814Z" fill="white"/>
<path fill-rule="evenodd" clip-rule="evenodd" d="M215.347 50.8404H221.281V29.7468H215.347V50.8404Z" fill="white"/>
<path fill-rule="evenodd" clip-rule="evenodd" d="M215.347 26.8165H221.281V21.76H215.347V26.8165Z" fill="white"/>
<path fill-rule="evenodd" clip-rule="evenodd" d="M228.813 23.8334C227.914 24.7114 227.565 26.0972 227.565 28.7418V29.7997H224.296V34.4013H227.565V50.8932H233.658V34.3484H238.059V29.7785H233.627V28.9322C233.627 27.8744 233.701 27.4724 233.902 27.2502C234.103 27.0281 234.367 26.9752 235.161 26.9752H238.059V22.5322H233.119C230.802 22.5322 229.776 22.9554 228.887 23.8334" fill="white"/>
<path fill-rule="evenodd" clip-rule="evenodd" d="M245.475 38.3472C245.475 35.3958 245.707 34.7399 245.982 34.4754C246.257 34.211 246.882 34.084 247.908 34.084H251.166C252.382 34.084 252.742 34.2004 252.975 34.4331C253.208 34.6658 253.44 35.491 253.44 38.3472H245.475ZM253.176 29.7574H245.866C243.666 29.7574 242.492 30.0959 241.582 31.0162C240.175 32.4338 239.625 34.084 239.625 40.3042C239.625 46.5244 240.175 48.164 241.582 49.5498C242.523 50.5125 243.697 50.851 245.866 50.851H253.874C256.191 50.851 257.048 50.2797 257.725 49.6239C258.782 48.566 259.142 47.3706 259.184 44.2288H253.641C253.641 45.731 253.525 45.9002 253.324 46.133C253.123 46.3657 252.774 46.5244 251.557 46.5244H247.908C246.85 46.5244 246.257 46.4397 245.982 46.133C245.707 45.8262 245.506 45.2867 245.475 41.9016H258.317C259.026 41.9016 259.184 41.6794 259.184 41.0658V40.0715C259.184 34.01 258.867 32.3597 257.45 30.9739C256.55 30.0536 255.334 29.7151 253.218 29.7151L253.176 29.7574Z" fill="white"/>
<path fill-rule="evenodd" clip-rule="evenodd" d="M265.754 23.9919H262.644V50.8402H279.738V48.2379H265.754V23.9919Z" fill="white"/>
<path fill-rule="evenodd" clip-rule="evenodd" d="M295.384 47.7407C294.95 48.1638 294.326 48.3119 292.877 48.3119H288C286.509 48.3119 285.885 48.1638 285.451 47.7407C284.827 47.1166 284.509 46.1222 284.509 40.5579C284.509 34.9936 284.827 34.0415 285.451 33.428C286.075 32.8144 286.509 32.8461 288 32.8461H292.898C294.39 32.8461 295.014 32.9625 295.405 33.428C296.04 34.0415 296.389 35.0359 296.389 40.5579C296.389 46.0799 296.072 47.1166 295.384 47.7407ZM293.184 30.3179H287.683C285.567 30.3179 284.308 30.5929 283.452 31.4709C282.119 32.7721 281.643 34.4223 281.643 40.5579C281.643 46.6934 282.119 48.386 283.452 49.6871C284.351 50.5757 285.567 50.8402 287.683 50.8402H293.184C295.299 50.8402 296.558 50.5757 297.415 49.6871C298.79 48.386 299.266 46.7357 299.266 40.5579C299.266 34.38 298.79 32.7721 297.415 31.4709C296.548 30.5929 295.299 30.3179 293.184 30.3179Z" fill="white"/>
<path fill-rule="evenodd" clip-rule="evenodd" d="M315.515 47.7726C315.039 48.1957 314.531 48.3121 313.241 48.3121H308.639C307.148 48.3121 306.523 48.1534 306.09 47.7409C305.466 47.1273 305.148 46.1223 305.148 40.558C305.148 34.9937 305.466 34.0417 306.09 33.4281C306.714 32.8146 307.148 32.8463 308.639 32.8463H313.241C314.531 32.8463 315.007 32.9627 315.441 33.3858C315.875 33.8089 316.108 34.4437 316.224 37.0354H319.048C318.974 33.6185 318.572 32.3174 317.599 31.3547C316.816 30.5825 315.907 30.2969 313.823 30.2969H308.332C306.217 30.2969 304.947 30.5613 304.101 31.4499C302.768 32.7511 302.292 34.4013 302.292 40.5369C302.292 46.6724 302.768 48.365 304.101 49.6767C305 50.5547 306.217 50.8192 308.332 50.8192H313.865C315.864 50.8192 316.848 50.5124 317.599 49.7614C318.657 48.767 319.006 47.5822 319.133 43.8585H316.298C316.224 46.4609 315.991 47.2754 315.515 47.7303" fill="white"/>
<path fill-rule="evenodd" clip-rule="evenodd" d="M338.671 30.3179H335.17L327.437 39.2991H325.279V23.2197H322.37V50.8402H325.279V41.6687H327.352L335.329 50.8402H338.978L329.711 40.3358L338.671 30.3179Z" fill="white"/>
<path fill-rule="evenodd" clip-rule="evenodd" d="M345.727 29.4084L345.05 31.9473L344.331 29.4084H343.209V32.8888H343.918V30.223L344.68 32.8888H345.346L346.119 30.223V32.8888H346.848V29.4084H345.727Z" fill="white"/>
<path fill-rule="evenodd" clip-rule="evenodd" d="M339.888 29.9797H340.819V32.8888H341.57V29.9797H342.49V29.4084H339.888V29.9797Z" fill="white"/>
</svg>
