<svg width="63" height="64" viewBox="0 0 63 64" fill="none" xmlns="http://www.w3.org/2000/svg">
<path d="M12.1253 3.21571C11.8946 3.21571 11.753 3.35731 11.69 3.61429L9.59223 11.0667C9.38844 11.9619 8.89876 12.7664 8.1972 13.3586C7.45828 13.87 6.57244 14.126 5.67459 14.0875C5.12688 14.1043 4.5804 14.0263 4.0593 13.8568C3.63318 13.719 3.23527 13.5059 2.88453 13.2274C2.56319 12.965 2.30055 12.6381 2.11359 12.2677C1.91826 11.8922 1.78877 11.486 1.73074 11.0667L0.0525057 0.939596C0.0164063 0.722966 -0.00114221 0.503649 5.7593e-05 0.284035H3.81281C3.80607 0.36606 3.80607 0.4485 3.81281 0.530525C3.81209 0.624433 3.82444 0.717983 3.84951 0.808484L5.27077 10.0545C5.30749 10.3744 5.46482 10.516 5.74277 10.516C5.84916 10.5173 5.95342 10.4862 6.04171 10.4269C6.14103 10.3412 6.20465 10.2215 6.22003 10.0912L8.28111 2.83286C8.47037 1.99668 8.92251 1.24311 9.57126 0.682616C10.3238 0.18006 11.2229 -0.0562492 12.1253 0.0113208C13.0014 -0.047927 13.8718 0.19047 14.5955 0.687861C15.2076 1.23251 15.6378 1.95194 15.8279 2.74895L17.8471 10.1175C17.8711 10.2448 17.9333 10.3619 18.0254 10.4531C18.1139 10.5077 18.2151 10.5384 18.3191 10.5423C18.576 10.5423 18.7439 10.3849 18.7963 10.0807L20.3277 0.834706C20.3614 0.740648 20.3757 0.640741 20.3697 0.541015V0.310257H24.1405C24.1487 0.407979 24.1487 0.506226 24.1405 0.603948C24.1399 0.72089 24.124 0.837255 24.0933 0.950085L22.2839 11.1139C22.1516 11.9556 21.7308 12.725 21.0934 13.2904C20.3065 13.8988 19.3212 14.1924 18.3296 14.1138C16.3209 14.1138 15.0413 13.1016 14.5168 11.0772L12.6026 3.6038C12.5239 3.35731 12.3823 3.21571 12.1515 3.21571" fill="white"/>
<path d="M29.2433 0.310303H25.6089V13.8411H29.2433V0.310303Z" fill="white"/>
<path d="M46.1675 0.310303V3.89754H40.2517V13.8411H36.6173V3.89754H30.6753V0.310303H46.1675Z" fill="white"/>
<path d="M62.9498 0.310303V13.8411H59.3153V8.61758H51.2493V13.8411H47.5991V0.310303H51.2493V5.2139H59.3153V0.310303H62.9498Z" fill="white"/>
<path d="M13.3158 17.2342C13.2306 17.1525 13.1533 17.063 13.085 16.9668C13.0396 16.9091 13.0058 16.8432 12.9854 16.7727H17.4274C17.4641 16.8252 17.4904 16.9038 17.5271 16.9668C17.5885 17.0608 17.6569 17.1502 17.7316 17.2342L21.1248 20.9368C21.1574 20.9813 21.2001 21.0174 21.2493 21.0423C21.2985 21.0672 21.3529 21.0802 21.408 21.0802C21.4631 21.0802 21.5175 21.0672 21.5667 21.0423C21.6159 21.0174 21.6586 20.9813 21.6912 20.9368L25.0687 17.2342C25.2101 17.1042 25.3242 16.9473 25.4043 16.7727H29.7782C29.7399 16.8397 29.6978 16.9044 29.6523 16.9668C29.5999 17.0297 29.5265 17.1188 29.4216 17.2342L23.0915 24.2409V30.293H19.4203V23.9996L13.3158 17.2342Z" fill="white"/>
<path d="M35.7201 30.2928C34.6417 30.319 33.5698 30.1189 32.5734 29.7055C31.7053 29.3408 30.9282 28.7893 30.2973 28.0901C29.7447 27.4889 29.3089 26.79 29.0124 26.0291C28.6963 25.2354 28.5412 24.3868 28.5562 23.5327C28.5485 22.5813 28.7434 21.6392 29.1278 20.7688C29.5036 19.9314 30.0379 19.1745 30.7012 18.5399C31.3246 17.9696 32.0507 17.5229 32.8409 17.2236C33.7595 16.8894 34.7324 16.7293 35.7097 16.7516H38.5364C39.5137 16.7293 40.4866 16.8894 41.4052 17.2236C42.1944 17.5248 42.9202 17.9713 43.5449 18.5399C44.2317 19.177 44.7788 19.9497 45.1517 20.8091C45.5245 21.6685 45.7149 22.5959 45.7109 23.5327C45.7199 24.3868 45.5631 25.2346 45.2494 26.0291C44.9445 26.7845 44.5116 27.4818 43.9697 28.0901C43.3332 28.7851 42.5553 29.3359 41.6884 29.7055C40.6923 30.1197 39.6202 30.3198 38.5417 30.2928H35.7201ZM35.7201 20.3283C35.2008 20.3194 34.6841 20.4029 34.194 20.5748C33.8029 20.7162 33.4457 20.9377 33.1451 21.2251C32.8383 21.5258 32.591 21.8816 32.4161 22.274C32.2322 22.6753 32.139 23.1122 32.1434 23.5537C32.1363 23.9589 32.2149 24.361 32.3742 24.7337C32.5145 25.0987 32.7287 25.4308 33.0035 25.7091C33.3114 26.0379 33.6872 26.2956 34.1048 26.4644C34.6221 26.6674 35.1752 26.7637 35.7306 26.7476H38.5627C39.1181 26.7631 39.671 26.6668 40.1885 26.4644C40.6036 26.2911 40.9786 26.034 41.2898 25.7091C41.5571 25.434 41.7658 25.1075 41.9034 24.7494C42.0528 24.3738 42.131 23.9736 42.1342 23.5694C42.1367 23.1287 42.0455 22.6925 41.8667 22.2897C41.6947 21.8958 41.447 21.5394 41.1377 21.2408C40.822 20.9736 40.4686 20.7544 40.0888 20.5905C39.5991 20.4172 39.0821 20.3337 38.5627 20.344L35.7201 20.3283Z" fill="white"/>
<path d="M52.1301 30.293C51.394 30.3016 50.6596 30.2206 49.9431 30.0518C49.3917 29.9166 48.8843 29.6421 48.4694 29.2546C48.075 28.8936 47.7913 28.428 47.6513 27.912C47.4597 27.2817 47.3694 26.6249 47.3838 25.9663V16.7622H51.0549V25.5677C51.0324 25.7416 51.0507 25.9183 51.1084 26.0839C51.1661 26.2495 51.2616 26.3993 51.3874 26.5215C51.5131 26.6437 51.6656 26.7349 51.8328 26.7878C52 26.8407 52.1772 26.8539 52.3503 26.8264H57.9724C58.864 26.8264 59.315 26.4016 59.315 25.5677V16.7622H62.9862V25.9663C62.9862 27.4767 62.6138 28.5885 61.8848 29.2546C61.1558 29.9206 59.9391 30.3035 58.2451 30.3035L52.1301 30.293Z" fill="white"/>
<path d="M12.1257 36.644C11.8949 36.644 11.7533 36.7856 11.6904 37.0425L9.59259 44.4897C9.39097 45.3858 8.90089 46.1909 8.19756 46.7816C7.45965 47.2952 6.57308 47.5514 5.67496 47.5105C5.12724 47.5273 4.58076 47.4493 4.05966 47.2798C3.63387 47.1437 3.23597 46.9324 2.88489 46.6557C2.56574 46.3951 2.3079 46.0674 2.12968 45.6959C1.93436 45.3186 1.80489 44.9106 1.74684 44.4897L0.0686001 34.3626C0.0327219 34.1477 0.0151739 33.9302 0.016152 33.7123H3.8289C3.82219 33.7926 3.82219 33.8733 3.8289 33.9535C3.82817 34.0492 3.84052 34.1444 3.86561 34.2367L5.28687 43.4775C5.32358 43.7765 5.48091 43.939 5.75887 43.939C5.86564 43.9432 5.97078 43.9119 6.05781 43.8499C6.15598 43.7655 6.21949 43.6478 6.23612 43.5195L8.2972 36.2611C8.48507 35.4244 8.93746 34.6704 9.58735 34.1109C10.3299 33.6114 11.2169 33.3717 12.11 33.4291C12.991 33.3621 13.8683 33.5991 14.5958 34.1004C15.2155 34.6539 15.6465 35.3874 15.8283 36.1982L17.8474 43.5405C17.8698 43.6669 17.9324 43.7827 18.0257 43.8709C18.1133 43.9276 18.2151 43.9585 18.3194 43.96C18.5764 43.96 18.7442 43.8079 18.7967 43.4985L20.3281 34.2577C20.3615 34.1636 20.3757 34.0637 20.37 33.964V33.7333H24.1408C24.1489 33.831 24.1489 33.9292 24.1408 34.027C24.1399 34.1439 24.124 34.2602 24.0936 34.3731L22.2843 44.5369C22.152 45.3786 21.7311 46.148 21.0938 46.7134C20.3049 47.3177 19.3206 47.6091 18.3299 47.5315C16.3213 47.5315 15.0416 46.5351 14.5172 44.5002L12.5505 37.053C12.4876 36.7856 12.3564 36.644 12.1257 36.644Z" fill="white"/>
<path d="M29.2433 33.7229H25.6089V47.2537H29.2433V33.7229Z" fill="white"/>
<path d="M46.1675 33.7229V37.3101H40.2517V47.2537H36.6173V37.3101H30.6753V33.7229H46.1675Z" fill="white"/>
<path d="M62.9498 33.7228V47.2535H59.3153V42.0195H51.2493V47.2326H47.5991V33.6965H51.2493V38.6001H59.3153V33.6965H62.9498V33.7228Z" fill="white"/>
<path d="M36.3497 63.9941C35.8844 63.9954 35.4245 63.8952 35.0019 63.7004C34.5847 63.5085 34.2498 63.1736 34.0579 62.7564L29.9619 54.2551C29.9396 54.2029 29.901 54.1593 29.8518 54.1309C29.8026 54.1026 29.7456 54.0909 29.6892 54.0978C29.6053 54.1045 29.5251 54.1355 29.4585 54.1869C29.4251 54.2207 29.3991 54.2609 29.3819 54.3051C29.3648 54.3493 29.3569 54.3965 29.3588 54.4439V63.7004H25.8765V53.7988C25.8495 53.1582 25.9623 52.5193 26.2069 51.9265C26.4221 51.4555 26.737 51.0368 27.1299 50.6993C27.4546 50.4578 27.8067 50.2553 28.1788 50.0962C28.6006 49.9358 29.0492 49.8574 29.5004 49.8655C30.2643 49.8259 31.0145 50.0791 31.5982 50.5735C32.1646 51.077 32.617 51.6956 32.9251 52.3881L35.9878 59.0223C36.0053 59.0973 36.0473 59.1643 36.1072 59.2128C36.167 59.2612 36.2413 59.2883 36.3182 59.2898C36.3966 59.2914 36.4731 59.2656 36.5344 59.2167C36.5957 59.1679 36.638 59.0991 36.6539 59.0223L39.7114 52.3881C40.0158 51.6949 40.4667 51.0759 41.0331 50.5735C41.6165 50.0786 42.3669 49.8253 43.1308 49.8655C43.5804 49.8575 44.0272 49.9358 44.4472 50.0962C44.8249 50.2439 45.1784 50.4472 45.4961 50.6993C45.9035 51.0229 46.2213 51.4454 46.4191 51.9265C46.6657 52.5188 46.7802 53.1578 46.7548 53.7988V63.7057H43.2724V54.4491C43.2762 54.4011 43.2686 54.3528 43.2504 54.3082C43.2322 54.2636 43.2038 54.2239 43.1676 54.1922C43.1022 54.1384 43.0213 54.1071 42.9368 54.103C42.8809 54.0946 42.8239 54.1057 42.7752 54.1343C42.7265 54.1629 42.6891 54.2074 42.6693 54.2603L38.5734 62.7617C38.3718 63.1739 38.0375 63.5064 37.6241 63.7057C37.2341 63.9079 36.7995 64.0089 36.3602 63.9994" fill="white"/>
<path d="M62.9499 50.1853V53.7725H52.6707C52.6269 53.7692 52.5829 53.7755 52.5419 53.7911C52.5008 53.8067 52.4637 53.8311 52.4332 53.8627C52.4026 53.8942 52.3794 53.9321 52.3652 53.9736C52.3509 54.0151 52.346 54.0593 52.3507 54.1029V55.6396H62.8869V58.2618H52.3507V59.9138C52.3507 60.1603 52.4504 60.2862 52.6707 60.2862H62.9499V63.7528H50.6201C49.3666 63.7528 48.7163 63.1287 48.7163 61.8858V52.0209C48.7163 50.8146 49.3666 50.201 50.6358 50.201H62.9499V50.1853Z" fill="white"/>
</svg>
