<svg width="165" height="64" viewBox="0 0 165 64" fill="none" xmlns="http://www.w3.org/2000/svg">
<path d="M11.9415 0.892822H0V12.8343H11.9415V0.892822Z" fill="white"/>
<path d="M11.6418 63.1076V20.0585H0.295166V63.0651H11.6418V63.1076ZM86.7759 63.5326V52.9934C85.1186 52.9934 83.7162 52.9084 82.6962 52.7383C81.5064 52.5684 80.6139 52.1435 80.0189 51.5484C79.4241 50.9536 79.0415 50.1036 78.829 48.9563C78.6591 47.8937 78.5741 46.4914 78.5741 44.7915V29.7902H86.7759V20.0585H78.5741V3.31467H67.2274V44.9189C67.2274 48.4462 67.5249 51.421 68.1199 53.8007C68.7149 56.1381 69.7348 58.0505 71.1371 59.4953C72.5396 60.9403 74.4095 61.9602 76.6617 62.5977C78.9565 63.235 81.8463 63.5326 85.2886 63.5326H86.7759ZM151.71 63.1076V0H140.365V63.1076H151.71ZM56.3058 24.3081C53.1611 20.9084 48.7414 19.2085 43.1318 19.2085C40.412 19.2085 37.9048 19.7609 35.695 20.866C33.4425 21.9708 31.5727 23.5006 30.0429 25.4555L29.4479 26.2629V25.5404V20.0585H18.2713V63.0651H29.5329V40.1593V41.7317C29.5329 41.4768 29.5329 41.2219 29.5329 40.9668C29.6603 36.9296 30.6377 33.9548 32.5076 32.0425C34.5049 30.0027 36.9273 28.9828 39.6897 28.9828C42.9618 28.9828 45.4692 30.0027 47.1265 31.9575C48.7414 33.9124 49.5914 36.6747 49.5914 40.2018V40.3294V63.0651H61.023V38.672C61.0655 32.5525 59.4505 27.7079 56.3058 24.3081ZM134.5 41.5193C134.5 38.4171 133.947 35.5273 132.885 32.8075C131.78 30.1301 130.251 27.7504 128.338 25.7106C126.382 23.6706 124.046 22.0983 121.326 20.9509C118.606 19.8034 115.589 19.251 112.317 19.251C109.214 19.251 106.283 19.8459 103.563 20.9934C100.843 22.1833 98.4623 23.7557 96.4658 25.7531C94.4676 27.7504 92.8534 30.1301 91.7049 32.85C90.5156 35.5698 89.9627 38.502 89.9627 41.6043C89.9627 44.7065 90.5156 47.6388 91.6214 50.3586C92.7254 53.0784 94.2987 55.4581 96.2525 57.4555C98.2081 59.4528 100.629 61.0677 103.435 62.2151C106.24 63.405 109.342 64 112.656 64C122.261 64 128.21 59.6228 131.78 55.5431L123.621 49.3387C121.92 51.3785 117.842 54.1408 112.741 54.1408C109.554 54.1408 106.919 53.4183 104.923 51.931C102.925 50.486 101.565 48.4462 100.843 45.9388L100.715 45.5564H134.5V41.5193ZM100.8 37.5671C100.8 34.4224 104.413 28.9403 112.189 28.8978C119.966 28.8978 123.621 34.3797 123.621 37.5246L100.8 37.5671ZM164.629 57.6679C164.418 57.158 164.119 56.733 163.737 56.3506C163.355 55.9682 162.93 55.6706 162.42 55.4581C161.909 55.2457 161.358 55.1182 160.805 55.1182C160.21 55.1182 159.7 55.2457 159.189 55.4581C158.681 55.6706 158.256 55.9682 157.872 56.3506C157.49 56.733 157.193 57.158 156.98 57.6679C156.768 58.178 156.64 58.7305 156.64 59.2828C156.64 59.8779 156.768 60.3877 156.98 60.8978C157.193 61.4076 157.49 61.8327 157.872 62.2151C158.256 62.5977 158.681 62.8951 159.189 63.1076C159.7 63.32 160.253 63.4475 160.805 63.4475C161.401 63.4475 161.909 63.32 162.42 63.1076C162.93 62.8951 163.355 62.5977 163.737 62.2151C164.119 61.8327 164.418 61.4076 164.629 60.8978C164.843 60.3877 164.969 59.8354 164.969 59.2828C164.969 58.7305 164.843 58.178 164.629 57.6679ZM163.95 60.6428C163.78 61.0677 163.525 61.4501 163.227 61.7477C162.93 62.0452 162.548 62.3001 162.123 62.47C161.698 62.6402 161.273 62.7252 160.763 62.7252C160.295 62.7252 159.828 62.6402 159.403 62.47C158.978 62.3001 158.596 62.0452 158.299 61.7477C158 61.4501 157.746 61.0677 157.575 60.6428C157.406 60.2178 157.321 59.7929 157.321 59.2828C157.321 58.8155 157.406 58.3479 157.575 57.923C157.746 57.498 158 57.1156 158.299 56.8181C158.596 56.5205 158.978 56.2656 159.403 56.0956C159.828 55.9257 160.253 55.8407 160.763 55.8407C161.23 55.8407 161.698 55.9257 162.123 56.0956C162.548 56.2656 162.93 56.5205 163.227 56.8181C163.525 57.1156 163.78 57.498 163.95 57.923C164.119 58.3479 164.205 58.773 164.205 59.2828C164.205 59.7929 164.119 60.2178 163.95 60.6428ZM161.57 59.6654C161.909 59.6228 162.165 59.4953 162.377 59.2828C162.59 59.0704 162.718 58.773 162.718 58.3479C162.718 57.8805 162.59 57.5404 162.293 57.2855C162.037 57.0306 161.57 56.9031 161.017 56.9031H159.149V61.7052H160.041V59.7504H160.677L161.867 61.7052H162.802L161.57 59.6654ZM161.102 58.9429C160.974 58.9429 160.848 58.9429 160.677 58.9429H160.041V57.5829H160.677C160.805 57.5829 160.933 57.5829 161.102 57.5829C161.23 57.5829 161.358 57.6254 161.485 57.6679C161.613 57.7106 161.698 57.7956 161.741 57.8805C161.826 57.9655 161.826 58.093 161.826 58.2629C161.826 58.4329 161.783 58.5604 161.741 58.6453C161.655 58.7305 161.57 58.8155 161.485 58.858C161.358 58.9004 161.23 58.9429 161.102 58.9429Z" fill="white"/>
</svg>
