<svg width="308" height="64" viewBox="0 0 308 64" fill="none" xmlns="http://www.w3.org/2000/svg">
<g clip-path="url(#clip0_14404_622)">
<path d="M279.93 13.6352C267.423 14.6059 257.558 24.7195 256.768 37.1131C255.842 51.7643 267.446 63.887 281.894 63.887C287.108 63.887 294.174 61.2909 297.357 55.8052V63.2098H307.11V39.19C307.11 23.5456 294.4 12.4839 279.93 13.6126V13.6352ZM296.409 39.5061C295.98 47.7685 288.643 54.2024 280.065 53.1414C273.496 52.3287 268.236 46.9784 267.491 40.4317C266.52 31.6726 273.338 24.2454 281.894 24.2454C289.659 24.2454 295.98 30.3406 296.387 37.9936V39.5061H296.409Z" fill="white"/>
<path d="M226.653 13.5676C213.424 13.9288 202.046 24.2456 202.046 39.0096C202.046 52.6223 213.062 64.0001 227.24 64.0001C237.127 64.0001 246.789 58.0403 250.605 48.3782L240.897 45.4886C239.137 49.4618 234.892 52.9158 230.016 53.8413C223.199 55.1055 216.923 50.9518 214.462 46.3013L252.207 36.0071C251.101 26.3225 242.591 13.1387 226.653 13.5902V13.5676ZM212.543 37.7003C212.543 32.4403 215.613 26.3902 222.431 23.8392C230.174 20.9271 236.947 24.7874 239.791 30.2279L212.543 37.7228V37.7003Z" fill="white"/>
<path d="M143.599 23.7939V13.4546C134.186 13.4546 130.844 18.0825 129.445 20.656V15.1026H118.722V63.2324H129.738C129.738 48.3555 129.716 48.6038 129.716 39.619C129.716 28.5121 136.15 24.1777 143.622 23.7939H143.599Z" fill="white"/>
<path d="M44.1566 43.8857L11.2423 5.12451H0V63.1421H11.6261V24.3584L44.9467 63.2324H55.2409V5.12451H44.1566V43.8857Z" fill="white"/>
<path d="M195.296 0H184.912V18.9178C182.451 15.667 174.753 13.0935 168.116 13.6353C155.722 14.6286 145.744 24.7196 144.954 37.1132C144.028 51.7644 155.632 63.9323 170.08 63.9323C175.475 63.9323 182.97 61.3587 185.544 56.7986V63.2325H195.251V39.2127C195.251 39.0547 195.251 38.8966 195.251 38.7386C195.251 38.5806 195.251 38.4226 195.251 38.2646V0H195.296ZM184.595 39.5062C184.167 47.7686 176.83 54.2025 168.251 53.1414C161.682 52.3288 156.422 46.9785 155.677 40.4317C154.706 31.6727 161.524 24.2455 170.08 24.2455C177.846 24.2455 184.167 30.3407 184.573 37.9937V39.5062H184.595Z" fill="white"/>
<path d="M86.9587 13.5225C73.0299 13.5225 61.7424 24.8099 61.7424 38.7387C61.7424 52.6674 73.0299 63.9549 86.9587 63.9549C100.887 63.9549 112.175 52.6674 112.175 38.7387C112.175 24.8099 100.887 13.5225 86.9587 13.5225ZM86.9361 53.2318C78.922 53.2318 72.443 46.7302 72.443 38.7387C72.443 30.7472 78.9445 24.2456 86.9361 24.2456C94.9276 24.2456 101.429 30.7472 101.429 38.7387C101.429 46.7302 94.9276 53.2318 86.9361 53.2318Z" fill="white"/>
</g>
<defs>
<clipPath id="clip0_14404_622">
<rect width="307.132" height="64" fill="white"/>
</clipPath>
</defs>
</svg>
