<svg width="405" height="64" viewBox="0 0 405 64" fill="none" xmlns="http://www.w3.org/2000/svg">
<path fill-rule="evenodd" clip-rule="evenodd" d="M1.26087 61.742V49.5649C7.19671 51.5747 13.4019 52.6771 19.6667 52.835C27.027 52.835 30.7071 50.8885 30.7071 46.9956C30.7304 46.3112 30.6031 45.6301 30.334 45.0004C30.0649 44.3707 29.6606 43.8079 29.1499 43.3518C28.0443 42.2929 25.2414 40.8447 20.71 38.9917C12.5608 35.649 7.256 32.7993 4.79566 30.4428C3.10095 28.6844 1.80183 26.5839 0.98544 24.2823C0.169051 21.9807 -0.14573 19.5311 0.0622035 17.0978C0.270137 14.6645 0.995983 12.3038 2.19105 10.1741C3.38613 8.04435 5.0228 6.19476 6.99129 4.74939C11.5694 1.63504 17.5645 0 24.93 0C30.8712 0.229866 36.7804 0.98546 42.5883 2.25791V13.9679C37.5336 11.8233 32.1168 10.6607 26.6273 10.5421C19.7134 10.5421 16.2565 12.4418 16.2565 16.2413C16.2643 16.9554 16.4616 17.6546 16.8283 18.2675C17.1949 18.8803 17.7176 19.3848 18.3431 19.7294C19.5162 20.4561 22.7136 22.0133 27.9353 24.401C35.4617 27.7333 40.4706 30.6348 42.9621 33.1056C44.4383 34.594 45.5937 36.3693 46.357 38.3217C47.1203 40.2742 47.4753 42.3624 47.4 44.4574C47.4981 47.5604 46.7354 50.6301 45.1962 53.3263C43.6571 56.0225 41.4017 58.24 38.6798 59.7333C33.9771 62.5777 27.8782 63.9999 20.383 63.9999C13.9435 63.982 7.52743 63.2244 1.26087 61.742Z" fill="white"/>
<path fill-rule="evenodd" clip-rule="evenodd" d="M57.1323 1.08984H74.3547V62.7384H57.1323V1.08984Z" fill="white"/>
<path fill-rule="evenodd" clip-rule="evenodd" d="M90.1445 62.7384V1.08984H134.322V12.2392H106.744V26.1604H130.74V36.3287H106.744V50.9662H135.022V62.7384H90.1445Z" fill="white"/>
<path fill-rule="evenodd" clip-rule="evenodd" d="M146.265 62.7384V1.08984H168.595L184.12 40.4864L200.019 1.08984H221.228V62.7384H204.893V19.0908L186.814 63.3613H176.147L158.411 19.0908V62.7384H146.265Z" fill="white"/>
<path fill-rule="evenodd" clip-rule="evenodd" d="M237.033 62.7384V1.08984H281.194V12.2392H253.632V26.1604H277.628V36.3287H253.632V50.9662H281.911V62.7384H237.033Z" fill="white"/>
<path fill-rule="evenodd" clip-rule="evenodd" d="M293.247 62.7384V1.08984H313.21L334.388 42.355V1.08984H346.518V62.7384H327.116L305.377 20.9127V62.7384H293.247Z" fill="white"/>
<path fill-rule="evenodd" clip-rule="evenodd" d="M358.742 61.7421V49.565C364.676 51.5831 370.882 52.6858 377.148 52.835C384.518 52.835 388.198 50.8886 388.188 46.9956C388.203 46.3124 388.072 45.6338 387.803 45.0054C387.535 44.377 387.135 43.8132 386.631 43.3518C385.53 42.3137 382.707 40.8604 378.16 38.9917C370.021 35.6801 364.727 32.8305 362.277 30.4428C360.702 28.9163 359.464 27.078 358.641 25.0456C357.818 23.0131 357.428 20.8312 357.496 18.6395C357.362 15.9191 357.934 13.2105 359.157 10.7766C360.379 8.34272 362.21 6.26642 364.472 4.74944C369.05 1.5728 375.035 -0.0103305 382.426 5.07222e-05C387.849 0.147347 393.246 0.809533 398.543 1.97767L400.1 2.24239V13.9524C395.031 11.8042 389.598 10.6415 384.093 10.5266C377.21 10.5266 373.769 12.4263 373.769 16.2258C373.776 16.9399 373.974 17.6391 374.34 18.252C374.707 18.8648 375.23 19.3693 375.855 19.7139C376.966 20.4094 380.174 21.9666 385.479 24.3854C392.953 27.7178 397.952 30.6193 400.474 33.09C401.947 34.5829 403.098 36.3619 403.856 38.3171C404.613 40.2722 404.963 42.3621 404.881 44.4574C404.982 47.5554 404.225 50.6211 402.695 53.3165C401.164 56.0119 398.92 58.2325 396.208 59.7333C391.484 62.5778 385.375 64 377.88 64C371.435 63.9883 365.014 63.236 358.742 61.7577V61.7421Z" fill="white"/>
</svg>
