<svg width="280" height="80" viewBox="0 0 280 80" fill="none" xmlns="http://www.w3.org/2000/svg">
<path d="M91.2031 17.0935H97.795C101.404 17.0935 103.911 18.7023 103.911 21.7691C103.917 22.524 103.729 23.2677 103.364 23.9283C103 24.5888 102.471 25.1439 101.83 25.5397C102.679 25.8082 103.414 26.351 103.922 27.0832C104.43 27.8155 104.682 28.6959 104.638 29.5868C104.638 33.5083 101.379 34.9411 97.8326 34.9411H91.2031V17.0935ZM97.8452 24.044C98.0622 24.056 98.2793 24.0207 98.4814 23.9405C98.6835 23.8603 98.8659 23.7372 99.016 23.5795C99.166 23.4218 99.2803 23.2333 99.3507 23.0271C99.4212 22.8209 99.4463 22.6018 99.4242 22.3849C99.4356 22.1701 99.3994 21.9554 99.3182 21.7563C99.2371 21.5572 99.113 21.3785 98.9548 21.2331C98.7967 21.0878 98.6085 20.9793 98.4036 20.9155C98.1988 20.8517 97.9824 20.8342 97.77 20.8641H95.5894V24.044H97.8452ZM98.2211 31.2836C98.4763 31.3079 98.7337 31.2762 98.9754 31.1908C99.2172 31.1054 99.4375 30.9682 99.6211 30.7889C99.8047 30.6095 99.9472 30.3922 100.039 30.1521C100.13 29.912 100.169 29.6548 100.151 29.3983C100.168 29.1496 100.132 28.9001 100.043 28.667C99.9552 28.4339 99.8176 28.2228 99.64 28.0483C99.4624 27.8738 99.2492 27.7401 99.015 27.6563C98.7809 27.5726 98.5314 27.5408 98.2838 27.5633H95.5894V31.3339L98.2211 31.2836Z" fill="white"/>
<path d="M120.853 16.7415C122.079 16.6988 123.302 16.9065 124.446 17.3519C125.59 17.7974 126.632 18.4713 127.509 19.3328C128.385 20.1944 129.078 21.2255 129.546 22.3638C130.013 23.502 130.245 24.7236 130.227 25.9544C130.227 28.4544 129.237 30.8521 127.474 32.6199C125.711 34.3878 123.321 35.3809 120.828 35.3809C118.335 35.3809 115.944 34.3878 114.182 32.6199C112.419 30.8521 111.429 28.4544 111.429 25.9544C111.411 24.7192 111.644 23.4933 112.114 22.3516C112.585 21.2098 113.282 20.1763 114.164 19.314C115.046 18.4518 116.094 17.7789 117.244 17.3366C118.394 16.8943 119.622 16.6918 120.853 16.7415ZM120.853 31.2835C121.527 31.2615 122.19 31.1034 122.801 30.8185C123.413 30.5337 123.961 30.128 124.412 29.6257C124.864 29.1235 125.21 28.535 125.43 27.8955C125.649 27.2561 125.738 26.5787 125.69 25.9041C125.724 25.247 125.623 24.5901 125.396 23.9731C125.168 23.3561 124.818 22.792 124.366 22.3151C123.914 21.8382 123.37 21.4585 122.767 21.199C122.164 20.9395 121.515 20.8057 120.859 20.8057C120.203 20.8057 119.554 20.9395 118.951 21.199C118.348 21.4585 117.805 21.8382 117.353 22.3151C116.901 22.792 116.55 23.3561 116.323 23.9731C116.095 24.5901 115.995 25.247 116.028 25.9041C115.973 26.5817 116.056 27.2635 116.272 27.908C116.488 28.5526 116.831 29.1466 117.282 29.6542C117.733 30.1617 118.282 30.5723 118.896 30.861C119.51 31.1497 120.175 31.3105 120.853 31.3338V31.2835Z" fill="white"/>
<path d="M146.357 16.7415C147.578 16.7008 148.795 16.9082 149.935 17.3514C151.074 17.7945 152.112 18.4642 152.986 19.3202C153.861 20.1761 154.554 21.2006 155.023 22.3321C155.493 23.4636 155.729 24.6786 155.719 25.9041C155.719 28.4042 154.728 30.8019 152.966 32.5697C151.203 34.3375 148.812 35.3306 146.319 35.3306C143.827 35.3306 141.436 34.3375 139.673 32.5697C137.911 30.8019 136.92 28.4042 136.92 25.9041C136.909 24.672 137.148 23.4505 137.622 22.3138C138.096 21.1771 138.796 20.149 139.678 19.292C140.561 18.435 141.608 17.7669 142.756 17.3285C143.904 16.89 145.13 16.6903 146.357 16.7415ZM146.357 31.2835C147.03 31.2599 147.691 31.1005 148.301 30.8149C148.912 30.5294 149.458 30.1234 149.908 29.6213C150.359 29.1193 150.704 28.5314 150.922 27.8927C151.141 27.254 151.229 26.5777 151.182 25.9041C151.215 25.247 151.115 24.5901 150.887 23.9731C150.66 23.3561 150.309 22.792 149.857 22.3151C149.405 21.8382 148.861 21.4585 148.259 21.199C147.656 20.9395 147.007 20.8057 146.351 20.8057C145.695 20.8057 145.046 20.9395 144.443 21.199C143.84 21.4585 143.296 21.8382 142.844 22.3151C142.392 22.792 142.042 23.3561 141.814 23.9731C141.586 24.5901 141.486 25.247 141.52 25.9041C141.465 26.5828 141.548 27.2655 141.765 27.9109C141.981 28.5563 142.326 29.1509 142.778 29.6586C143.23 30.1663 143.781 30.5766 144.396 30.8646C145.011 31.1525 145.678 31.3122 146.357 31.3338V31.2835Z" fill="white"/>
<path d="M163.713 17.0935H168.099V24.0189H169.891L173.651 17.0935H178.363L173.526 25.678L178.639 35.004H173.726L169.966 27.7141H168.174V35.004H163.788L163.713 17.0935Z" fill="white"/>
<path d="M186.046 17.0935H190.383V35.0542H185.996L186.046 17.0935Z" fill="white"/>
<path d="M199.656 17.0935H204.08L209.093 25.4769C209.648 26.4717 210.15 27.4954 210.597 28.5436C210.597 28.5436 210.434 26.608 210.434 25.5397V17.0935H214.82V35.0542H210.434L205.421 26.6835C204.866 25.6886 204.364 24.6649 203.917 23.6167C203.917 23.6167 204.118 25.5523 204.118 26.6835V35.0542H199.656V17.0935Z" fill="white"/>
<path d="M232.189 16.7417C234.702 16.6312 237.162 17.4851 239.07 19.1298L236.964 22.4228C235.741 21.3968 234.209 20.8126 232.615 20.7637C228.856 20.7637 227.327 23.1643 227.327 25.7912C227.278 26.4946 227.376 27.2004 227.613 27.8642C227.85 28.528 228.221 29.1353 228.704 29.6478C229.187 30.1603 229.77 30.5669 230.418 30.842C231.065 31.1171 231.762 31.2547 232.465 31.246C233.775 31.2271 235.045 30.7865 236.087 29.9892V28.6066H233.58V24.836H239.997V34.9915H236.337V34.4888C236.337 34.1117 236.337 33.7346 236.337 33.7346C234.996 34.7793 233.336 35.3296 231.638 35.2932C230.44 35.2953 229.255 35.0515 228.155 34.5767C227.055 34.1019 226.063 33.4062 225.241 32.5325C224.419 31.6588 223.784 30.6255 223.376 29.4964C222.967 28.3673 222.794 27.1662 222.865 25.9672C222.848 24.7402 223.078 23.5224 223.542 22.3869C224.006 21.2515 224.695 20.2219 225.566 19.3601C226.437 18.4983 227.472 17.8221 228.611 17.3721C229.749 16.9221 230.966 16.7077 232.189 16.7417Z" fill="white"/>
<path d="M91.4414 46.5295H93.0455V53.9828H102.52V46.5295H104.124V62.8689H102.52V55.3277H93.0455V62.8689H91.4414V46.5295Z" fill="white"/>
<path d="M120.689 46.2528C121.784 46.2494 122.867 46.4641 123.878 46.8843C124.889 47.3046 125.806 47.922 126.577 48.7009C127.347 49.4797 127.956 50.4043 128.368 51.421C128.779 52.4378 128.985 53.5264 128.973 54.6236C128.973 56.837 128.097 58.9597 126.536 60.5249C124.975 62.09 122.859 62.9692 120.652 62.9692C118.445 62.9692 116.328 62.09 114.768 60.5249C113.207 58.9597 112.331 56.837 112.331 54.6236C112.319 53.52 112.527 52.4251 112.943 51.4034C113.359 50.3817 113.975 49.4536 114.753 48.6738C115.532 47.894 116.458 47.2781 117.478 46.8623C118.497 46.4466 119.589 46.2394 120.689 46.2528ZM120.689 61.6998C121.592 61.6804 122.481 61.4812 123.306 61.1137C124.131 60.7462 124.875 60.2178 125.494 59.5592C126.114 58.9007 126.596 58.1252 126.914 57.2778C127.231 56.4305 127.378 55.5282 127.344 54.6236C127.383 53.7236 127.24 52.8251 126.923 51.982C126.607 51.139 126.123 50.369 125.502 49.7183C124.881 49.0677 124.135 48.5499 123.309 48.1961C122.483 47.8424 121.594 47.66 120.696 47.66C119.798 47.66 118.909 47.8424 118.083 48.1961C117.257 48.5499 116.51 49.0677 115.889 49.7183C115.268 50.369 114.785 51.139 114.468 51.982C114.152 52.8251 114.008 53.7236 114.047 54.6236C114.011 55.528 114.154 56.4307 114.47 57.2788C114.785 58.1268 115.266 58.9031 115.885 59.5622C116.504 60.2213 117.247 60.7499 118.072 61.1169C118.897 61.484 119.787 61.6821 120.689 61.6998Z" fill="white"/>
<path d="M137.244 46.5295H138.861V61.4738H146.38V62.9192H137.244V46.5295Z" fill="white"/>
<path d="M153.914 46.5295H159.19C164.09 46.5295 167.399 49.5335 167.399 54.7118C167.399 59.8901 164.065 62.9192 159.19 62.9192H153.914V46.5295ZM159.052 61.4738C163.075 61.4738 165.744 59.0983 165.744 54.7118C165.744 50.3253 163.025 47.9749 159.052 47.9749H155.543V61.4738H159.052Z" fill="white"/>
<path d="M175.732 46.5295H177.337V62.8689H175.732V46.5295Z" fill="white"/>
<path d="M186.697 46.5295H188.251L196.648 58.319C197.199 59.136 197.989 60.5437 197.989 60.5437C197.989 60.5437 197.851 59.1863 197.851 58.319V46.5295H199.455V62.8689H197.901L189.555 51.0669C188.991 50.2499 188.201 48.8548 188.201 48.8548C188.201 48.8548 188.339 50.2122 188.339 51.0669V62.8689H186.735L186.697 46.5295Z" fill="white"/>
<path d="M215.947 46.2529C218.033 46.189 220.074 46.8655 221.712 48.1634L220.847 49.4203C219.445 48.354 217.732 47.7799 215.972 47.7863C215.073 47.7763 214.181 47.9516 213.353 48.3013C212.524 48.651 211.775 49.1677 211.154 49.8193C210.532 50.471 210.051 51.2436 209.739 52.0895C209.428 52.9354 209.293 53.8365 209.342 54.7368C209.286 55.6303 209.412 56.5258 209.712 57.369C210.012 58.2121 210.48 58.9853 211.087 59.6414C211.694 60.2975 212.428 60.8227 213.244 61.1853C214.06 61.5478 214.942 61.74 215.834 61.7502C216.809 61.7228 217.767 61.4957 218.651 61.0829C219.534 60.67 220.324 60.0801 220.972 59.3496V56.5844H218.178V55.0888H222.501V62.9191H221.01V61.6622C221.01 61.3103 221.01 60.9584 221.01 60.9584C220.329 61.6797 219.509 62.2545 218.6 62.6478C217.691 63.0411 216.711 63.2446 215.721 63.2459C214.634 63.2351 213.561 63.005 212.564 62.5691C211.568 62.1332 210.669 61.5005 209.922 60.7087C209.174 59.917 208.594 58.9824 208.214 57.9607C207.835 56.939 207.664 55.8511 207.713 54.762C207.674 53.6552 207.859 52.5521 208.256 51.5186C208.653 50.4852 209.254 49.5429 210.023 48.7482C210.792 47.9535 211.713 47.3228 212.731 46.894C213.749 46.4652 214.843 46.2472 215.947 46.2529Z" fill="white"/>
<path d="M230.786 59.865C231.94 60.981 233.47 61.6224 235.072 61.6623C235.475 61.704 235.883 61.6618 236.269 61.5385C236.654 61.4151 237.011 61.2133 237.316 60.9455C237.62 60.6777 237.866 60.3498 238.039 59.9822C238.212 59.6146 238.307 59.2153 238.318 58.8092C238.318 54.6867 230.16 55.7424 230.16 50.6521C230.16 48.3018 232.228 46.253 235.248 46.253C236.853 46.2052 238.417 46.7713 239.622 47.8367L238.832 49.1816C237.839 48.3061 236.57 47.8118 235.248 47.7864C234.832 47.7433 234.411 47.7844 234.012 47.9074C233.612 48.0304 233.241 48.2327 232.92 48.5024C232.6 48.772 232.337 49.1035 232.147 49.4771C231.957 49.8508 231.844 50.2589 231.814 50.6772C231.814 54.561 239.973 53.4424 239.973 58.8344C239.973 61.2727 238.093 63.2585 235.022 63.2585C234.062 63.2725 233.108 63.0941 232.217 62.7337C231.326 62.3732 230.516 61.8381 229.834 61.1596L230.786 59.865Z" fill="white"/>
<path d="M41.2369 35.557C41.9222 35.557 42.4778 34.9999 42.4778 34.3127C42.4778 33.6255 41.9222 33.0684 41.2369 33.0684C40.5516 33.0684 39.9961 33.6255 39.9961 34.3127C39.9961 34.9999 40.5516 35.557 41.2369 35.557Z" fill="white"/>
<path d="M41.2369 29.8634C41.9222 29.8634 42.4778 29.3063 42.4778 28.6191C42.4778 27.9318 41.9222 27.3748 41.2369 27.3748C40.5516 27.3748 39.9961 27.9318 39.9961 28.6191C39.9961 29.3063 40.5516 29.8634 41.2369 29.8634Z" fill="white"/>
<path d="M41.2369 24.1822C41.9222 24.1822 42.4778 23.6251 42.4778 22.9379C42.4778 22.2507 41.9222 21.6936 41.2369 21.6936C40.5516 21.6936 39.9961 22.2507 39.9961 22.9379C39.9961 23.6251 40.5516 24.1822 41.2369 24.1822Z" fill="white"/>
<path d="M41.2369 18.4886C41.9222 18.4886 42.4778 17.9315 42.4778 17.2443C42.4778 16.5571 41.9222 16 41.2369 16C40.5516 16 39.9961 16.5571 39.9961 17.2443C39.9961 17.9315 40.5516 18.4886 41.2369 18.4886Z" fill="white"/>
<path d="M45.649 35.557C46.3343 35.557 46.8899 34.9999 46.8899 34.3127C46.8899 33.6255 46.3343 33.0684 45.649 33.0684C44.9637 33.0684 44.4082 33.6255 44.4082 34.3127C44.4082 34.9999 44.9637 35.557 45.649 35.557Z" fill="white"/>
<path d="M45.649 29.8634C46.3343 29.8634 46.8899 29.3063 46.8899 28.6191C46.8899 27.9318 46.3343 27.3748 45.649 27.3748C44.9637 27.3748 44.4082 27.9318 44.4082 28.6191C44.4082 29.3063 44.9637 29.8634 45.649 29.8634Z" fill="white"/>
<path d="M45.649 24.1822C46.3343 24.1822 46.8899 23.6251 46.8899 22.9379C46.8899 22.2507 46.3343 21.6936 45.649 21.6936C44.9637 21.6936 44.4082 22.2507 44.4082 22.9379C44.4082 23.6251 44.9637 24.1822 45.649 24.1822Z" fill="white"/>
<path d="M45.649 18.4886C46.3343 18.4886 46.8899 17.9315 46.8899 17.2443C46.8899 16.5571 46.3343 16 45.649 16C44.9637 16 44.4082 16.5571 44.4082 17.2443C44.4082 17.9315 44.9637 18.4886 45.649 18.4886Z" fill="white"/>
<path d="M50.0572 35.557C50.7425 35.557 51.2981 34.9999 51.2981 34.3127C51.2981 33.6255 50.7425 33.0684 50.0572 33.0684C49.3719 33.0684 48.8164 33.6255 48.8164 34.3127C48.8164 34.9999 49.3719 35.557 50.0572 35.557Z" fill="white"/>
<path d="M50.0572 29.8634C50.7425 29.8634 51.2981 29.3063 51.2981 28.6191C51.2981 27.9318 50.7425 27.3748 50.0572 27.3748C49.3719 27.3748 48.8164 27.9318 48.8164 28.6191C48.8164 29.3063 49.3719 29.8634 50.0572 29.8634Z" fill="white"/>
<path d="M50.0572 24.1822C50.7425 24.1822 51.2981 23.6251 51.2981 22.9379C51.2981 22.2507 50.7425 21.6936 50.0572 21.6936C49.3719 21.6936 48.8164 22.2507 48.8164 22.9379C48.8164 23.6251 49.3719 24.1822 50.0572 24.1822Z" fill="white"/>
<path d="M50.0572 18.4886C50.7425 18.4886 51.2981 17.9315 51.2981 17.2443C51.2981 16.5571 50.7425 16 50.0572 16C49.3719 16 48.8164 16.5571 48.8164 17.2443C48.8164 17.9315 49.3719 18.4886 50.0572 18.4886Z" fill="white"/>
<path d="M54.4713 35.557C55.1566 35.557 55.7121 34.9999 55.7121 34.3127C55.7121 33.6255 55.1566 33.0684 54.4713 33.0684C53.786 33.0684 53.2305 33.6255 53.2305 34.3127C53.2305 34.9999 53.786 35.557 54.4713 35.557Z" fill="white"/>
<path d="M58.8815 35.557C59.5668 35.557 60.1223 34.9999 60.1223 34.3127C60.1223 33.6255 59.5668 33.0684 58.8815 33.0684C58.1962 33.0684 57.6406 33.6255 57.6406 34.3127C57.6406 34.9999 58.1962 35.557 58.8815 35.557Z" fill="white"/>
<path d="M58.8815 29.8634C59.5668 29.8634 60.1223 29.3063 60.1223 28.6191C60.1223 27.9318 59.5668 27.3748 58.8815 27.3748C58.1962 27.3748 57.6406 27.9318 57.6406 28.6191C57.6406 29.3063 58.1962 29.8634 58.8815 29.8634Z" fill="white"/>
<path d="M58.8815 24.1822C59.5668 24.1822 60.1223 23.6251 60.1223 22.9379C60.1223 22.2507 59.5668 21.6936 58.8815 21.6936C58.1962 21.6936 57.6406 22.2507 57.6406 22.9379C57.6406 23.6251 58.1962 24.1822 58.8815 24.1822Z" fill="white"/>
<path d="M58.8815 18.4886C59.5668 18.4886 60.1223 17.9315 60.1223 17.2443C60.1223 16.5571 59.5668 16 58.8815 16C58.1962 16 57.6406 16.5571 57.6406 17.2443C57.6406 17.9315 58.1962 18.4886 58.8815 18.4886Z" fill="white"/>
<path d="M63.2955 35.557C63.9808 35.557 64.5364 34.9999 64.5364 34.3127C64.5364 33.6255 63.9808 33.0684 63.2955 33.0684C62.6102 33.0684 62.0547 33.6255 62.0547 34.3127C62.0547 34.9999 62.6102 35.557 63.2955 35.557Z" fill="white"/>
<path d="M63.2955 29.8634C63.9808 29.8634 64.5364 29.3063 64.5364 28.6191C64.5364 27.9318 63.9808 27.3748 63.2955 27.3748C62.6102 27.3748 62.0547 27.9318 62.0547 28.6191C62.0547 29.3063 62.6102 29.8634 63.2955 29.8634Z" fill="white"/>
<path d="M63.2955 24.1822C63.9808 24.1822 64.5364 23.6251 64.5364 22.9379C64.5364 22.2507 63.9808 21.6936 63.2955 21.6936C62.6102 21.6936 62.0547 22.2507 62.0547 22.9379C62.0547 23.6251 62.6102 24.1822 63.2955 24.1822Z" fill="white"/>
<path d="M63.2955 18.4886C63.9808 18.4886 64.5364 17.9315 64.5364 17.2443C64.5364 16.5571 63.9808 16 63.2955 16C62.6102 16 62.0547 16.5571 62.0547 17.2443C62.0547 17.9315 62.6102 18.4886 63.2955 18.4886Z" fill="white"/>
<path d="M67.7037 35.557C68.389 35.557 68.9446 34.9999 68.9446 34.3127C68.9446 33.6255 68.389 33.0684 67.7037 33.0684C67.0184 33.0684 66.4629 33.6255 66.4629 34.3127C66.4629 34.9999 67.0184 35.557 67.7037 35.557Z" fill="white"/>
<path d="M67.7037 29.8634C68.389 29.8634 68.9446 29.3063 68.9446 28.6191C68.9446 27.9318 68.389 27.3748 67.7037 27.3748C67.0184 27.3748 66.4629 27.9318 66.4629 28.6191C66.4629 29.3063 67.0184 29.8634 67.7037 29.8634Z" fill="white"/>
<path d="M67.7037 24.1822C68.389 24.1822 68.9446 23.6251 68.9446 22.9379C68.9446 22.2507 68.389 21.6936 67.7037 21.6936C67.0184 21.6936 66.4629 22.2507 66.4629 22.9379C66.4629 23.6251 67.0184 24.1822 67.7037 24.1822Z" fill="white"/>
<path d="M67.7037 18.4886C68.389 18.4886 68.9446 17.9315 68.9446 17.2443C68.9446 16.5571 68.389 16 67.7037 16C67.0184 16 66.4629 16.5571 66.4629 17.2443C66.4629 17.9315 67.0184 18.4886 67.7037 18.4886Z" fill="white"/>
<path d="M72.1158 35.557C72.8011 35.557 73.3567 34.9999 73.3567 34.3127C73.3567 33.6255 72.8011 33.0684 72.1158 33.0684C71.4305 33.0684 70.875 33.6255 70.875 34.3127C70.875 34.9999 71.4305 35.557 72.1158 35.557Z" fill="white"/>
<path d="M72.1158 29.8634C72.8011 29.8634 73.3567 29.3063 73.3567 28.6191C73.3567 27.9318 72.8011 27.3748 72.1158 27.3748C71.4305 27.3748 70.875 27.9318 70.875 28.6191C70.875 29.3063 71.4305 29.8634 72.1158 29.8634Z" fill="white"/>
<path d="M72.1158 24.1822C72.8011 24.1822 73.3567 23.6251 73.3567 22.9379C73.3567 22.2507 72.8011 21.6936 72.1158 21.6936C71.4305 21.6936 70.875 22.2507 70.875 22.9379C70.875 23.6251 71.4305 24.1822 72.1158 24.1822Z" fill="white"/>
<path d="M54.4713 29.8634C55.1566 29.8634 55.7121 29.3063 55.7121 28.6191C55.7121 27.9318 55.1566 27.3748 54.4713 27.3748C53.786 27.3748 53.2305 27.9318 53.2305 28.6191C53.2305 29.3063 53.786 29.8634 54.4713 29.8634Z" fill="white"/>
<path d="M54.4713 24.1822C55.1566 24.1822 55.7121 23.6251 55.7121 22.9379C55.7121 22.2507 55.1566 21.6936 54.4713 21.6936C53.786 21.6936 53.2305 22.2507 53.2305 22.9379C53.2305 23.6251 53.786 24.1822 54.4713 24.1822Z" fill="white"/>
<path d="M54.4713 18.4886C55.1566 18.4886 55.7121 17.9315 55.7121 17.2443C55.7121 16.5571 55.1566 16 54.4713 16C53.786 16 53.2305 16.5571 53.2305 17.2443C53.2305 17.9315 53.786 18.4886 54.4713 18.4886Z" fill="white"/>
<path d="M41.2369 41.2379C41.9222 41.2379 42.4778 40.6808 42.4778 39.9936C42.4778 39.3064 41.9222 38.7493 41.2369 38.7493C40.5516 38.7493 39.9961 39.3064 39.9961 39.9936C39.9961 40.6808 40.5516 41.2379 41.2369 41.2379Z" fill="white"/>
<path d="M41.2369 46.9317C41.9222 46.9317 42.4778 46.3746 42.4778 45.6874C42.4778 45.0002 41.9222 44.4431 41.2369 44.4431C40.5516 44.4431 39.9961 45.0002 39.9961 45.6874C39.9961 46.3746 40.5516 46.9317 41.2369 46.9317Z" fill="white"/>
<path d="M41.2369 52.6253C41.9222 52.6253 42.4778 52.0682 42.4778 51.381C42.4778 50.6938 41.9222 50.1367 41.2369 50.1367C40.5516 50.1367 39.9961 50.6938 39.9961 51.381C39.9961 52.0682 40.5516 52.6253 41.2369 52.6253Z" fill="white"/>
<path d="M41.2369 58.3062C41.9222 58.3062 42.4778 57.7491 42.4778 57.0619C42.4778 56.3747 41.9222 55.8176 41.2369 55.8176C40.5516 55.8176 39.9961 56.3747 39.9961 57.0619C39.9961 57.7491 40.5516 58.3062 41.2369 58.3062Z" fill="white"/>
<path d="M41.2369 64.0001C41.9222 64.0001 42.4778 63.443 42.4778 62.7558C42.4778 62.0686 41.9222 61.5115 41.2369 61.5115C40.5516 61.5115 39.9961 62.0686 39.9961 62.7558C39.9961 63.443 40.5516 64.0001 41.2369 64.0001Z" fill="white"/>
<path d="M45.649 41.2379C46.3343 41.2379 46.8899 40.6808 46.8899 39.9936C46.8899 39.3064 46.3343 38.7493 45.649 38.7493C44.9637 38.7493 44.4082 39.3064 44.4082 39.9936C44.4082 40.6808 44.9637 41.2379 45.649 41.2379Z" fill="white"/>
<path d="M45.649 46.9317C46.3343 46.9317 46.8899 46.3746 46.8899 45.6874C46.8899 45.0002 46.3343 44.4431 45.649 44.4431C44.9637 44.4431 44.4082 45.0002 44.4082 45.6874C44.4082 46.3746 44.9637 46.9317 45.649 46.9317Z" fill="white"/>
<path d="M45.649 52.6253C46.3343 52.6253 46.8899 52.0682 46.8899 51.381C46.8899 50.6938 46.3343 50.1367 45.649 50.1367C44.9637 50.1367 44.4082 50.6938 44.4082 51.381C44.4082 52.0682 44.9637 52.6253 45.649 52.6253Z" fill="white"/>
<path d="M45.649 58.3062C46.3343 58.3062 46.8899 57.7491 46.8899 57.0619C46.8899 56.3747 46.3343 55.8176 45.649 55.8176C44.9637 55.8176 44.4082 56.3747 44.4082 57.0619C44.4082 57.7491 44.9637 58.3062 45.649 58.3062Z" fill="white"/>
<path d="M45.649 64.0001C46.3343 64.0001 46.8899 63.443 46.8899 62.7558C46.8899 62.0686 46.3343 61.5115 45.649 61.5115C44.9637 61.5115 44.4082 62.0686 44.4082 62.7558C44.4082 63.443 44.9637 64.0001 45.649 64.0001Z" fill="white"/>
<path d="M50.0572 41.2379C50.7425 41.2379 51.2981 40.6808 51.2981 39.9936C51.2981 39.3064 50.7425 38.7493 50.0572 38.7493C49.3719 38.7493 48.8164 39.3064 48.8164 39.9936C48.8164 40.6808 49.3719 41.2379 50.0572 41.2379Z" fill="white"/>
<path d="M50.0572 46.9317C50.7425 46.9317 51.2981 46.3746 51.2981 45.6874C51.2981 45.0002 50.7425 44.4431 50.0572 44.4431C49.3719 44.4431 48.8164 45.0002 48.8164 45.6874C48.8164 46.3746 49.3719 46.9317 50.0572 46.9317Z" fill="white"/>
<path d="M50.0572 52.6253C50.7425 52.6253 51.2981 52.0682 51.2981 51.381C51.2981 50.6938 50.7425 50.1367 50.0572 50.1367C49.3719 50.1367 48.8164 50.6938 48.8164 51.381C48.8164 52.0682 49.3719 52.6253 50.0572 52.6253Z" fill="white"/>
<path d="M50.0572 58.3062C50.7425 58.3062 51.2981 57.7491 51.2981 57.0619C51.2981 56.3747 50.7425 55.8176 50.0572 55.8176C49.3719 55.8176 48.8164 56.3747 48.8164 57.0619C48.8164 57.7491 49.3719 58.3062 50.0572 58.3062Z" fill="white"/>
<path d="M50.0572 64.0001C50.7425 64.0001 51.2981 63.443 51.2981 62.7558C51.2981 62.0686 50.7425 61.5115 50.0572 61.5115C49.3719 61.5115 48.8164 62.0686 48.8164 62.7558C48.8164 63.443 49.3719 64.0001 50.0572 64.0001Z" fill="white"/>
<path d="M54.4713 41.2379C55.1566 41.2379 55.7121 40.6808 55.7121 39.9936C55.7121 39.3064 55.1566 38.7493 54.4713 38.7493C53.786 38.7493 53.2305 39.3064 53.2305 39.9936C53.2305 40.6808 53.786 41.2379 54.4713 41.2379Z" fill="white"/>
<path d="M54.4713 46.9317C55.1566 46.9317 55.7121 46.3746 55.7121 45.6874C55.7121 45.0002 55.1566 44.4431 54.4713 44.4431C53.786 44.4431 53.2305 45.0002 53.2305 45.6874C53.2305 46.3746 53.786 46.9317 54.4713 46.9317Z" fill="white"/>
<path d="M58.8815 46.9317C59.5668 46.9317 60.1223 46.3746 60.1223 45.6874C60.1223 45.0002 59.5668 44.4431 58.8815 44.4431C58.1962 44.4431 57.6406 45.0002 57.6406 45.6874C57.6406 46.3746 58.1962 46.9317 58.8815 46.9317Z" fill="white"/>
<path d="M58.8815 52.6253C59.5668 52.6253 60.1223 52.0682 60.1223 51.381C60.1223 50.6938 59.5668 50.1367 58.8815 50.1367C58.1962 50.1367 57.6406 50.6938 57.6406 51.381C57.6406 52.0682 58.1962 52.6253 58.8815 52.6253Z" fill="white"/>
<path d="M58.8815 58.3062C59.5668 58.3062 60.1223 57.7491 60.1223 57.0619C60.1223 56.3747 59.5668 55.8176 58.8815 55.8176C58.1962 55.8176 57.6406 56.3747 57.6406 57.0619C57.6406 57.7491 58.1962 58.3062 58.8815 58.3062Z" fill="white"/>
<path d="M58.8815 64.0001C59.5668 64.0001 60.1223 63.443 60.1223 62.7558C60.1223 62.0686 59.5668 61.5115 58.8815 61.5115C58.1962 61.5115 57.6406 62.0686 57.6406 62.7558C57.6406 63.443 58.1962 64.0001 58.8815 64.0001Z" fill="white"/>
<path d="M63.2955 46.9317C63.9808 46.9317 64.5364 46.3746 64.5364 45.6874C64.5364 45.0002 63.9808 44.4431 63.2955 44.4431C62.6102 44.4431 62.0547 45.0002 62.0547 45.6874C62.0547 46.3746 62.6102 46.9317 63.2955 46.9317Z" fill="white"/>
<path d="M63.2955 52.6253C63.9808 52.6253 64.5364 52.0682 64.5364 51.381C64.5364 50.6938 63.9808 50.1367 63.2955 50.1367C62.6102 50.1367 62.0547 50.6938 62.0547 51.381C62.0547 52.0682 62.6102 52.6253 63.2955 52.6253Z" fill="white"/>
<path d="M63.2955 58.3062C63.9808 58.3062 64.5364 57.7491 64.5364 57.0619C64.5364 56.3747 63.9808 55.8176 63.2955 55.8176C62.6102 55.8176 62.0547 56.3747 62.0547 57.0619C62.0547 57.7491 62.6102 58.3062 63.2955 58.3062Z" fill="white"/>
<path d="M63.2955 64.0001C63.9808 64.0001 64.5364 63.443 64.5364 62.7558C64.5364 62.0686 63.9808 61.5115 63.2955 61.5115C62.6102 61.5115 62.0547 62.0686 62.0547 62.7558C62.0547 63.443 62.6102 64.0001 63.2955 64.0001Z" fill="white"/>
<path d="M67.7037 46.9317C68.389 46.9317 68.9446 46.3746 68.9446 45.6874C68.9446 45.0002 68.389 44.4431 67.7037 44.4431C67.0184 44.4431 66.4629 45.0002 66.4629 45.6874C66.4629 46.3746 67.0184 46.9317 67.7037 46.9317Z" fill="white"/>
<path d="M67.7037 52.6253C68.389 52.6253 68.9446 52.0682 68.9446 51.381C68.9446 50.6938 68.389 50.1367 67.7037 50.1367C67.0184 50.1367 66.4629 50.6938 66.4629 51.381C66.4629 52.0682 67.0184 52.6253 67.7037 52.6253Z" fill="white"/>
<path d="M67.7037 58.3062C68.389 58.3062 68.9446 57.7491 68.9446 57.0619C68.9446 56.3747 68.389 55.8176 67.7037 55.8176C67.0184 55.8176 66.4629 56.3747 66.4629 57.0619C66.4629 57.7491 67.0184 58.3062 67.7037 58.3062Z" fill="white"/>
<path d="M67.7037 64.0001C68.389 64.0001 68.9446 63.443 68.9446 62.7558C68.9446 62.0686 68.389 61.5115 67.7037 61.5115C67.0184 61.5115 66.4629 62.0686 66.4629 62.7558C66.4629 63.443 67.0184 64.0001 67.7037 64.0001Z" fill="white"/>
<path d="M72.1158 46.9317C72.8011 46.9317 73.3567 46.3746 73.3567 45.6874C73.3567 45.0002 72.8011 44.4431 72.1158 44.4431C71.4305 44.4431 70.875 45.0002 70.875 45.6874C70.875 46.3746 71.4305 46.9317 72.1158 46.9317Z" fill="white"/>
<path d="M72.1158 52.6253C72.8011 52.6253 73.3567 52.0682 73.3567 51.381C73.3567 50.6938 72.8011 50.1367 72.1158 50.1367C71.4305 50.1367 70.875 50.6938 70.875 51.381C70.875 52.0682 71.4305 52.6253 72.1158 52.6253Z" fill="white"/>
<path d="M58.8815 41.2379C59.5668 41.2379 60.1223 40.6808 60.1223 39.9936C60.1223 39.3064 59.5668 38.7493 58.8815 38.7493C58.1962 38.7493 57.6406 39.3064 57.6406 39.9936C57.6406 40.6808 58.1962 41.2379 58.8815 41.2379Z" fill="white"/>
<path d="M63.2955 41.2379C63.9808 41.2379 64.5364 40.6808 64.5364 39.9936C64.5364 39.3064 63.9808 38.7493 63.2955 38.7493C62.6102 38.7493 62.0547 39.3064 62.0547 39.9936C62.0547 40.6808 62.6102 41.2379 63.2955 41.2379Z" fill="white"/>
<path d="M67.7037 41.2379C68.389 41.2379 68.9446 40.6808 68.9446 39.9936C68.9446 39.3064 68.389 38.7493 67.7037 38.7493C67.0184 38.7493 66.4629 39.3064 66.4629 39.9936C66.4629 40.6808 67.0184 41.2379 67.7037 41.2379Z" fill="white"/>
<path d="M72.1158 58.3062C72.8011 58.3062 73.3567 57.7491 73.3567 57.0619C73.3567 56.3747 72.8011 55.8176 72.1158 55.8176C71.4305 55.8176 70.875 56.3747 70.875 57.0619C70.875 57.7491 71.4305 58.3062 72.1158 58.3062Z" fill="white"/>
<path d="M54.4713 52.6253C55.1566 52.6253 55.7121 52.0682 55.7121 51.381C55.7121 50.6938 55.1566 50.1367 54.4713 50.1367C53.786 50.1367 53.2305 50.6938 53.2305 51.381C53.2305 52.0682 53.786 52.6253 54.4713 52.6253Z" fill="white"/>
<path d="M54.4713 58.3062C55.1566 58.3062 55.7121 57.7491 55.7121 57.0619C55.7121 56.3747 55.1566 55.8176 54.4713 55.8176C53.786 55.8176 53.2305 56.3747 53.2305 57.0619C53.2305 57.7491 53.786 58.3062 54.4713 58.3062Z" fill="white"/>
<path d="M54.4713 64.0001C55.1566 64.0001 55.7121 63.443 55.7121 62.7558C55.7121 62.0686 55.1566 61.5115 54.4713 61.5115C53.786 61.5115 53.2305 62.0686 53.2305 62.7558C53.2305 63.443 53.786 64.0001 54.4713 64.0001Z" fill="white"/>
</svg>
