<svg width="147" height="44" viewBox="0 0 147 44" fill="none" xmlns="http://www.w3.org/2000/svg">
<rect width="146.111" height="44" rx="4" fill="#5865F2"/>
<g clip-path="url(#clip0_16133_12878)">
<path d="M35.6525 15.34C34.2654 14.705 32.8012 14.2545 31.2971 14C31.0913 14.3679 30.9051 14.7465 30.7392 15.1341C29.1371 14.8927 27.5078 14.8927 25.9057 15.1341C25.7397 14.7465 25.5535 14.368 25.3478 14C23.8427 14.2566 22.3775 14.7082 20.9891 15.3433C18.2328 19.4213 17.4856 23.3981 17.8592 27.3184C19.4734 28.511 21.2801 29.418 23.2008 30C23.6333 29.4183 24.016 28.8012 24.3449 28.1553C23.7203 27.922 23.1174 27.6342 22.5433 27.2951C22.6944 27.1856 22.8422 27.0726 22.985 26.9631C24.6555 27.7487 26.4789 28.156 28.3249 28.156C30.171 28.156 31.9943 27.7487 33.6649 26.9631C33.8094 27.0809 33.9571 27.1939 34.1066 27.2951C33.5314 27.6347 32.9274 27.9231 32.3017 28.1569C32.6301 28.8026 33.0129 29.4192 33.4457 30C35.3681 29.4204 37.1762 28.5138 38.7907 27.32C39.229 22.7738 38.0418 18.8335 35.6525 15.34ZM24.8181 24.9074C23.777 24.9074 22.9169 23.9626 22.9169 22.8003C22.9169 21.638 23.7471 20.6849 24.8148 20.6849C25.8824 20.6849 26.7359 21.638 26.7176 22.8003C26.6994 23.9626 25.8791 24.9074 24.8181 24.9074ZM31.8318 24.9074C30.789 24.9074 29.9322 23.9626 29.9322 22.8003C29.9322 21.638 30.7625 20.6849 31.8318 20.6849C32.9011 20.6849 33.7479 21.638 33.7297 22.8003C33.7114 23.9626 32.8928 24.9074 31.8318 24.9074Z" fill="white"/>
</g>
<path d="M51.5213 18.032H49.4633V24.388C49.4633 25.956 48.9873 26.306 47.9793 26.306C47.8113 26.306 47.5453 26.278 47.3213 26.236V27.986C47.5593 28.056 47.9093 28.098 48.2313 28.098C50.5273 28.098 51.5213 27.062 51.5213 24.822V18.032ZM56.7238 20.664C54.4978 20.664 53.0838 22.134 53.0838 24.444C53.0838 26.754 54.4978 28.224 56.7238 28.224C58.9498 28.224 60.3638 26.754 60.3638 24.444C60.3638 22.134 58.9498 20.664 56.7238 20.664ZM56.7238 22.176C57.6898 22.176 58.3058 23.058 58.3058 24.444C58.3058 25.83 57.6898 26.712 56.7238 26.712C55.7578 26.712 55.1418 25.83 55.1418 24.444C55.1418 23.058 55.7578 22.176 56.7238 22.176ZM63.7636 19.712V18.032H61.8036V19.712H63.7636ZM63.7636 28V20.888H61.8036V28H63.7636ZM69.6207 20.72C68.7107 20.72 67.9967 21.154 67.5347 21.784H67.5067V20.888H65.6727V28H67.6327V24.192C67.6327 22.904 68.2207 22.26 69.0327 22.26C69.8027 22.26 70.2787 22.75 70.2787 23.828V28H72.2387V23.632C72.2387 21.7 71.2167 20.72 69.6207 20.72ZM77.4898 18.032V28H80.8078C84.1958 28 86.0998 26.208 86.0998 23.016C86.0998 19.824 84.1958 18.032 80.8078 18.032H77.4898ZM79.5338 19.796H80.7798C82.9218 19.796 83.9718 20.86 83.9718 23.016C83.9718 25.172 82.9218 26.236 80.7798 26.236H79.5338V19.796ZM89.535 19.712V18.032H87.575V19.712H89.535ZM89.535 28V20.888H87.575V28H89.535ZM94.0902 20.664C92.3262 20.664 91.1502 21.574 91.1502 22.848C91.1502 24.5 92.4242 24.78 93.6142 25.088C94.7202 25.382 95.2522 25.508 95.2522 26.124C95.2522 26.544 94.9022 26.81 94.2162 26.81C93.4042 26.81 92.9702 26.404 92.9702 25.69H90.9822C90.9822 27.412 92.2002 28.224 94.1742 28.224C96.1062 28.224 97.3102 27.328 97.3102 25.998C97.3102 24.262 95.9102 23.94 94.6362 23.604C93.5582 23.324 93.1102 23.198 93.1102 22.694C93.1102 22.288 93.4462 22.036 94.0762 22.036C94.7762 22.036 95.1962 22.344 95.1962 23.072H97.0722C97.0722 21.49 95.9522 20.664 94.0902 20.664ZM101.963 20.664C99.7927 20.664 98.3787 22.148 98.3787 24.444C98.3787 26.74 99.7927 28.224 101.963 28.224C103.881 28.224 105.169 27.02 105.323 25.214H103.265C103.209 26.138 102.705 26.712 101.949 26.712C100.997 26.712 100.423 25.844 100.423 24.444C100.423 23.044 100.997 22.176 101.949 22.176C102.705 22.176 103.209 22.694 103.279 23.534H105.323C105.169 21.868 103.881 20.664 101.963 20.664ZM109.962 20.664C107.736 20.664 106.322 22.134 106.322 24.444C106.322 26.754 107.736 28.224 109.962 28.224C112.188 28.224 113.602 26.754 113.602 24.444C113.602 22.134 112.188 20.664 109.962 20.664ZM109.962 22.176C110.928 22.176 111.544 23.058 111.544 24.444C111.544 25.83 110.928 26.712 109.962 26.712C108.996 26.712 108.38 25.83 108.38 24.444C108.38 23.058 108.996 22.176 109.962 22.176ZM118.822 20.776C117.982 20.776 117.352 21.126 116.876 21.896H116.848V20.888H115.042V28H117.002V24.64C117.002 23.24 117.646 22.484 118.85 22.484C119.046 22.484 119.242 22.512 119.466 22.554V20.86C119.27 20.804 119.018 20.776 118.822 20.776ZM126.828 28V18.032H124.868V21.742H124.84C124.406 21.07 123.636 20.706 122.824 20.706C121.046 20.706 119.898 22.176 119.898 24.444C119.898 26.712 121.06 28.182 122.852 28.182C123.678 28.182 124.462 27.79 124.896 27.062H124.924V28H126.828ZM123.482 22.204C124.364 22.204 124.966 23.03 124.966 24.444C124.966 25.858 124.364 26.684 123.482 26.684C122.544 26.684 121.942 25.802 121.942 24.444C121.942 23.086 122.544 22.204 123.482 22.204Z" fill="white"/>
<defs>
<clipPath id="clip0_16133_12878">
<rect width="21.1108" height="16" fill="white" transform="translate(18 14)"/>
</clipPath>
</defs>
</svg>
