<svg width="614" height="215" viewBox="0 0 614 215" fill="none" xmlns="http://www.w3.org/2000/svg">
<path d="M1 214L33.5434 206.548C42.6875 204.454 52.2245 204.835 61.1723 207.652V207.652C74.1122 211.727 88.0046 210.219 100.994 206.306C106.67 204.597 112.486 203.35 117.269 203.35C128.685 203.35 145.632 198.025 152.679 195.362L164.829 191.962C181.892 187.186 202.56 182.786 215.041 195.362V195.362C222.969 203.35 233.539 206.545 247.808 207.077C262.078 207.61 270.534 203.35 282.689 203.35C282.939 203.35 283.197 203.342 283.464 203.326C314.38 201.467 334.59 156.686 365.135 161.815V161.815C380.99 164.477 366.72 168.738 385.218 178.855C403.715 188.973 417.984 191.103 433.839 178.855C449.694 166.608 456.036 160.218 465.021 153.295C474.005 146.373 488.275 131.463 500.959 120.813C513.642 110.163 523.684 103.24 533.725 97.9152C543.767 92.5902 541.124 93.6552 556.979 80.3426C572.834 67.0301 582.876 54.2501 590.803 40.4051C597.145 29.329 608.244 9.52001 613 1" stroke="#9FEF00" stroke-width="2" stroke-linecap="round"/>
</svg>
