<svg width="280" height="80" viewBox="0 0 280 80" fill="none" xmlns="http://www.w3.org/2000/svg">
<path d="M33.3061 35.2275C33.1236 35.2275 32.9701 35.2322 32.8838 35.2418C32.7829 35.4243 32.6342 35.669 32.4133 36.0098C35.8497 36.0098 38.9694 36.2929 42.42 36.912L41.4458 37.8527C38.331 37.3008 35.7441 37.0801 32.447 37.0801C31.9671 37.0801 31.8663 37.0801 31.7511 37.0849C31.6359 37.2576 31.3767 37.5935 31.1176 37.9056C31.4103 37.8864 31.9767 37.8768 32.7589 37.8768C35.4706 37.8768 38.0046 38.0783 40.7547 38.5199L39.7804 39.4654C37.6879 39.139 35.1298 38.9518 32.8357 38.9518C32.0198 38.9518 31.0936 38.9806 30.2633 39.0286C30.0761 39.2446 29.5866 39.7725 29.4378 39.9357C30.5368 39.8205 31.7463 39.7677 33.1861 39.7677C35.2355 39.7677 37.1936 39.9021 39.0461 40.1757L38.0718 41.1115C36.752 40.9484 35.149 40.8524 33.7332 40.8524C30.0809 40.8524 27.2013 41.6442 24.2256 43.4632C27.0621 46.506 31.7079 48.4306 36.2097 48.4306H36.632L35.0579 49.9522C28.5643 48.733 21.73 45.8773 15.9564 41.9657C10.4035 38.2175 8.45978 37.1089 4.12598 35.194L4.09719 34.0804L7.02959 35.3379L8.02787 34.546L17.6025 38.9326L16.9786 39.4317L12.0641 37.2961L11.5794 37.6752L14.1327 39.1006C16.2876 40.3005 17.9289 40.838 19.4456 40.838C22.7619 40.838 25.7375 38.4863 27.6572 34.3541C29.1019 34.1668 30.6425 34.0804 32.495 34.0804C36.2961 34.0804 39.9867 34.4452 44.167 35.2275L43.1495 36.2113C40.5483 35.669 36.1281 35.2275 33.3061 35.2275ZM24.0001 62.5599C11.5441 62.5599 1.44012 52.4558 1.44012 39.9999C1.44012 27.5439 11.5441 17.4398 24.0001 17.4398C36.456 17.4398 46.56 27.5439 46.56 39.9999C46.56 52.4558 36.456 62.5599 24.0001 62.5599ZM24.0001 15.9999C10.7282 15.9999 0 26.7279 0 39.9999C0 53.2719 10.7282 64 24.0001 64C37.2721 64 48.0001 53.2719 48.0001 39.9999C48.0001 26.7279 37.2721 15.9999 24.0001 15.9999ZM87.4057 49.5543H101.166V56H80.0001V23.9998H87.4057V49.5543ZM117.806 32.9599H124.709V56H118.217V53.3486C117.257 55.1314 115.292 56.6856 111.68 56.6856C105.783 56.6856 102.72 54.0342 102.72 46.4456V32.9599H109.623V46.1255C109.623 49.1885 110.949 50.5598 113.737 50.5598C116.252 50.5598 117.806 49.1885 117.806 46.1255V32.9599ZM130.012 32.0914C130.012 26.5144 133.532 23.5427 139.063 23.5427C140.846 23.5427 141.989 23.817 141.989 23.817V29.3941C141.989 29.3941 141.029 29.303 140.206 29.303C138.057 29.303 136.914 30.0344 136.914 32.0457V32.9599H141.989V38.5828H136.914V56H130.012V38.5828H126.537V32.9599H130.012V32.0914ZM154.148 32.9599H159.405V38.5828H154.148V47.5428C154.148 50.0115 155.428 50.6514 157.44 50.6514C158.263 50.6514 159.405 50.5144 159.405 50.5144V56.0457C159.405 56.0457 157.806 56.4113 156.115 56.4113C150.583 56.4113 147.246 53.8971 147.246 48.3202V38.5828H143.771V32.9599H147.246V26.24H154.148V32.9599ZM174.688 32.2742C180.54 32.2742 183.603 34.9255 183.603 42.5142V56H176.7V42.8341C176.7 39.7714 175.375 38.4001 172.495 38.4001C169.888 38.4001 168.335 39.7714 168.335 42.8341V56H161.432V24.0456H168.38V35.1998C169.569 33.5083 171.443 32.2742 174.688 32.2742ZM201.202 47.0399C201.202 49.5543 198.825 51.4287 195.168 51.4287C193.386 51.4287 192.334 50.6058 192.334 49.0513C192.334 47.8628 193.065 46.8572 195.398 46.5374L199.375 45.9885C200.06 45.897 200.791 45.7601 201.202 45.6229V47.0399ZM197.363 32.2743C190.551 32.2743 187.259 34.8801 186.986 39.7715H193.705C193.797 38.4914 194.528 37.5313 197.363 37.5313C199.877 37.5313 201.066 38.3544 201.066 39.5884C201.066 40.6859 200.379 41.0972 198.688 41.2799L194.3 41.737C188.357 42.3769 185.66 44.8457 185.66 49.3259C185.66 53.4857 188.22 56.6856 193.66 56.6856C197.363 56.6856 199.558 55.4971 201.477 53.1197V56H207.786V40.8686C207.786 34.5143 204.083 32.2743 197.363 32.2743ZM223.747 32.2742C229.736 32.2742 232.799 34.9255 232.799 42.5142V56H225.896V42.8341C225.896 39.7714 224.57 38.4001 221.691 38.4001C219.084 38.4001 217.531 39.7714 217.531 42.8341V56H210.627V32.96H217.119V35.6116C218.079 33.8285 220.045 32.2742 223.747 32.2742ZM247.36 41.5541C253.211 42.3315 256.138 44.16 256.138 48.96C256.138 53.8058 252.709 56.6857 245.44 56.6857C237.532 56.6857 234.743 53.5317 234.606 48.9141H241.418C241.601 50.6058 242.788 51.4287 245.44 51.4287C248.137 51.4287 249.234 50.7885 249.234 49.5087C249.234 48.3202 248.32 47.7716 245.944 47.4516L243.52 47.1313C238.446 46.4457 235.521 44.4801 235.521 39.9086C235.521 35.52 238.766 32.2742 245.578 32.2742C251.886 32.2742 255.269 34.7885 255.589 39.7714H248.869C248.641 38.446 247.909 37.6229 245.578 37.6229C243.292 37.6229 242.424 38.4001 242.424 39.406C242.424 40.4114 242.972 40.96 244.938 41.2344L247.36 41.5541ZM273.417 47.0403C273.417 49.5544 271.04 51.4287 267.384 51.4287C265.6 51.4287 264.549 50.6058 264.549 49.0513C264.549 47.8628 265.28 46.8572 267.612 46.5374L271.589 45.9885C272.275 45.8974 273.005 45.7601 273.417 45.6229V47.0403ZM269.577 32.2743C262.766 32.2743 259.475 34.8801 259.2 39.7715H265.921C266.012 38.4914 266.743 37.5317 269.577 37.5317C272.092 37.5317 273.281 38.3544 273.281 39.5887C273.281 40.6859 272.594 41.0972 270.903 41.2799L266.514 41.737C260.572 42.3772 257.875 44.8458 257.875 49.3259C257.875 53.4857 260.434 56.6856 265.874 56.6856C269.577 56.6856 271.772 55.4971 273.692 53.1197V56H280V40.8686C280 34.5146 276.297 32.2743 269.577 32.2743Z" fill="white"/>
</svg>
