<svg width="280" height="80" viewBox="0 0 280 80" fill="none" xmlns="http://www.w3.org/2000/svg">
<path d="M24.9279 34.8858C24.5973 32.2755 22.9439 30.9496 21.1253 30.9496C19.5546 30.9496 18.5213 31.8197 18.5213 33.1456C18.5213 37.1646 26.7052 36.0873 26.7052 41.8466C26.7052 44.4569 24.4319 46.6529 21.7453 46.6529C20.0093 46.6529 18.5213 45.5342 17.736 45.5342C17.116 45.5342 16.7853 45.9899 16.7853 46.57H16V41.2251H16.7027C17.4053 44.5398 19.7613 45.7413 21.7453 45.7413C23.3159 45.7413 24.4319 44.6226 24.4319 43.0481C24.4319 38.6976 16.1653 39.8163 16.1653 34.5957C16.1653 32.1512 18.356 30.0795 20.96 30.0795C22.6133 30.0795 23.1506 30.7839 24.1839 30.7839C24.6386 30.7839 24.8866 30.6181 25.1346 30.0795H25.8372V34.8858C25.7959 34.8858 24.9279 34.8858 24.9279 34.8858ZM40.4691 35.8387C40.6345 32.3583 38.2785 30.9496 36.2945 30.9496C33.6905 30.9496 32.2025 32.8555 31.9545 35.8387H40.4691ZM32.0372 36.626C31.9545 43.5868 36.1292 45.4099 38.1958 45.4099C40.3865 45.4099 41.5024 44.7055 43.7758 42.0952V43.2139C41.8744 45.6585 40.0558 46.5286 37.3278 46.5286C32.4505 46.5286 28.8959 43.131 28.8959 38.449C28.8959 33.7671 32.3679 29.9966 36.7078 29.9966C40.2625 29.9966 43.6518 32.9384 43.4038 36.5431C43.5278 36.626 32.0372 36.626 32.0372 36.626ZM60.0196 35.5901H59.317C58.6143 32.8141 56.6303 30.991 54.0263 30.991C50.9677 30.991 48.7357 33.6842 48.7357 37.4546C48.7357 41.7223 51.4224 45.2855 54.5637 45.2855C56.465 45.2855 58.7383 44.3326 60.3916 41.9709V43.0896C58.7383 45.3684 56.2997 46.57 53.5303 46.57C48.9424 46.57 45.7184 43.3382 45.7184 38.6562C45.7184 33.8499 49.273 29.9552 53.7783 29.9552C56.1343 29.9552 57.333 30.8253 58.1183 30.8253C58.573 30.8253 58.9036 30.4938 59.1516 29.9552H59.937C59.937 29.9138 60.0196 35.5901 60.0196 35.5901ZM78.2475 43.2553C78.2475 44.9955 78.8675 45.4513 80.9341 45.4513V46.1557L75.2715 46.4871V43.6282H75.1888C73.6182 45.617 71.8822 46.6943 69.7329 46.6943C66.6742 46.6943 64.6076 44.3326 64.6076 41.3908V33.3942C64.6076 31.9026 64.0703 31.3225 61.8383 31.3225V30.6181L66.8809 30.1624H67.5836V41.2251C67.5836 43.4211 68.9889 44.7884 71.1382 44.7884C72.6262 44.7884 73.9902 43.9183 75.2302 42.2609V33.8085C75.2302 31.6125 74.8995 31.3639 72.1715 31.3639V30.6596L77.4621 30.1209H78.1648C78.1648 30.1624 78.2475 43.2553 78.2475 43.2553ZM88.25 43.2553C88.25 44.9955 88.7874 45.4513 90.854 45.4513V46.1557H82.5874V45.4513C85.0261 45.4513 85.2741 44.8298 85.2741 42.5095V33.9742C85.2741 31.6954 84.6541 31.4468 82.0501 31.4468V30.7424L87.5061 30.2867H88.2087V33.6842C91.1433 31.1568 92.466 30.2867 93.4993 30.2867C94.3673 30.2867 95.566 30.8253 96.3513 31.4882L95.1526 34.1814C93.954 33.477 92.466 32.7727 91.4327 32.7727C90.482 32.7727 89.5314 33.3113 88.126 34.6786C88.1674 34.72 88.25 43.2553 88.25 43.2553ZM104.163 23.9059C104.163 24.9418 103.295 25.8119 102.262 25.8119C101.229 25.8119 100.361 24.9418 100.361 23.9059C100.361 22.8701 101.229 22 102.262 22C103.295 22 104.163 22.8701 104.163 23.9059ZM103.709 43.2553C103.709 44.8298 104.163 45.4513 106.313 45.4513V46.1557H97.798V45.4513C100.237 45.4513 100.733 45.1198 100.733 43.2553V33.6842C100.733 31.4882 100.03 31.3225 97.798 31.3225V30.6181L103.006 30.1624H103.709V43.2553ZM113.546 30.4524H118.919V31.5711H113.546V41.6809C113.546 43.8768 114.662 44.9955 116.315 44.9955C117.431 44.9955 118.299 44.5398 119.25 43.5039L119.704 44.1254C118.299 45.8656 116.77 46.7357 115.034 46.7357C112.347 46.7357 110.529 44.9127 110.529 42.2195V31.7783H107.594V31.0739C109.785 30.0381 111.397 28.1321 112.802 25.3975H113.504C113.422 25.3975 113.546 30.4524 113.546 30.4524ZM130.534 42.551L133.22 34.2643C133.84 32.4412 133.675 31.4054 132.022 31.3225V30.6181H137.602V31.3225C135.948 31.3225 134.915 32.3583 134.047 34.9686L127.806 53.3236C126.607 56.8869 124.499 59 122.68 59C121.978 59 121.564 58.8343 120.779 58.2956L121.73 55.6025C122.35 55.8511 122.68 55.9339 123.218 55.9339C125.119 55.9339 126.152 54.8152 127.227 52.1221L129.211 46.4457L123.631 33.477C122.846 31.654 122.226 31.1982 120.407 31.1153V30.4524H127.888V31.1568C126.69 31.3225 126.235 32.1926 126.772 33.6013C126.731 33.5599 130.534 42.551 130.534 42.551Z" fill="white"/>
<path d="M155.501 33.1455L150.128 46.1141H149.425L144.217 33.1455L143.267 42.3851C143.101 44.1253 143.515 45.0783 145.333 45.4512V46.1556H139.588V45.4512C141.241 45.2026 141.944 44.664 142.192 42.3851L143.143 32.1925C142.357 31.571 142.027 31.571 140.869 31.3224V30.6181H145.995L150.665 42.3023L155.542 30.6181H160.585V31.3224C159.717 31.4053 158.312 31.6539 158.312 33.0626C158.312 33.2284 158.394 34.4714 158.394 34.6371L159.097 42.3023C159.345 45.1612 160.213 45.3684 161.784 45.5341V46.2385H154.137V45.5341C155.625 45.2855 156.41 45.0783 156.41 43.2552L156.328 42.0537L155.501 33.1455ZM170.174 42.7995C170.174 45.4098 170.505 45.4098 172.076 45.4098H174.514C175.63 45.4098 177.201 45.3269 178.069 43.131H178.772L178.069 46.197H164.884V45.4926C166.785 45.3269 167.405 45.1612 167.405 42.7995V34.0156C167.405 31.7368 166.702 31.571 164.884 31.3224V30.6181H177.821L178.069 33.5598H177.366C176.912 31.281 175.3 31.281 173.894 31.281H170.174V37.9932H172.944C175.3 37.9932 175.382 36.7916 175.465 35.9215H176.168V41.0593H175.465C175.382 40.1892 175.382 38.9876 172.944 38.9876H170.174V42.7995ZM189.89 42.7995C189.89 45.1612 190.758 45.3269 192.411 45.4926V46.197H184.434V45.4926C186.087 45.3269 186.955 45.1612 186.955 42.7995V31.6539H184.517C181.83 31.6539 181.582 33.7256 181.458 34.72H180.838L180.921 29.9137H181.624C182.244 30.3695 182.574 30.7009 184.062 30.7009H192.742C194.147 30.7009 194.478 30.4523 195.181 29.9137H195.883L195.966 34.72H195.346C195.263 33.8499 195.015 31.6539 192.287 31.6539H189.849L189.89 42.7995ZM203.778 38.3661H205.762C207.498 38.3661 209.482 37.7446 209.482 34.8028C209.482 32.7312 208.531 31.3224 206.175 31.3224H203.737V38.3661H203.778ZM201.009 33.9327C201.009 31.6539 200.141 31.4882 198.487 31.2396V30.5352H206.217C207.415 30.5352 212.541 30.5352 212.541 34.6371C212.541 36.2116 211.507 37.786 208.986 38.449C210.639 39.2362 211.342 40.1892 213.491 43.2552C214.979 45.2441 215.765 45.2441 217.129 45.4512V46.1556H212.541C211.673 45.2026 211.342 44.8297 209.151 41.8051C207.25 39.1119 206.382 39.1119 205.142 39.1119H203.737V42.6752C203.737 45.0369 204.605 45.2026 206.258 45.3684V46.0727H198.363V45.3684C200.017 45.2026 200.885 45.0369 200.885 42.6752V33.9742H201.009V33.9327ZM224.279 42.7995C224.279 45.1612 225.147 45.3269 226.8 45.4926V46.197H218.906V45.4926C220.559 45.3269 221.427 45.1612 221.427 42.7995V33.9327C221.427 31.6539 220.559 31.4882 218.906 31.2396V30.5352H226.8V31.2396C225.147 31.4053 224.279 31.571 224.279 33.9327V42.7995ZM244.698 35.5072H244.078C243.747 34.3885 243.54 33.767 243.044 33.0626C241.639 31.1567 239.986 30.8667 238.787 30.8667C234.778 30.8667 232.959 34.5957 232.959 38.0761C232.959 42.9652 236.183 45.2026 239.118 45.2026C239.572 45.2026 242.424 45.2026 244.574 42.2608L245.111 42.7166C244.491 43.6696 242.92 46.4456 238.167 46.4456C232.587 46.4456 229.735 42.0122 229.735 38.449C229.735 33.767 233.992 30.1623 238.25 30.1623C239.655 30.1623 241.308 30.4938 241.97 30.6181C242.218 30.7009 242.59 30.7009 242.92 30.7009C243.251 30.7009 243.458 30.5352 243.788 30.2452H244.408L244.698 35.5072ZM257.222 34.8857H256.602C256.354 32.4411 255.031 30.8667 252.799 30.8667C251.063 30.8667 250.112 32.0682 250.112 33.1455C250.112 34.5542 250.815 34.8857 254.204 36.8745C256.974 38.5318 258.007 40.272 258.007 42.0122C258.007 44.0839 256.188 46.5285 252.964 46.5285C252.262 46.5285 251.642 46.5285 250.112 45.7413C249.947 45.6584 249.658 45.5755 249.492 45.5755C248.955 45.5755 248.872 45.907 248.79 46.197H248.004V41.1421H248.707C249.162 43.5867 250.36 45.7413 252.882 45.7413C254.37 45.7413 255.816 44.7883 255.816 43.0481C255.816 41.3079 254.618 40.5207 251.642 38.7804C249.988 37.8275 248.17 36.5845 248.17 34.2642C248.17 32.1925 249.74 30.1623 252.675 30.1623C253.295 30.1623 253.708 30.2452 254.246 30.328C255.444 30.6595 255.568 30.6595 255.816 30.6595C256.271 30.6595 256.519 30.4109 256.684 30.328H257.304V34.8443C257.304 34.8857 257.222 34.8857 257.222 34.8857ZM262.057 31.0324C262.057 30.9495 262.057 30.9495 261.975 30.8667C261.975 30.7838 261.892 30.7838 261.892 30.7838C261.809 30.7009 261.809 30.7009 261.727 30.7009H261.024V31.571H261.355C261.437 31.571 261.52 31.571 261.685 31.4882C261.768 31.4882 261.851 31.4053 261.851 31.4053C261.933 31.3224 261.933 31.3224 261.933 31.2396C262.057 31.2396 262.057 31.0324 262.057 31.0324ZM263.008 32.8969H262.388L261.437 31.9439H261.024V32.8969H260.611V30.3695H261.933C262.016 30.3695 262.099 30.4523 262.264 30.4523C262.347 30.5352 262.429 30.6181 262.512 30.6181C262.595 30.7009 262.595 30.7838 262.595 30.9495C262.595 31.1153 262.512 31.281 262.429 31.4053C262.347 31.4882 262.181 31.571 261.975 31.7368L263.008 32.8969ZM263.628 31.571C263.628 30.9495 263.463 30.4523 263.008 30.0794C262.553 29.6237 262.14 29.4579 261.52 29.4579C260.9 29.4579 260.404 29.6237 260.032 30.0794C259.577 30.5352 259.412 30.9495 259.412 31.571C259.412 32.1925 259.577 32.6897 260.032 33.0626C260.487 33.5184 260.9 33.6841 261.52 33.6841C262.14 33.6841 262.636 33.5184 263.008 33.0626C263.463 32.6897 263.628 32.1925 263.628 31.571ZM264 31.571C264 32.2754 263.752 32.7726 263.297 33.3112C262.843 33.767 262.264 34.0156 261.561 34.0156C260.859 34.0156 260.363 33.767 259.825 33.3112C259.371 32.8555 259.123 32.2754 259.123 31.571C259.123 30.8667 259.371 30.3695 259.825 29.8308C260.28 29.3751 260.859 29.1265 261.561 29.1265C262.264 29.1265 262.76 29.3751 263.297 29.8308C263.711 30.3695 264 30.9495 264 31.571Z" fill="white"/>
</svg>
