<svg width="280" height="80" viewBox="0 0 280 80" fill="none" xmlns="http://www.w3.org/2000/svg">
<path d="M186.333 33.2912C185.47 31.7522 183.25 29.8054 179.681 29.8054C174.139 29.8054 169.66 34.0453 169.66 40.255C169.66 45.8184 173.368 50.7353 179.681 50.7353C182.448 50.7353 185.077 49.5888 186.333 47.2881V50.1275H191.043V30.4133H186.333V33.2912ZM186.333 40.432C186.28 41.3977 186.017 42.3403 185.562 43.1944C185.094 44.1688 184.352 44.9863 183.427 45.5478C182.502 46.1092 181.434 46.3903 180.352 46.357C179.56 46.3673 178.775 46.2194 178.041 45.9218C177.308 45.6242 176.642 45.183 176.082 44.6244C175.523 44.0657 175.081 43.4007 174.783 42.6688C174.485 41.9369 174.336 41.1528 174.347 40.3627C174.316 39.5622 174.447 38.7636 174.734 38.0153C175.021 37.267 175.456 36.5845 176.015 36.0091C176.573 35.4337 177.243 34.9773 177.983 34.6675C178.723 34.3578 179.518 34.201 180.321 34.2069C181.483 34.168 182.63 34.4798 183.612 35.1017C184.593 35.7235 185.365 36.6265 185.824 37.6926C186.216 38.5511 186.401 39.4893 186.364 40.432H186.333Z" fill="white"/>
<path d="M203.203 34.1826C204.35 34.1528 205.478 34.4786 206.432 35.1153C207.386 35.7519 208.119 36.6681 208.53 37.7376H213.347C212.712 35.2885 211.205 33.1546 209.107 31.7357C207.009 30.3169 204.464 29.7103 201.95 30.0298C199.436 30.3493 197.126 31.5728 195.451 33.4712C193.776 35.3696 192.852 37.8125 192.852 40.3423C192.852 42.872 193.776 45.3149 195.451 47.2133C197.126 49.1117 199.436 50.3353 201.95 50.6548C204.464 50.9742 207.009 50.3677 209.107 48.9488C211.205 47.5299 212.712 45.396 213.347 42.947H208.53C208.085 43.9787 207.338 44.8524 206.388 45.4538C205.438 46.0551 204.328 46.3561 203.203 46.3173C199.865 46.3173 197.383 43.8011 197.383 40.2538C197.354 38.6448 197.929 37.0831 198.994 35.8754C199.539 35.3167 200.195 34.8776 200.92 34.5861C201.645 34.2946 202.422 34.1572 203.203 34.1826Z" fill="white"/>
<path d="M145.391 30.4121L140.08 43.9935L135.147 30.4121H129.836L136.334 46.7251L137.691 50.1263C136.234 54.1353 135.078 53.8736 132.657 53.5659V57.5056C133.796 57.756 134.96 57.8799 136.126 57.875C139.572 57.875 140.913 54.8663 142.038 52.0346C142.948 49.7261 150.363 30.4121 150.363 30.4121H145.391Z" fill="white"/>
<path d="M123.05 34.5141C117.808 32.9751 117.099 31.867 117.099 30.4204C117.099 28.9738 118.502 27.3425 121.655 27.3425C124.808 27.3425 128.978 29.0584 128.978 29.0584V24.3646C126.481 23.5021 123.857 23.0651 121.216 23.0719C115.342 23.0719 112.02 25.9189 112.02 30.4666C112.02 35.3836 114.648 37.3919 120.969 38.9925C125.108 40.0543 125.447 41.7549 125.447 42.8399C125.447 43.9248 124.754 46.2487 120.9 46.2487C118.033 46.122 115.21 45.4971 112.559 44.4019V49.0188C115.354 50.0173 118.309 50.4972 121.277 50.4347C127.66 50.4347 130.658 47.2182 130.658 42.5552C130.658 37.8921 128.292 36.0299 123.05 34.5141Z" fill="white"/>
<path d="M158.971 29.5349C154.007 29.5349 149.637 33.5516 149.637 38.5148V50.1263H154.323V38.384C154.323 36.014 156.59 34.0902 158.948 34.0902C161.307 34.0902 163.573 36.014 163.573 38.384V50.1263H168.26V38.5148C168.306 33.5516 163.943 29.5349 158.971 29.5349Z" fill="white"/>
<path d="M214.811 22.125H219.52V38.9074L226.042 30.42H231.962L224.423 39.7077L232 50.1265H226.404L221.455 42.9703L219.52 45.425V50.1265H214.811V22.125Z" fill="white"/>
<path d="M75.7371 19.1316L70.4492 28.2731H81.025L75.7371 19.1316Z" fill="white"/>
<path d="M60.9443 24.1796L47 16L49.3125 23.3101L58.5625 28.6965L58.6473 28.7426C61.9233 30.3432 64.4516 33.2749 66.1937 37.484L50.9467 28.5426L53.2592 35.8604L73.7478 47.9181C73.0541 40.1925 70.387 28.8581 60.9443 24.1796Z" fill="white"/>
<path d="M54.7793 40.7156L57.0841 48.0334L70.6584 56.0206L67.2745 58.0135L67.2668 64.0001L75.7382 59.0139L84.2173 64.0001L84.2096 58.0135L80.818 56.0206L94.3923 48.0334L96.6971 40.7156L75.7382 53.035L54.7793 40.7156Z" fill="white"/>
<path d="M92.8911 28.7437L92.9759 28.6976L102.18 23.3112L104.492 16.0088L90.5401 24.1884C81.1051 28.8668 78.4303 40.2013 77.752 47.9269L98.233 35.8691L100.545 28.5514L85.3601 37.4927C87.0867 33.2837 89.6151 30.3443 92.8911 28.7437Z" fill="white"/>
</svg>
